<svg width="64" height="65" viewBox="0 0 64 65" fill="none" xmlns="http://www.w3.org/2000/svg">
<path d="M52 51.4792C51.2636 51.4792 50.6667 50.8822 50.6667 50.1458V42.1458C50.6667 41.4095 50.0697 40.8125 49.3333 40.8125H46.6667C45.9303 40.8125 45.3333 41.4095 45.3333 42.1458V50.1458C45.3333 50.8822 44.7364 51.4792 44 51.4792H43.219C42.0311 51.4792 41.4362 52.9154 42.2761 53.7553L47.0572 58.5364C47.5779 59.0571 48.4221 59.0571 48.9428 58.5364L53.7239 53.7553C54.5638 52.9154 53.9689 51.4792 52.7811 51.4792H52ZM32.0141 49.7987C32.0482 50.6367 31.4006 51.4792 30.562 51.4792C29.8834 51.4792 29.3333 52.0293 29.3333 52.7078V55.4792C29.3333 56.2155 28.7364 56.8125 28 56.8125H25.3333C24.597 56.8125 24 56.2155 24 55.4792V52.8125C24 52.0761 23.403 51.4792 22.6667 51.4792H18.6667C15.7333 51.4792 13.3333 49.0792 13.3333 46.1458V42.1458C13.3333 41.4095 12.7364 40.8125 12 40.8125H9.33333C8.59696 40.8125 8 40.2155 8 39.4792V36.8125C8 36.0761 8.59695 35.4792 9.33333 35.4792H12C12.7364 35.4792 13.3333 34.8822 13.3333 34.1458V31.4792C13.3333 30.7428 12.7364 30.1458 12 30.1458H9.33333C8.59696 30.1458 8 29.5489 8 28.8125V26.1458C8 25.4095 8.59695 24.8125 9.33333 24.8125H12C12.7364 24.8125 13.3333 24.2155 13.3333 23.4792V19.4792C13.3333 16.5458 15.7333 14.1458 18.6667 14.1458H22.6667C23.403 14.1458 24 13.5489 24 12.8125V10.1458C24 9.40946 24.597 8.8125 25.3333 8.8125H28C28.7364 8.8125 29.3333 9.40945 29.3333 10.1458V12.8125C29.3333 13.5489 29.9303 14.1458 30.6667 14.1458H33.3333C34.0697 14.1458 34.6667 13.5489 34.6667 12.8125V10.1458C34.6667 9.40946 35.2636 8.8125 36 8.8125H38.6667C39.403 8.8125 40 9.40945 40 10.1458V12.8125C40 13.5489 40.597 14.1458 41.3333 14.1458H45.3333C48.2667 14.1458 50.6667 16.5458 50.6667 19.4792V23.4792C50.6667 24.2155 51.2636 24.8125 52 24.8125H54.6667C55.403 24.8125 56 25.4095 56 26.1458V28.8125C56 29.5489 55.403 30.1458 54.6667 30.1458H51.8953C51.2168 30.1458 50.6667 30.6959 50.6667 31.3745C50.6667 32.2131 49.8242 32.8607 48.9862 32.8266C48.6387 32.8125 48.3005 32.8125 48 32.8125C47.7415 32.8125 47.4552 32.8125 47.159 32.8215C46.2493 32.8491 45.3333 32.1393 45.3333 31.2293V20.8125C45.3333 20.0761 44.7364 19.4792 44 19.4792H20C19.2636 19.4792 18.6667 20.0761 18.6667 20.8125V44.8125C18.6667 45.5489 19.2636 46.1458 20 46.1458H30.4168C31.3268 46.1458 32.0366 47.0618 32.009 47.9715C32 48.2677 32 48.554 32 48.8125C32 49.113 32 49.4512 32.0141 49.7987ZM24 39.4792C24 40.2155 24.597 40.8125 25.3333 40.8125H33.3488C33.833 40.8125 34.275 40.5473 34.5335 40.1378C35.7331 38.2375 37.425 36.5456 39.3253 35.346C39.7348 35.0875 40 34.6455 40 34.1613V26.1458C40 25.4095 39.403 24.8125 38.6667 24.8125H25.3333C24.597 24.8125 24 25.4095 24 26.1458V39.4792ZM29.3333 31.4792C29.3333 30.7428 29.9303 30.1458 30.6667 30.1458H33.3333C34.0697 30.1458 34.6667 30.7428 34.6667 31.4792V34.1458C34.6667 34.8822 34.0697 35.4792 33.3333 35.4792H30.6667C29.9303 35.4792 29.3333 34.8822 29.3333 34.1458V31.4792Z" fill="#FF6320"/>
</svg>
