<svg width="1245" height="239" viewBox="0 0 1245 239" fill="none" xmlns="http://www.w3.org/2000/svg">
<g clip-path="url(#clip0_94_508)">
<path opacity="0.55" d="M-149.926 135.98L296.2 135.981C297.829 135.981 299.149 134.661 299.149 133.032V133.032C299.149 131.404 297.829 130.084 296.201 130.084L-149.926 130.084L-149.926 135.98Z" fill="url(#paint0_linear_94_508)"/>
<path opacity="0.88" d="M998.594 -23.9999C1000.25 -23.9999 1001.59 -22.6567 1001.59 -20.9999C1001.59 -19.343 1000.25 -17.9999 998.594 -17.9999L998.594 -23.9999ZM-165 130.028L318.127 130.028L318.127 136.028L-165 136.028L-165 130.028ZM904.78 -23.9999L998.594 -23.9999L998.594 -17.9999L904.78 -17.9999L904.78 -23.9999ZM609.98 53.4008C699.948 2.66024 801.489 -23.9999 904.78 -23.9999L904.78 -17.9999C802.522 -17.9999 701.996 8.39369 612.927 58.6269L609.98 53.4008ZM318.127 130.028C420.384 130.028 520.911 103.634 609.98 53.4008L612.927 58.6269C522.959 109.368 421.417 136.028 318.127 136.028L318.127 130.028Z" fill="url(#paint1_linear_94_508)"/>
<path d="M1539 18.9003C1540.66 18.9003 1542 20.2435 1542 21.9003C1542 23.5572 1540.66 24.9003 1539 24.9003L1539 18.9003ZM0.253906 172.928L383.314 172.928L383.314 178.928L0.253907 178.928L0.253906 172.928ZM945.027 18.9003L1539 18.9003L1539 24.9003L945.027 24.9003L945.027 18.9003ZM662.641 96.3336C748.114 45.6469 845.655 18.9003 945.027 18.9003L945.027 24.9003C846.732 24.9003 750.248 51.357 665.701 101.494L662.641 96.3336ZM383.314 172.928C481.61 172.928 578.093 146.471 662.641 96.3336L665.701 101.494C580.227 152.181 482.687 178.928 383.314 178.928L383.314 172.928Z" fill="url(#paint2_linear_94_508)"/>
<path opacity="0.88" d="M1163.85 -2.15637C1165.51 -2.15637 1166.85 -0.813221 1166.85 0.843633C1166.85 2.50049 1165.51 3.84363 1163.85 3.84363L1163.85 -2.15637ZM348.585 154.871L348.585 151.871L348.585 154.871ZM0.253906 151.871L348.585 151.871L348.585 157.871L0.253906 157.871L0.253906 151.871ZM930.844 -2.15639L1163.85 -2.15637L1163.85 3.84363L930.844 3.84361L930.844 -2.15639ZM638.231 75.2498C727.409 24.5182 828.245 -2.1564 930.844 -2.15639L930.844 3.84361C829.285 3.8436 729.472 30.2477 641.198 80.4649L638.231 75.2498ZM348.585 151.871C450.143 151.871 549.957 125.467 638.231 75.2498L641.198 80.4649C552.02 131.197 451.184 157.871 348.585 157.871L348.585 151.871Z" fill="url(#paint3_linear_94_508)"/>
<path d="M1244.67 39.9569C1246.33 39.9569 1247.67 41.3001 1247.67 42.9569C1247.67 44.6138 1246.33 45.9569 1244.67 45.9569L1244.67 39.9569ZM0.253906 193.984L406.407 193.984L406.407 199.984L0.253907 199.984L0.253906 193.984ZM967.326 39.9569L1244.67 39.9569L1244.67 45.9569L967.326 45.9569L967.326 39.9569ZM685.334 117.391C770.664 66.7064 868.078 39.9569 967.326 39.9569L967.326 45.9569C869.156 45.9569 772.801 72.4158 688.398 122.55L685.334 117.391ZM406.407 193.984C504.576 193.984 600.931 167.525 685.334 117.391L688.398 122.55C603.068 173.235 505.655 199.984 406.407 199.984L406.407 193.984Z" fill="url(#paint4_linear_94_508)"/>
<path opacity="0.88" d="M1122.67 61.0136C1124.33 61.0136 1125.67 62.3567 1125.67 64.0136C1125.67 65.6704 1124.33 67.0136 1122.67 67.0136L1122.67 61.0136ZM443.569 218.041L443.569 215.041L443.569 218.041ZM0.253905 215.041L443.569 215.041L443.569 221.041L0.253907 221.041L0.253905 215.041ZM975.197 61.0135L1122.67 61.0136L1122.67 67.0136L975.197 67.0135L975.197 61.0135ZM707.779 138.492C787.791 87.8803 880.522 61.0135 975.197 61.0135L975.197 67.0135C881.657 67.0135 790.038 93.5581 710.987 143.563L707.779 138.492ZM443.569 215.041C537.109 215.041 628.728 188.496 707.779 138.492L710.987 143.563C630.975 194.174 538.244 221.041 443.569 221.041L443.569 215.041Z" fill="url(#paint5_linear_94_508)"/>
<path opacity="0.88" d="M957.419 99.8033C959.076 99.8033 960.419 101.146 960.419 102.803C960.419 104.46 959.076 105.803 957.419 105.803L957.419 99.8033ZM-165 235.799L442.315 235.799L442.315 241.799L-165 241.799L-165 235.799ZM716.894 168.144L749.518 151.029L752.305 156.342L719.681 173.458L716.894 168.144ZM749.518 151.029C813.652 117.382 884.994 99.8033 957.419 99.8033L957.419 105.803C885.965 105.803 815.579 123.146 752.305 156.342L749.518 151.029ZM442.315 235.799C537.967 235.799 632.191 212.583 716.894 168.144L719.681 173.458C634.118 218.347 538.938 241.799 442.315 241.799L442.315 235.799Z" fill="url(#paint6_linear_94_508)"/>
</g>
<defs>
<linearGradient id="paint0_linear_94_508" x1="205.27" y1="133.032" x2="-575.901" y2="131.547" gradientUnits="userSpaceOnUse">
<stop stop-color="#FF6B2C" stop-opacity="0"/>
<stop offset="0.322917" stop-color="#FF6B2C"/>
<stop offset="1" stop-color="#DF3724"/>
</linearGradient>
<linearGradient id="paint1_linear_94_508" x1="-113.007" y1="120.324" x2="367.865" y2="-122.702" gradientUnits="userSpaceOnUse">
<stop stop-color="#FF6321" stop-opacity="0"/>
<stop offset="0.455331" stop-color="#FF6321"/>
<stop offset="1" stop-color="#DF4705" stop-opacity="0"/>
</linearGradient>
<linearGradient id="paint2_linear_94_508" x1="-118.847" y1="233.633" x2="815.745" y2="-513.407" gradientUnits="userSpaceOnUse">
<stop stop-color="#FF6321"/>
<stop offset="1" stop-color="#DF4705" stop-opacity="0"/>
</linearGradient>
<linearGradient id="paint3_linear_94_508" x1="-92.5891" y1="212.576" x2="908.37" y2="-419.375" gradientUnits="userSpaceOnUse">
<stop stop-color="#FF6321"/>
<stop offset="1" stop-color="#DF4705" stop-opacity="0"/>
</linearGradient>
<linearGradient id="paint4_linear_94_508" x1="-98.6093" y1="254.69" x2="911.196" y2="-390.986" gradientUnits="userSpaceOnUse">
<stop stop-color="#FF6321"/>
<stop offset="1" stop-color="#DF4705" stop-opacity="0"/>
</linearGradient>
<linearGradient id="paint5_linear_94_508" x1="-98.8138" y1="275.746" x2="857.916" y2="-366.128" gradientUnits="userSpaceOnUse">
<stop stop-color="#FF6321"/>
<stop offset="1" stop-color="#DF4705" stop-opacity="0"/>
</linearGradient>
<linearGradient id="paint6_linear_94_508" x1="-128.705" y1="280.935" x2="404.16" y2="65.7192" gradientUnits="userSpaceOnUse">
<stop stop-color="#FF6321" stop-opacity="0"/>
<stop offset="0.375" stop-color="#FF6321"/>
<stop offset="1" stop-color="#DF4705" stop-opacity="0"/>
</linearGradient>
<clipPath id="clip0_94_508">
<rect width="1245" height="239" fill="white"/>
</clipPath>
</defs>
</svg>
