<svg width="2442" height="3328" viewBox="0 0 2442 3328" fill="none" xmlns="http://www.w3.org/2000/svg">
<path d="M1266.17 3.3167C1266.17 1.84395 1264.97 0.650038 1263.5 0.650038C1262.03 0.650038 1260.83 1.84395 1260.83 3.3167C1260.83 4.78946 1262.03 5.98337 1263.5 5.98337C1264.97 5.98337 1266.17 4.78946 1266.17 3.3167ZM1363.5 294.75L1363.5 294.25L1363.5 294.75ZM2388 294.25L1363.5 294.25L1363.5 295.25L2388 295.25L2388 294.25ZM1264 194.75L1264 3.3167L1263 3.3167L1263 194.75L1264 194.75ZM1363.5 294.25C1308.55 294.25 1264 249.702 1264 194.75L1263 194.75C1263 250.254 1308 295.25 1363.5 295.25L1363.5 294.25Z" fill="url(#paint0_linear_100_555)"/>
<path d="M2441.5 356.156V1332.95C2441.5 1388.18 2396.73 1432.95 2341.5 1432.95H500.17M1222.25 3327.16V3012.63C1222.25 2957.23 1177.2 2912.38 1121.8 2912.63L100.954 2917.26C45.5485 2917.52 0.5 2872.67 0.5 2817.26V2349.41V1532.95C0.5 1477.73 45.2715 1432.95 100.5 1432.95H298.692" stroke="black"/>
<path d="M2385.5 294.656V294.656C2416.35 294.381 2441.5 319.311 2441.5 350.158V361.156" stroke="black"/>
<defs>
<linearGradient id="paint0_linear_100_555" x1="680.264" y1="143.091" x2="328.854" y2="932.835" gradientUnits="userSpaceOnUse">
<stop stop-color="#262727"/>
<stop offset="1" stop-color="#262727" stop-opacity="0.2"/>
</linearGradient>
</defs>
</svg>
