<svg width="1182" height="361" viewBox="0 0 1182 361" fill="none" xmlns="http://www.w3.org/2000/svg">
<path d="M5.66669 3.00005C5.66669 1.5273 4.47279 0.333388 3.00003 0.333388C1.52727 0.333387 0.333359 1.52729 0.333359 3.00005C0.333359 4.47281 1.52727 5.66672 3.00003 5.66672C4.47278 5.66672 5.66669 4.47281 5.66669 3.00005ZM103 294.433L103 293.933L103 294.433ZM1127.5 293.933L103 293.933L103 294.933L1127.5 294.933L1127.5 293.933ZM3.50001 194.433L3.50003 3.00005L2.50003 3.00005L2.50001 194.433L3.50001 194.433ZM103 293.933C48.0477 293.933 3.5 249.386 3.50001 194.433L2.50001 194.433C2.5 249.938 47.4954 294.933 103 294.933L103 293.933Z" fill="url(#paint0_linear_102_561)"/>
<path d="M1125 294.34V294.34C1155.85 294.064 1181 318.994 1181 349.842V360.84" stroke="black"/>
<defs>
<linearGradient id="paint0_linear_102_561" x1="-580.236" y1="142.774" x2="-931.646" y2="932.519" gradientUnits="userSpaceOnUse">
<stop stop-color="#262727"/>
<stop offset="1" stop-color="#262727" stop-opacity="0.2"/>
</linearGradient>
</defs>
</svg>
