<svg width="168" height="32" viewBox="0 0 168 32" fill="none" xmlns="http://www.w3.org/2000/svg">
<path fill-rule="evenodd" clip-rule="evenodd" d="M83.6767 23.8216L87.3081 30.777C87.529 31.2001 87.9666 31.4653 88.4438 31.4653C89.4066 31.4653 90.0253 30.4431 89.5789 29.5901L76.098 3.82819C75.6557 2.98289 74.7805 2.45312 73.8265 2.45312C72.8724 2.45312 71.9973 2.98289 71.555 3.82819L58.074 29.5901C57.6277 30.4431 58.2464 31.4653 59.2092 31.4653C59.6864 31.4653 60.124 31.2001 60.3449 30.777L63.9763 23.8216H83.6767ZM65.2643 21.3934L73.837 5.00805L82.3887 21.3934H65.2643Z" fill="white"/>
<path d="M24.5706 2.45312C24.9318 2.45312 25.2773 2.60108 25.5265 2.86253L34.2252 11.9873C35.5183 13.3437 36.2396 15.1459 36.2396 17.0199C36.2396 18.894 35.5183 20.6961 34.2252 22.0525L25.5265 31.1773C25.2773 31.4388 24.9318 31.5867 24.5706 31.5867C23.413 31.5867 22.8137 30.2059 23.6079 29.3636C25.8138 27.0241 29.2109 23.425 31.0076 21.54C32.2142 20.2741 33.361 18.6478 33.3675 17.0199C33.361 15.392 32.2142 13.7657 31.0076 12.4998C29.2109 10.6149 25.8138 7.01572 23.6079 4.67621C22.8137 3.83398 23.413 2.45312 24.5706 2.45312Z" fill="white"/>
<path d="M49.4713 31.0565C49.7206 31.318 50.066 31.4659 50.4273 31.4659C51.5848 31.4659 52.1841 30.0851 51.39 29.2429C49.1841 26.9033 45.787 23.3042 43.9903 21.4192C42.7986 20.169 41.6653 18.5672 41.6311 16.9596C41.6652 15.3519 42.7986 13.75 43.9903 12.4998C45.787 10.6149 49.1841 7.01572 51.39 4.67621C52.1841 3.83398 51.5848 2.45312 50.4273 2.45312C50.066 2.45312 49.7206 2.60108 49.4713 2.86253L40.7727 11.9873C39.5074 13.3146 38.7895 15.0686 38.7592 16.8991H38.7582C38.7582 16.9193 38.7583 16.9395 38.7585 16.9596C38.7583 16.9797 38.7582 16.9998 38.7582 17.0199H38.7592C38.7895 18.8505 39.5074 20.6045 40.7727 21.9318L49.4713 31.0565Z" fill="white"/>
<path d="M125.51 31.4653C124.969 31.4653 124.45 31.2482 124.069 30.8626L99.4524 5.916V30.1456C99.4524 30.8744 98.8615 31.4653 98.1327 31.4653C97.4038 31.4653 96.813 30.8744 96.813 30.1456V4.50647C96.813 3.37244 97.7323 2.45312 98.8663 2.45312C99.4168 2.45312 99.9443 2.67417 100.33 3.06664L124.938 28.0868V3.7517C124.938 3.03452 125.52 2.45312 126.237 2.45312C126.954 2.45312 127.535 3.03452 127.535 3.7517V29.4403C127.535 30.5587 126.629 31.4653 125.51 31.4653Z" fill="white"/>
<path fill-rule="evenodd" clip-rule="evenodd" d="M165.141 31.4653C164.663 31.4653 164.226 31.2001 164.005 30.777L160.373 23.8216H140.673L137.042 30.777C136.821 31.2001 136.383 31.4653 135.906 31.4653C134.943 31.4653 134.324 30.4431 134.771 29.5901L148.252 3.82819C148.694 2.98289 149.569 2.45312 150.523 2.45312C151.477 2.45312 152.352 2.98289 152.795 3.82819L166.276 29.5901C166.722 30.4431 166.103 31.4653 165.141 31.4653ZM150.534 5.00805L141.961 21.3934H159.085L150.534 5.00805Z" fill="white"/>
<path d="M0 4.36766C0 3.69862 0.542367 3.15625 1.21141 3.15625H14.6744C15.3434 3.15625 15.8858 3.69862 15.8858 4.36766C15.8858 5.03671 15.3434 5.57907 14.6744 5.57907L9.26257 5.57907V29.0021C9.26257 29.0156 9.26237 29.029 9.26197 29.0423H14.6751C15.3441 29.0423 15.8865 29.5847 15.8865 30.2537C15.8865 30.9228 15.3441 31.4651 14.6751 31.4651L1.21211 31.4651C0.54307 31.4651 0.000702161 30.9228 0.00070219 30.2537C0.000702219 29.5847 0.543069 29.0423 1.21211 29.0423H6.62379C6.62339 29.029 6.62319 29.0156 6.62319 29.0021V5.57907L1.21141 5.57907C0.542368 5.57907 0 5.03671 0 4.36766Z" fill="white"/>
<circle cx="37.4991" cy="2.45416" r="2.15729" fill="white"/>
</svg>
