<svg width="168" height="33" viewBox="0 0 168 33" fill="none" xmlns="http://www.w3.org/2000/svg">
<path fill-rule="evenodd" clip-rule="evenodd" d="M84.0483 24.3802L87.6797 31.3356C87.9005 31.7586 88.3382 32.0239 88.8154 32.0239C89.7781 32.0239 90.3969 31.0017 89.9505 30.1487L76.4696 4.38679C76.0273 3.54148 75.1521 3.01172 74.1981 3.01172C73.244 3.01172 72.3689 3.54148 71.9265 4.38679L58.4456 30.1487C57.9992 31.0017 58.618 32.0239 59.5807 32.0239C60.0579 32.0239 60.4956 31.7586 60.7164 31.3356L64.3479 24.3802H84.0483ZM65.6359 21.952L74.2086 5.56665L82.7602 21.952H65.6359Z" fill="black"/>
<path d="M24.9422 3.01172C25.3034 3.01172 25.6489 3.15967 25.8981 3.42112L34.5968 12.5459C35.8899 13.9023 36.6112 15.7045 36.6112 17.5785C36.6112 19.4526 35.8899 21.2547 34.5968 22.6111L25.8981 31.7359C25.6489 31.9974 25.3034 32.1453 24.9422 32.1453C23.7846 32.1453 23.1853 30.7645 23.9794 29.9222C26.1854 27.5827 29.5825 23.9836 31.3792 22.0986C32.5858 20.8327 33.7326 19.2064 33.7391 17.5785C33.7326 15.9506 32.5858 14.3243 31.3792 13.0584C29.5825 11.1735 26.1854 7.57432 23.9794 5.2348C23.1853 4.39257 23.7846 3.01172 24.9422 3.01172Z" fill="black"/>
<path d="M49.8429 31.6151C50.0922 31.8766 50.4376 32.0245 50.7988 32.0245C51.9564 32.0245 52.5557 30.6437 51.7616 29.8014C49.5557 27.4619 46.1586 23.8628 44.3619 21.9778C43.1702 20.7276 42.0369 19.1258 42.0027 17.5182C42.0368 15.9104 43.1702 14.3086 44.3619 13.0584C46.1586 11.1735 49.5557 7.57432 51.7616 5.2348C52.5557 4.39257 51.9564 3.01172 50.7988 3.01172C50.4376 3.01172 50.0922 3.15967 49.8429 3.42112L41.1443 12.5459C39.879 13.8732 39.1611 15.6272 39.1308 17.4577H39.1298C39.1298 17.4779 39.1299 17.4981 39.1301 17.5182C39.1299 17.5383 39.1298 17.5584 39.1298 17.5785H39.1308C39.1611 19.4091 39.879 21.1631 41.1443 22.4904L49.8429 31.6151Z" fill="black"/>
<path d="M125.882 32.0239C125.34 32.0239 124.821 31.8068 124.441 31.4212L99.824 6.47459V30.7042C99.824 31.433 99.2331 32.0239 98.5043 32.0239C97.7754 32.0239 97.1846 31.433 97.1846 30.7042V5.06507C97.1846 3.93103 98.1039 3.01172 99.2379 3.01172C99.7884 3.01172 100.316 3.23276 100.702 3.62524L125.31 28.6454V4.3103C125.31 3.59311 125.891 3.01172 126.608 3.01172C127.326 3.01172 127.907 3.59311 127.907 4.3103V29.9989C127.907 31.1172 127 32.0239 125.882 32.0239Z" fill="black"/>
<path fill-rule="evenodd" clip-rule="evenodd" d="M165.512 32.0239C165.035 32.0239 164.597 31.7586 164.376 31.3356L160.745 24.3802H141.045L137.413 31.3356C137.192 31.7586 136.755 32.0239 136.278 32.0239C135.315 32.0239 134.696 31.0017 135.142 30.1487L148.623 4.38678C149.066 3.54148 149.941 3.01172 150.895 3.01172C151.849 3.01172 152.724 3.54148 153.166 4.38678L166.647 30.1487C167.094 31.0017 166.475 32.0239 165.512 32.0239ZM150.905 5.56665L142.333 21.952H159.457L150.905 5.56665Z" fill="black"/>
<path d="M0.371582 4.92821C0.371582 4.25916 0.913949 3.7168 1.58299 3.7168H15.0459C15.715 3.7168 16.2573 4.25917 16.2573 4.92821C16.2573 5.59725 15.715 6.13962 15.0459 6.13962L9.63416 6.13962V29.5627C9.63416 29.5761 9.63395 29.5895 9.63355 29.6029H15.0466C15.7157 29.6029 16.2581 30.1452 16.2581 30.8143C16.2581 31.4833 15.7157 32.0257 15.0466 32.0257L1.5837 32.0257C0.914652 32.0257 0.372284 31.4833 0.372284 30.8143C0.372284 30.1452 0.914651 29.6029 1.5837 29.6029H6.99537C6.99497 29.5895 6.99477 29.5761 6.99477 29.5627V6.13962L1.58299 6.13962C0.91395 6.13962 0.371582 5.59725 0.371582 4.92821Z" fill="black"/>
<circle cx="37.8707" cy="3.01081" r="2.15729" fill="black"/>
</svg>
