<svg width="324" height="63" viewBox="0 0 324 63" fill="none" xmlns="http://www.w3.org/2000/svg">
<path d="M63.3484 4.43368C63.3484 6.88234 61.369 8.86737 58.9274 8.86737C56.4857 8.86737 54.5064 6.88234 54.5064 4.43368C54.5064 1.98503 56.4857 0 58.9274 0C61.369 0 63.3484 1.98503 63.3484 4.43368Z" fill="#100F0F"/>
<path fill-rule="evenodd" clip-rule="evenodd" d="M153.56 46.8718L161.002 61.1667C161.455 62.036 162.352 62.5811 163.329 62.5811C165.302 62.5811 166.571 60.4804 165.656 58.7272L138.029 5.78112C137.122 4.04384 135.329 2.95506 133.374 2.95506C131.418 2.95506 129.625 4.04384 128.719 5.78112L101.092 58.7272C100.177 60.4804 101.445 62.5811 103.418 62.5811C104.396 62.5811 105.293 62.036 105.745 61.1667L113.187 46.8718H153.56ZM115.827 41.8812L133.395 8.20597L150.92 41.8812H115.827Z" fill="#100F0F"/>
<path d="M32.4334 62.83C33.1737 62.83 33.8816 62.5259 34.3924 61.9886L52.2189 43.2353C54.8689 40.4475 56.3472 36.7437 56.3472 32.8922C56.3472 29.0406 54.8689 25.3368 52.2189 22.5491L34.3924 3.79575C33.8816 3.25841 33.1737 2.95434 32.4334 2.95434C30.0611 2.95434 28.833 5.79228 30.4604 7.52324C34.9811 12.3314 41.9429 19.7284 45.625 23.6024C48.0977 26.204 50.4479 29.5464 50.4612 32.8922C50.4479 36.2379 48.0977 39.5803 45.625 42.1819C41.9429 46.0559 34.9811 53.4529 30.4604 58.2611C28.833 59.9921 30.0611 62.83 32.4334 62.83Z" fill="#100F0F"/>
<path d="M85.4221 62.5818C84.6818 62.5818 83.9738 62.2777 83.4631 61.7403L65.6366 42.987C63.0436 40.2592 61.5724 36.6543 61.5103 32.8922H61.5083C61.5083 32.8633 61.5084 32.8344 61.5085 32.8055L61.5088 32.7684C61.5086 32.7472 61.5085 32.726 61.5084 32.7047C61.5083 32.6845 61.5083 32.6642 61.5083 32.6439H61.5103C61.5724 28.8817 63.0436 25.2769 65.6366 22.5491L83.4631 3.79575C83.9738 3.25841 84.6818 2.95434 85.4221 2.95434C87.7943 2.95434 89.0225 5.79228 87.3951 7.52324C82.8744 12.3314 75.9126 19.7284 72.2305 23.6024C69.7883 26.1719 67.4658 29.4639 67.3959 32.7681C67.4658 36.0722 69.7883 39.3642 72.2305 41.9337C75.9126 45.8077 82.8744 53.2047 87.3951 58.0128C89.0225 59.7438 87.7943 62.5818 85.4221 62.5818Z" fill="#100F0F"/>
<path d="M236.339 61.3425C237.119 62.135 238.183 62.5811 239.293 62.5811C241.585 62.5811 243.443 60.7178 243.443 58.4193V5.62392C243.443 4.14995 242.252 2.95506 240.782 2.95506C239.312 2.95506 238.121 4.14995 238.121 5.62391V55.6378L187.69 4.21597C186.899 3.40935 185.818 2.95506 184.69 2.95506C182.366 2.95506 180.482 4.84445 180.482 7.17512V59.8689C180.482 61.3668 181.693 62.5811 183.187 62.5811C184.68 62.5811 185.891 61.3668 185.891 59.8689V10.072L236.339 61.3425Z" fill="#100F0F"/>
<path fill-rule="evenodd" clip-rule="evenodd" d="M320.507 62.5811C319.529 62.5811 318.632 62.036 318.18 61.1667L310.738 46.8718H270.365L262.923 61.1667C262.47 62.036 261.574 62.5811 260.596 62.5811C258.623 62.5811 257.355 60.4804 258.269 58.7272L285.896 5.78111C286.803 4.04384 288.596 2.95506 290.551 2.95506C292.507 2.95506 294.3 4.04384 295.207 5.78112L322.834 58.7272C323.748 60.4804 322.48 62.5811 320.507 62.5811ZM290.573 8.20597L273.005 41.8812H308.098L290.573 8.20597Z" fill="#100F0F"/>
<path d="M0.5 60.2878C0.5 61.7857 1.71085 63 3.2045 63C4.69815 63 5.909 61.7857 5.909 60.2878V4.92907C5.909 3.43114 4.69815 2.21683 3.2045 2.21683C1.71085 2.21683 0.5 3.43114 0.5 4.92907V60.2878Z" fill="#100F0F"/>
</svg>
