<svg width="273" height="364" viewBox="0 0 273 364" fill="none" xmlns="http://www.w3.org/2000/svg">
<path d="M87.9367 336.69H89.8327V352.242H98.5927V353.97H87.9367V336.69ZM106.036 354.258C104.82 354.258 103.764 353.978 102.868 353.418C101.972 352.842 101.284 352.066 100.804 351.09C100.324 350.098 100.084 348.978 100.084 347.73C100.084 346.482 100.324 345.37 100.804 344.394C101.284 343.402 101.972 342.626 102.868 342.066C103.764 341.49 104.82 341.202 106.036 341.202C107.252 341.202 108.308 341.49 109.204 342.066C110.116 342.626 110.812 343.402 111.292 344.394C111.772 345.37 112.012 346.482 112.012 347.73C112.012 348.978 111.772 350.098 111.292 351.09C110.812 352.066 110.116 352.842 109.204 353.418C108.308 353.978 107.252 354.258 106.036 354.258ZM101.956 347.73C101.956 349.186 102.308 350.37 103.012 351.282C103.716 352.178 104.724 352.626 106.036 352.626C107.364 352.626 108.372 352.178 109.06 351.282C109.764 350.37 110.116 349.186 110.116 347.73C110.116 346.274 109.764 345.098 109.06 344.202C108.372 343.29 107.364 342.834 106.036 342.834C104.724 342.834 103.716 343.29 103.012 344.202C102.308 345.098 101.956 346.274 101.956 347.73ZM122.266 352.218C121.29 353.578 119.906 354.258 118.114 354.258C116.722 354.258 115.634 353.938 114.85 353.298C114.066 352.658 113.674 351.762 113.674 350.61C113.674 349.554 114.05 348.722 114.802 348.114C115.57 347.49 116.698 347.034 118.186 346.746L122.194 345.954V344.97C122.194 344.202 121.946 343.65 121.45 343.314C120.97 342.978 120.25 342.81 119.29 342.81C118.362 342.81 117.578 343.002 116.938 343.386C116.314 343.77 115.978 344.418 115.93 345.33H114.13C114.162 343.938 114.666 342.906 115.642 342.234C116.618 341.546 117.834 341.202 119.29 341.202C120.842 341.202 122.002 341.522 122.77 342.162C123.554 342.786 123.946 343.666 123.946 344.802V353.97H122.266V352.218ZM115.546 350.562C115.546 351.202 115.762 351.714 116.194 352.098C116.626 352.466 117.29 352.65 118.186 352.65C119.29 352.65 120.234 352.338 121.018 351.714C121.802 351.074 122.194 350.146 122.194 348.93V347.49L118.426 348.282C117.418 348.506 116.682 348.778 116.218 349.098C115.77 349.402 115.546 349.89 115.546 350.562ZM136.062 353.97V351.906C135.614 352.658 135.022 353.242 134.286 353.658C133.566 354.058 132.726 354.258 131.766 354.258C130.55 354.258 129.51 353.978 128.646 353.418C127.782 352.858 127.126 352.082 126.678 351.09C126.23 350.098 126.006 348.978 126.006 347.73C126.006 346.482 126.23 345.362 126.678 344.37C127.126 343.378 127.782 342.602 128.646 342.042C129.51 341.482 130.55 341.202 131.766 341.202C132.71 341.202 133.534 341.394 134.238 341.778C134.958 342.162 135.542 342.714 135.99 343.434V336.69H137.79V353.97H136.062ZM127.902 347.73C127.902 349.186 128.246 350.37 128.934 351.282C129.638 352.178 130.646 352.626 131.958 352.626C133.286 352.626 134.294 352.178 134.982 351.282C135.686 350.37 136.038 349.186 136.038 347.73C136.038 346.274 135.686 345.098 134.982 344.202C134.294 343.29 133.286 342.834 131.958 342.834C130.646 342.834 129.638 343.29 128.934 344.202C128.246 345.098 127.902 346.274 127.902 347.73ZM140.713 341.49H142.537V353.97H140.713V341.49ZM140.713 336.69H142.513V339.114H140.713V336.69ZM153.92 345.978C153.92 345.002 153.664 344.234 153.152 343.674C152.656 343.114 151.92 342.834 150.944 342.834C150.448 342.834 149.92 342.954 149.36 343.194C148.8 343.434 148.312 343.866 147.896 344.49C147.48 345.098 147.272 345.93 147.272 346.986V353.97H145.472V341.49H147.2V343.41C147.632 342.738 148.192 342.202 148.88 341.802C149.568 341.402 150.368 341.202 151.28 341.202C152.272 341.202 153.096 341.418 153.752 341.85C154.424 342.266 154.92 342.826 155.24 343.53C155.56 344.218 155.72 344.97 155.72 345.786V353.97H153.92V345.978ZM164.163 359.058C162.547 359.058 161.283 358.706 160.371 358.002C159.475 357.298 158.955 356.298 158.811 355.002H160.587C160.731 355.866 161.099 356.498 161.691 356.898C162.299 357.298 163.123 357.498 164.163 357.498C165.331 357.498 166.283 357.202 167.019 356.61C167.755 356.034 168.123 355.05 168.123 353.658V352.026C167.675 352.746 167.091 353.298 166.371 353.682C165.667 354.066 164.843 354.258 163.899 354.258C162.683 354.258 161.643 353.978 160.779 353.418C159.915 352.858 159.259 352.082 158.811 351.09C158.363 350.098 158.139 348.978 158.139 347.73C158.139 346.482 158.363 345.362 158.811 344.37C159.259 343.378 159.915 342.602 160.779 342.042C161.643 341.482 162.683 341.202 163.899 341.202C164.859 341.202 165.699 341.41 166.419 341.826C167.155 342.226 167.747 342.802 168.195 343.554V341.49H169.923V353.658C169.923 355.434 169.395 356.778 168.339 357.69C167.299 358.602 165.907 359.058 164.163 359.058ZM160.035 347.73C160.035 349.186 160.379 350.37 161.067 351.282C161.771 352.178 162.779 352.626 164.091 352.626C165.419 352.626 166.427 352.178 167.115 351.282C167.819 350.37 168.171 349.186 168.171 347.73C168.171 346.274 167.819 345.098 167.115 344.202C166.427 343.29 165.419 342.834 164.091 342.834C162.779 342.834 161.771 343.29 161.067 344.202C160.379 345.098 160.035 346.274 160.035 347.73ZM172.558 351.114H174.694V353.97H172.558V351.114ZM176.988 351.114H179.124V353.97H176.988V351.114ZM181.418 351.114H183.554V353.97H181.418V351.114Z" fill="#FEFCFA"/>
<circle opacity="0.4" cx="135.002" cy="138.024" r="133.994" stroke="#FEFCFA" stroke-width="2"/>
<path fill-rule="evenodd" clip-rule="evenodd" d="M140.543 103.369C140.543 106.43 138.061 108.911 135 108.911C131.939 108.911 129.457 106.43 129.457 103.369C129.457 100.308 131.939 97.826 135 97.826C138.061 97.826 140.543 100.308 140.543 103.369ZM170.448 103.37C169.52 103.37 168.632 103.751 167.992 104.422L145.643 127.866C142.32 131.351 140.467 135.982 140.467 140.797C140.467 145.612 142.32 150.242 145.643 153.727L167.992 177.171C168.632 177.843 169.52 178.223 170.448 178.223C173.422 178.223 174.962 174.675 172.922 172.511C167.254 166.5 158.526 157.253 153.91 152.41C150.809 149.158 147.863 144.979 147.846 140.797C147.863 136.614 150.809 132.436 153.91 129.183C158.526 124.34 167.254 115.093 172.922 109.082C174.962 106.918 173.422 103.37 170.448 103.37ZM102.008 104.422C101.367 103.751 100.48 103.37 99.5515 103.37C96.5773 103.37 95.0376 106.918 97.0779 109.082C102.746 115.093 111.474 124.34 116.09 129.183C119.19 132.436 122.136 136.614 122.153 140.797C122.136 144.979 119.19 149.158 116.09 152.41C111.474 157.253 102.746 166.5 97.0779 172.511C95.0376 174.675 96.5773 178.223 99.5515 178.223C100.48 178.223 101.367 177.843 102.008 177.171L124.357 153.727C127.679 150.242 129.533 145.612 129.533 140.797C129.533 135.982 127.679 131.351 124.357 127.866L102.008 104.422Z" fill="white"/>
<path d="M135.006 273.019C209.561 273.019 270 212.58 270 138.024C270 63.4692 209.561 3.03028 135.006 3.03028" stroke="#FEFCFA" stroke-width="5" stroke-linecap="round"/>
</svg>
