<svg width="25" height="22" viewBox="0 0 25 22" fill="none" xmlns="http://www.w3.org/2000/svg">
<path d="M8.51911 5.37092C8.51911 7.52064 10.2757 9.26333 12.4427 9.26333C14.6096 9.26333 16.3662 7.52064 16.3662 5.37093C16.3662 3.22121 14.6096 1.47852 12.4427 1.47852C10.2757 1.47852 8.51911 3.22121 8.51911 5.37092Z" stroke="#FF6320" stroke-width="1.30326" stroke-linecap="round" stroke-linejoin="round"/>
<path d="M9.74548 12.1973H5.26232C4.36759 12.1973 3.54821 12.6631 3.14043 13.4035L0.994622 17.2999C0.182419 18.7747 1.3344 20.5263 3.11651 20.5263H21.7677C23.5498 20.5263 24.7018 18.7747 23.8896 17.2999L21.7438 13.4035C21.336 12.6631 20.5166 12.1973 19.6219 12.1973H15.1388" stroke="#FF6320" stroke-width="1.30326" stroke-linecap="round" stroke-linejoin="round"/>
<path d="M12.4414 9.26367V15.1307" stroke="#FF6320" stroke-width="1.30326" stroke-linecap="round" stroke-linejoin="round"/>
</svg>
