<svg width="84" height="66" viewBox="0 0 84 66" fill="none" xmlns="http://www.w3.org/2000/svg">
<path fill-rule="evenodd" clip-rule="evenodd" d="M33.3772 12.053C33.3772 7.28965 37.2386 3.42818 42.002 3.42818C46.7653 3.42818 50.6268 7.28965 50.6268 12.053C50.6268 16.7927 46.8036 20.6395 42.0728 20.6776C42.0497 20.6766 42.0266 20.6761 42.0033 20.6761C41.9798 20.6761 41.9565 20.6766 41.9333 20.6776C37.2016 20.6407 33.3772 16.7935 33.3772 12.053ZM53.9879 12.053C53.9879 18.101 49.5083 23.1028 43.6861 23.9215V28.8539L64.8512 28.8539C69.4361 28.8539 73.1529 32.5707 73.1529 37.1556C73.1529 38.085 72.3995 38.8384 71.4701 38.8384C70.5407 38.8384 69.7872 38.085 69.7872 37.1556C69.7872 34.4295 67.5773 32.2196 64.8512 32.2196L43.6861 32.2196V37.1555C43.6861 38.0849 42.9327 38.8384 42.0033 38.8384C41.0739 38.8384 40.3204 38.0849 40.3204 37.1555V32.2196L19.1534 32.2196C16.4273 32.2196 14.2174 34.4295 14.2174 37.1556C14.2174 38.085 13.4639 38.8384 12.5345 38.8384C11.6051 38.8384 10.8517 38.085 10.8517 37.1556C10.8517 32.5707 14.5685 28.8539 19.1534 28.8539L40.3204 28.8539V23.9218C34.4969 23.1043 30.0161 18.1019 30.0161 12.053C30.0161 5.43339 35.3824 0.0671387 42.002 0.0671387C48.6216 0.0671387 53.9879 5.43339 53.9879 12.053ZM33.3772 53.3011C33.3772 48.5377 37.2386 44.6762 42.002 44.6762C46.7653 44.6762 50.6268 48.5377 50.6268 53.3011C50.6268 58.0644 46.7653 61.9259 42.002 61.9259C37.2386 61.9259 33.3772 58.0644 33.3772 53.3011ZM42.002 41.3152C35.3824 41.3152 30.0161 46.6814 30.0161 53.3011C30.0161 59.9207 35.3824 65.2869 42.002 65.2869C48.6216 65.2869 53.9879 59.9207 53.9879 53.3011C53.9879 46.6814 48.6216 41.3152 42.002 41.3152ZM71.4668 44.6762C66.7035 44.6762 62.842 48.5377 62.842 53.3011C62.842 58.0644 66.7035 61.9259 71.4668 61.9259C76.2302 61.9259 80.0917 58.0644 80.0917 53.3011C80.0917 48.5377 76.2302 44.6762 71.4668 44.6762ZM59.481 53.3011C59.481 46.6814 64.8472 41.3152 71.4668 41.3152C78.0864 41.3152 83.4527 46.6814 83.4527 53.3011C83.4527 59.9207 78.0864 65.2869 71.4668 65.2869C64.8472 65.2869 59.481 59.9207 59.481 53.3011ZM3.91036 53.3011C3.91036 48.5377 7.77182 44.6762 12.5352 44.6762C17.2985 44.6762 21.16 48.5377 21.16 53.3011C21.16 58.0644 17.2985 61.9259 12.5352 61.9259C7.77182 61.9259 3.91036 58.0644 3.91036 53.3011ZM12.5352 41.3152C5.91557 41.3152 0.549316 46.6814 0.549316 53.3011C0.549316 59.9207 5.91557 65.2869 12.5352 65.2869C19.1548 65.2869 24.5211 59.9207 24.5211 53.3011C24.5211 46.6814 19.1548 41.3152 12.5352 41.3152Z" fill="url(#paint0_linear_14_1018)"/>
<defs>
<linearGradient id="paint0_linear_14_1018" x1="42.001" y1="0.0671387" x2="42.001" y2="69.4947" gradientUnits="userSpaceOnUse">
<stop offset="0.359375" stop-color="#FF6321"/>
<stop offset="1" stop-color="#DF4705"/>
</linearGradient>
</defs>
</svg>
