<svg width="12" height="21" viewBox="0 0 12 21" fill="none" xmlns="http://www.w3.org/2000/svg">
<path d="M7.50627 10.419L11.5438 6.47967C11.6975 6.32975 11.7842 6.12405 11.7842 5.90932C11.7842 5.69459 11.6975 5.48889 11.5438 5.33898L7.11302 1.01602C6.88359 0.792173 6.54241 0.727798 6.24701 0.851944C5.95161 0.976444 5.75955 1.26582 5.75955 1.58637V8.7149L2.01119 5.05784C1.69613 4.75048 1.19167 4.75659 0.884228 5.07165C0.576875 5.38671 0.583074 5.89126 0.898131 6.19861L5.22383 10.4191L0.898131 14.6396C0.583074 14.947 0.576875 15.4515 0.884228 15.7666C1.19158 16.0816 1.69622 16.0878 2.01119 15.7804L5.75955 12.1233V19.2519C5.75955 19.5724 5.95161 19.8618 6.24701 19.9863C6.3469 20.0284 6.452 20.0488 6.55631 20.0488C6.76042 20.0488 6.96116 19.9703 7.11302 19.8222L11.5438 15.4993C11.6975 15.3493 11.7842 15.1436 11.7842 14.9289C11.7842 14.7142 11.6975 14.5085 11.5438 14.3586L7.50627 10.419ZM7.35352 3.47724L9.84617 5.90923L7.35352 8.34123V3.47724ZM7.35352 17.3607V12.4967L9.84617 14.9287L7.35352 17.3607Z" fill="black"/>
</svg>
