<svg width="81" height="81" viewBox="0 0 81 81" fill="none" xmlns="http://www.w3.org/2000/svg">
<path fill-rule="evenodd" clip-rule="evenodd" d="M44.9478 2.65733C44.9478 1.7292 44.1954 0.976807 43.2673 0.976807C42.3391 0.976807 41.5867 1.7292 41.5867 2.65733V16.4759C41.5867 17.4041 42.3391 18.1564 43.2673 18.1564C44.1954 18.1564 44.9478 17.4041 44.9478 16.4759V2.65733ZM19.8759 11.6504C19.2197 10.9941 18.1556 10.9941 17.4993 11.6504C16.843 12.3067 16.843 13.3707 17.4993 14.027L27.2705 23.7982C27.9268 24.4545 28.9909 24.4545 29.6472 23.7982C30.3034 23.1419 30.3034 22.0779 29.6472 21.4216L19.8759 11.6504ZM69.0434 14.0365C69.6997 13.3802 69.6997 12.3162 69.0434 11.6599C68.3871 11.0036 67.323 11.0036 66.6668 11.6599L56.8955 21.4311C56.2393 22.0874 56.2393 23.1515 56.8955 23.8078C57.5518 24.464 58.6159 24.464 59.2722 23.8078L69.0434 14.0365ZM8.51855 35.7467C7.59043 35.7467 6.83803 36.4991 6.83803 37.4272C6.83803 38.3554 7.59043 39.1078 8.51855 39.1078H22.3372C23.2653 39.1078 24.0177 38.3554 24.0177 37.4272C24.0177 36.4991 23.2653 35.7467 22.3372 35.7467H8.51855ZM78.0384 35.7467C78.0618 35.7467 78.0851 35.7472 78.1082 35.7481H78.8984C79.8265 35.7481 80.5789 36.5005 80.5789 37.4287C80.5789 38.3568 79.8265 39.1092 78.8984 39.1092H64.2202H64.22C63.2919 39.1092 62.5395 38.3568 62.5395 37.4288C62.5394 36.5007 63.2917 35.7482 64.2198 35.7481H64.22L78.0384 35.7467ZM59.2634 51.0379C58.6071 50.3816 57.5431 50.3816 56.8868 51.0379C56.2305 51.6942 56.2305 52.7582 56.8868 53.4145L66.658 63.1857C67.3143 63.842 68.3784 63.842 69.0347 63.1857C69.6909 62.5294 69.6909 61.4654 69.0347 60.8091L59.2634 51.0379ZM44.9478 58.3602C44.9478 57.4321 44.1954 56.6797 43.2673 56.6797C42.3391 56.6797 41.5867 57.4321 41.5867 58.3602V72.1788C41.5867 73.1069 42.3391 73.8593 43.2673 73.8593C44.1954 73.8593 44.9478 73.1069 44.9478 72.1788V58.3602ZM2.09037 76.6197C-0.263198 74.2661 -0.263197 70.4502 2.09037 68.0967L42.1981 27.9889C44.5517 25.6353 48.3676 25.6353 50.7212 27.9889L52.7085 29.9762C55.0621 32.3298 55.0621 36.1457 52.7085 38.4993L12.6007 78.607C10.2471 80.9606 6.43126 80.9606 4.07769 78.607L2.09037 76.6197ZM4.46699 70.4733C3.42598 71.5143 3.42598 73.2021 4.46699 74.2431L6.4543 76.2304C7.49531 77.2714 9.1831 77.2714 10.2241 76.2304L37.6061 48.8484L31.849 43.0913L4.46699 70.4733ZM50.3319 36.1226L39.9828 46.4718L34.2256 40.7146L44.5748 30.3655C45.6158 29.3245 47.3036 29.3245 48.3446 30.3655L50.3319 32.3528C51.3729 33.3938 51.3729 35.0816 50.3319 36.1226Z" fill="url(#paint0_linear_14_1027)"/>
<defs>
<linearGradient id="paint0_linear_14_1027" x1="40.452" y1="0.976807" x2="40.452" y2="85.4946" gradientUnits="userSpaceOnUse">
<stop offset="0.359375" stop-color="#FF6321"/>
<stop offset="1" stop-color="#DF4705"/>
</linearGradient>
</defs>
</svg>
