<svg width="70" height="56" viewBox="0 0 70 56" fill="none" xmlns="http://www.w3.org/2000/svg">
<path fill-rule="evenodd" clip-rule="evenodd" d="M28.1036 10.5013C28.1036 6.67001 31.2094 3.56417 35.0407 3.56417C38.8719 3.56417 41.9778 6.67001 41.9778 10.5013C41.9778 14.2998 38.9248 17.3852 35.1388 17.4377C35.1067 17.4359 35.0743 17.4349 35.0418 17.4349C35.0091 17.4349 34.9766 17.4359 34.9443 17.4377C31.1575 17.3862 28.1036 14.3004 28.1036 10.5013ZM45.3388 10.5013C45.3388 15.6153 41.6111 19.8587 36.7246 20.6624V24.2751L54.1479 24.2751C58.1341 24.2751 61.3656 27.5065 61.3656 31.4928C61.3656 32.4222 60.6121 33.1756 59.6827 33.1756C58.7533 33.1756 57.9999 32.4222 57.9999 31.4928C57.9999 29.3654 56.2753 27.6408 54.1479 27.6407L36.7246 27.6407V31.4911C36.7246 32.4205 35.9712 33.1739 35.0418 33.1739C34.1124 33.1739 33.3589 32.4205 33.3589 31.4911V27.6407L15.934 27.6407C13.8066 27.6407 12.082 29.3653 12.082 31.4928C12.082 32.4222 11.3286 33.1756 10.3992 33.1756C9.46975 33.1756 8.71631 32.4222 8.71631 31.4928C8.71631 27.5065 11.9478 24.275 15.934 24.275L33.3589 24.2751V20.6628C28.4714 19.86 24.7425 15.6161 24.7425 10.5013C24.7425 4.81376 29.3532 0.203125 35.0407 0.203125C40.7282 0.203125 45.3388 4.81376 45.3388 10.5013ZM28.1036 44.9957C28.1036 41.1644 31.2094 38.0586 35.0407 38.0586C38.8719 38.0586 41.9778 41.1644 41.9778 44.9957C41.9778 48.827 38.8719 51.9328 35.0407 51.9328C31.2094 51.9328 28.1036 48.827 28.1036 44.9957ZM35.0407 34.6976C29.3532 34.6976 24.7425 39.3082 24.7425 44.9957C24.7425 50.6832 29.3532 55.2938 35.0407 55.2938C40.7282 55.2938 45.3388 50.6832 45.3388 44.9957C45.3388 39.3082 40.7282 34.6976 35.0407 34.6976ZM59.68 38.0586C55.8488 38.0586 52.7429 41.1644 52.7429 44.9957C52.7429 48.827 55.8488 51.9328 59.68 51.9328C63.5113 51.9328 66.6171 48.827 66.6171 44.9957C66.6171 41.1644 63.5113 38.0586 59.68 38.0586ZM49.3819 44.9957C49.3819 39.3082 53.9925 34.6976 59.68 34.6976C65.3675 34.6976 69.9782 39.3082 69.9782 44.9957C69.9782 50.6832 65.3675 55.2938 59.68 55.2938C53.9925 55.2938 49.3819 50.6832 49.3819 44.9957ZM3.4626 44.9957C3.4626 41.1644 6.56845 38.0586 10.3997 38.0586C14.231 38.0586 17.3368 41.1644 17.3368 44.9957C17.3368 48.827 14.231 51.9328 10.3997 51.9328C6.56845 51.9328 3.4626 48.827 3.4626 44.9957ZM10.3997 34.6976C4.7122 34.6976 0.101562 39.3082 0.101562 44.9957C0.101562 50.6832 4.7122 55.2938 10.3997 55.2938C16.0872 55.2938 20.6979 50.6832 20.6979 44.9957C20.6979 39.3082 16.0872 34.6976 10.3997 34.6976Z" fill="#2D2D2D"/>
</svg>
