<svg width="67" height="46" viewBox="0 0 67 46" fill="none" xmlns="http://www.w3.org/2000/svg">
<path fill-rule="evenodd" clip-rule="evenodd" d="M57.705 0.781346C57.0832 0.092243 56.0206 0.0376301 55.3315 0.659365C54.6424 1.2811 54.5878 2.34374 55.2095 3.03285C59.9204 8.25424 62.7864 15.1665 62.7864 22.7521C62.7864 30.3381 59.9201 37.2507 55.2087 42.4722C54.5869 43.1613 54.6415 44.2239 55.3306 44.8457C56.0196 45.4675 57.0823 45.4129 57.704 44.7238C62.951 38.9088 66.1474 31.2018 66.1474 22.7521C66.1474 14.3029 62.9514 6.59621 57.705 0.781346ZM11.4675 3.03358C12.0893 2.34446 12.0346 1.28182 11.3455 0.660105C10.6564 0.0383939 9.59372 0.0930427 8.97201 0.782167C3.72606 6.59694 0.530273 14.3033 0.530273 22.7521C0.530273 31.2014 3.72643 38.9081 8.97292 44.723C9.59466 45.4121 10.6573 45.4667 11.3464 44.845C12.0355 44.2232 12.0901 43.1606 11.4684 42.4715C6.75734 37.2501 3.89131 30.3377 3.89131 22.7521C3.89131 15.1668 6.75701 8.25489 11.4675 3.03358ZM18.4768 9.98642C19.0819 9.28271 19.002 8.22167 18.2983 7.61651C17.5946 7.01135 16.5336 7.09124 15.9284 7.79495C12.4745 11.8113 10.3853 17.0403 10.3853 22.7529C10.3853 28.4656 12.4745 33.6946 15.9285 37.711C16.5336 38.4147 17.5947 38.4946 18.2984 37.8894C19.0021 37.2843 19.082 36.2232 18.4768 35.5195C15.5273 32.0897 13.7463 27.6315 13.7463 22.7529C13.7463 17.8745 15.5273 13.4162 18.4768 9.98642ZM50.7469 7.79626C50.1418 7.09251 49.0808 7.01254 48.377 7.61764C47.6733 8.22274 47.5933 9.28378 48.1984 9.98753C51.1473 13.4172 52.9279 17.875 52.9279 22.7529C52.9279 27.6309 51.1473 32.0888 48.1984 35.5184C47.5933 36.2221 47.6733 37.2832 48.377 37.8883C49.0808 38.4934 50.1418 38.4134 50.7469 37.7097C54.2002 33.6935 56.289 28.465 56.289 22.7529C56.289 17.0409 54.2002 11.8125 50.7469 7.79626ZM25.6044 22.7518C25.6044 18.4794 29.0679 15.0159 33.3403 15.0159C37.6127 15.0159 41.0762 18.4794 41.0762 22.7518C41.0762 27.0242 37.6127 30.4877 33.3403 30.4877C29.0679 30.4877 25.6044 27.0242 25.6044 22.7518ZM33.3403 11.6548C27.2116 11.6548 22.2433 16.6231 22.2433 22.7518C22.2433 28.8805 27.2116 33.8487 33.3403 33.8487C39.469 33.8487 44.4372 28.8805 44.4372 22.7518C44.4372 16.6231 39.469 11.6548 33.3403 11.6548Z" fill="#2D2D2D"/>
</svg>
