<svg width="59" height="58" viewBox="0 0 59 58" fill="none" xmlns="http://www.w3.org/2000/svg">
<path d="M25.8859 36.3325C25.8859 41.4522 30.0694 45.6025 35.2301 45.6025C40.3907 45.6025 44.5742 41.4522 44.5742 36.3325C44.5742 31.2128 40.3907 27.0625 35.2301 27.0625C30.0694 27.0625 25.8859 31.2128 25.8859 36.3325Z" stroke="#2D2D2D" stroke-width="2.32321" stroke-linecap="round" stroke-linejoin="round"/>
<path d="M46.8383 7.43125C46.8383 10.2065 49.1061 12.4563 51.9035 12.4563C54.701 12.4563 56.9687 10.2065 56.9687 7.43125C56.9687 4.65602 54.701 2.40625 51.9035 2.40625C49.1061 2.40625 46.8383 4.65602 46.8383 7.43125Z" stroke="#2D2D2D" stroke-width="2.32321" stroke-linecap="round" stroke-linejoin="round"/>
<path d="M3.88132 18.2125C3.88132 20.9877 6.14909 23.2375 8.94652 23.2375C11.744 23.2375 14.0117 20.9877 14.0117 18.2125C14.0117 15.4373 11.744 13.1875 8.94652 13.1875C6.14909 13.1875 3.88132 15.4373 3.88132 18.2125Z" stroke="#2D2D2D" stroke-width="2.32321" stroke-linecap="round" stroke-linejoin="round"/>
<path d="M2.42624 50.2125C2.42624 52.9877 4.69401 55.2375 7.49144 55.2375C10.2889 55.2375 12.5566 52.9877 12.5566 50.2125C12.5566 47.4373 10.2889 45.1875 7.49144 45.1875C4.69401 45.1875 2.42624 47.4373 2.42624 50.2125Z" stroke="#2D2D2D" stroke-width="2.32321" stroke-linecap="round" stroke-linejoin="round"/>
<path d="M49.959 12.4453L40.8182 28.152" stroke="#2D2D2D" stroke-width="2.32321" stroke-linecap="round" stroke-linejoin="round"/>
<path d="M14.0117 21.2266L28.3887 29.5392" stroke="#2D2D2D" stroke-width="2.32321" stroke-linecap="round" stroke-linejoin="round"/>
<path d="M12.5586 47.2812L26.5073 39.9991" stroke="#2D2D2D" stroke-width="2.32321" stroke-linecap="round" stroke-linejoin="round"/>
</svg>
