<svg width="487" height="485" viewBox="0 0 487 485" fill="none" xmlns="http://www.w3.org/2000/svg">
<g clip-path="url(#clip0_14_703)">
<g opacity="0.14">
<path d="M32.1909 911.581C24.6601 919.481 14.2223 923.951 3.30818 923.951C-31.6678 923.951 -49.7755 882.229 -25.781 856.782C40.87 786.094 143.512 677.347 197.799 620.394C234.257 582.146 268.906 533.007 269.103 483.82H355.884C355.884 540.444 334.088 594.895 295.017 635.88L32.1909 911.581Z" fill="url(#paint0_linear_14_703)"/>
<path d="M32.1909 56.0595C24.6601 48.1598 14.2223 43.6895 3.3082 43.6895C-31.6678 43.6895 -49.7755 85.4114 -25.781 110.859C40.87 181.547 143.512 290.294 197.799 347.247C234.257 385.495 268.906 434.633 269.103 483.82H355.884C355.884 427.197 334.088 372.746 295.017 331.761L32.1909 56.0595Z" fill="url(#paint1_linear_14_703)"/>
<path d="M-415.509 911.469C-423.104 919.436 -433.631 923.945 -444.638 923.945C-479.913 923.945 -498.175 881.867 -473.976 856.202C-406.756 784.91 -303.237 675.234 -248.486 617.795C-211.717 579.22 -176.771 529.662 -176.573 480.055H-89.0511C-89.0511 537.162 -111.033 592.078 -150.437 633.413L-415.509 911.469Z" fill="url(#paint2_linear_14_703)"/>
<path d="M-415.509 52.3332C-423.104 44.366 -433.631 39.8575 -444.638 39.8575C-479.913 39.8575 -498.175 81.9358 -473.976 107.601C-406.756 178.892 -303.237 288.568 -248.486 346.008C-211.717 384.582 -176.772 434.14 -176.573 483.748H-89.0512C-89.0512 426.64 -111.033 371.724 -150.437 330.39L-415.509 52.3332Z" fill="url(#paint3_linear_14_703)"/>
<path d="M33.2297 911.469C25.6346 919.436 15.1076 923.945 4.10031 923.945C-31.1745 923.945 -49.4369 881.867 -25.2374 856.202C41.983 784.91 145.502 675.234 200.253 617.795C237.022 579.22 271.967 529.662 272.165 480.055H359.687C359.687 537.162 337.706 592.078 298.301 633.413L33.2297 911.469Z" fill="url(#paint4_linear_14_703)"/>
<path d="M33.2296 52.3332C25.6345 44.366 15.1076 39.8575 4.10028 39.8575C-31.1745 39.8575 -49.4368 81.9358 -25.2374 107.601C41.983 178.892 145.502 288.568 200.253 346.008C237.022 384.582 271.967 434.14 272.165 483.748H359.687C359.687 426.64 337.705 371.724 298.301 330.39L33.2296 52.3332Z" fill="url(#paint5_linear_14_703)"/>
<path d="M487.453 65.4357C487.453 101.435 458.27 130.617 422.271 130.617C386.272 130.617 357.089 101.435 357.089 65.4357C357.089 29.4368 386.272 0.253906 422.271 0.253906C458.27 0.253906 487.453 29.4368 487.453 65.4357Z" fill="url(#paint6_linear_14_703)"/>
</g>
</g>
<defs>
<linearGradient id="paint0_linear_14_703" x1="160.368" y1="502.531" x2="131.136" y2="923.794" gradientUnits="userSpaceOnUse">
<stop stop-color="white"/>
<stop offset="1" stop-color="white" stop-opacity="0"/>
</linearGradient>
<linearGradient id="paint1_linear_14_703" x1="160.368" y1="465.11" x2="131.136" y2="43.8466" gradientUnits="userSpaceOnUse">
<stop stop-color="white"/>
<stop offset="1" stop-color="white" stop-opacity="0"/>
</linearGradient>
<linearGradient id="paint2_linear_14_703" x1="60.1628" y1="39.5211" x2="1.22705" y2="923.945" gradientUnits="userSpaceOnUse">
<stop stop-color="white"/>
<stop offset="1" stop-color="white" stop-opacity="0"/>
</linearGradient>
<linearGradient id="paint3_linear_14_703" x1="60.1628" y1="39.5211" x2="1.22705" y2="923.945" gradientUnits="userSpaceOnUse">
<stop stop-color="white"/>
<stop offset="1" stop-color="white" stop-opacity="0"/>
</linearGradient>
<linearGradient id="paint4_linear_14_703" x1="60.1628" y1="39.5211" x2="1.22705" y2="923.945" gradientUnits="userSpaceOnUse">
<stop stop-color="white"/>
<stop offset="1" stop-color="white" stop-opacity="0"/>
</linearGradient>
<linearGradient id="paint5_linear_14_703" x1="60.1628" y1="39.5211" x2="1.22705" y2="923.945" gradientUnits="userSpaceOnUse">
<stop stop-color="white"/>
<stop offset="1" stop-color="white" stop-opacity="0"/>
</linearGradient>
<linearGradient id="paint6_linear_14_703" x1="60.1628" y1="39.5211" x2="1.22705" y2="923.945" gradientUnits="userSpaceOnUse">
<stop stop-color="white"/>
<stop offset="1" stop-color="white" stop-opacity="0"/>
</linearGradient>
<clipPath id="clip0_14_703">
<rect width="972" height="484" fill="white" transform="translate(-485 0.253906)"/>
</clipPath>
</defs>
</svg>
