<svg width="860" height="783" viewBox="0 0 860 783" fill="none" xmlns="http://www.w3.org/2000/svg">
<g clip-path="url(#clip0_14_695)">
<g opacity="0.23">
<path d="M517.191 769.581C509.66 777.481 499.222 781.951 488.308 781.951C453.332 781.951 435.224 740.229 459.219 714.782C525.87 644.094 628.512 535.347 682.799 478.394C719.257 440.146 753.906 391.007 754.103 341.82H840.884C840.884 398.444 819.088 452.895 780.017 493.88L517.191 769.581Z" fill="url(#paint0_linear_14_695)"/>
<path d="M517.191 -85.9405C509.66 -93.8402 499.222 -98.3105 488.308 -98.3105C453.332 -98.3105 435.224 -56.5886 459.219 -31.1409C525.87 39.5468 628.512 148.294 682.799 205.247C719.257 243.495 753.906 292.633 754.103 341.82H840.884C840.884 285.197 819.088 230.746 780.017 189.761L517.191 -85.9405Z" fill="url(#paint1_linear_14_695)"/>
<path d="M69.4912 769.469C61.8961 777.436 51.3692 781.945 40.3618 781.945C5.08704 781.945 -13.1753 739.867 11.0241 714.202C78.2445 642.91 181.763 533.234 236.514 475.795C273.283 437.22 308.229 387.662 308.427 338.055H395.949C395.949 395.162 373.967 450.078 334.563 491.413L69.4912 769.469Z" fill="url(#paint2_linear_14_695)"/>
<path d="M69.4912 -89.6668C61.8961 -97.634 51.3691 -102.142 40.3618 -102.142C5.08701 -102.142 -13.1753 -60.0642 11.0241 -34.3991C78.2445 36.8923 181.763 146.568 236.514 204.008C273.283 242.582 308.228 292.14 308.427 341.748H395.949C395.949 284.64 373.967 229.724 334.563 188.39L69.4912 -89.6668Z" fill="url(#paint3_linear_14_695)"/>
<path d="M518.23 769.469C510.635 777.436 500.108 781.945 489.1 781.945C453.826 781.945 435.563 739.867 459.763 714.202C526.983 642.91 630.502 533.234 685.253 475.795C722.022 437.22 756.967 387.662 757.165 338.055H844.687C844.687 395.162 822.706 450.078 783.301 491.413L518.23 769.469Z" fill="url(#paint4_linear_14_695)"/>
<path d="M518.23 -89.6668C510.635 -97.634 500.108 -102.142 489.1 -102.142C453.826 -102.142 435.563 -60.0642 459.763 -34.3991C526.983 36.8923 630.502 146.568 685.253 204.008C722.022 242.582 756.967 292.14 757.165 341.748H844.687C844.687 284.64 822.705 229.724 783.301 188.39L518.23 -89.6668Z" fill="url(#paint5_linear_14_695)"/>
<path d="M972.453 -76.5643C972.453 -40.5654 943.27 -11.3825 907.271 -11.3825C871.272 -11.3825 842.089 -40.5654 842.089 -76.5643C842.089 -112.563 871.272 -141.746 907.271 -141.746C943.27 -141.746 972.453 -112.563 972.453 -76.5643Z" fill="url(#paint6_linear_14_695)"/>
</g>
</g>
<defs>
<linearGradient id="paint0_linear_14_695" x1="645.368" y1="360.531" x2="616.136" y2="781.794" gradientUnits="userSpaceOnUse">
<stop stop-color="white"/>
<stop offset="1" stop-color="white" stop-opacity="0"/>
</linearGradient>
<linearGradient id="paint1_linear_14_695" x1="645.368" y1="323.11" x2="616.136" y2="-98.1534" gradientUnits="userSpaceOnUse">
<stop stop-color="white"/>
<stop offset="1" stop-color="white" stop-opacity="0"/>
</linearGradient>
<linearGradient id="paint2_linear_14_695" x1="545.163" y1="-102.479" x2="486.227" y2="781.945" gradientUnits="userSpaceOnUse">
<stop stop-color="white"/>
<stop offset="1" stop-color="white" stop-opacity="0"/>
</linearGradient>
<linearGradient id="paint3_linear_14_695" x1="545.163" y1="-102.479" x2="486.227" y2="781.945" gradientUnits="userSpaceOnUse">
<stop stop-color="white"/>
<stop offset="1" stop-color="white" stop-opacity="0"/>
</linearGradient>
<linearGradient id="paint4_linear_14_695" x1="545.163" y1="-102.479" x2="486.227" y2="781.945" gradientUnits="userSpaceOnUse">
<stop stop-color="white"/>
<stop offset="1" stop-color="white" stop-opacity="0"/>
</linearGradient>
<linearGradient id="paint5_linear_14_695" x1="545.163" y1="-102.479" x2="486.227" y2="781.945" gradientUnits="userSpaceOnUse">
<stop stop-color="white"/>
<stop offset="1" stop-color="white" stop-opacity="0"/>
</linearGradient>
<linearGradient id="paint6_linear_14_695" x1="545.163" y1="-102.479" x2="486.227" y2="781.945" gradientUnits="userSpaceOnUse">
<stop stop-color="white"/>
<stop offset="1" stop-color="white" stop-opacity="0"/>
</linearGradient>
<clipPath id="clip0_14_695">
<rect width="972" height="782" fill="white" transform="translate(0 0.253906)"/>
</clipPath>
</defs>
</svg>
