<svg width="83" height="57" viewBox="0 0 83 57" fill="none" xmlns="http://www.w3.org/2000/svg">
<path fill-rule="evenodd" clip-rule="evenodd" d="M72.3351 0.917577C71.7133 0.228474 70.6507 0.173861 69.9616 0.795595C69.2725 1.41733 69.2179 2.47997 69.8396 3.16908C75.933 9.9227 79.6406 18.8646 79.6406 28.6764C79.6406 38.4887 75.9325 47.4311 69.8385 54.1848C69.2168 54.8739 69.2713 55.9366 69.9604 56.5583C70.6495 57.1801 71.7121 57.1255 72.3339 56.4364C78.9634 49.0892 83.0016 39.3524 83.0016 28.6764C83.0016 18.001 78.9639 8.26468 72.3351 0.917577ZM13.2588 3.17003C13.8805 2.48091 13.8259 1.41826 13.1367 0.796552C12.4476 0.174841 11.385 0.229489 10.7633 0.918613C4.13499 8.26559 0.0976562 18.0015 0.0976562 28.6764C0.0976562 39.3519 4.13546 49.0883 10.7644 56.4354C11.3862 57.1245 12.4488 57.1791 13.1379 56.5574C13.827 55.9356 13.8816 54.873 13.2599 54.1839C7.16637 47.4302 3.4587 38.4883 3.4587 28.6764C3.4587 18.865 7.16594 9.92354 13.2588 3.17003ZM22.2069 12.0618C22.8121 11.3581 22.7322 10.297 22.0285 9.69189C21.3248 9.08673 20.2638 9.16662 19.6586 9.87033C15.3157 14.9205 12.6891 21.4944 12.6891 28.6775C12.6891 35.8606 15.3157 42.4345 19.6587 47.4847C20.2638 48.1884 21.3249 48.2683 22.0286 47.6631C22.7323 47.058 22.8121 45.9969 22.207 45.2932C18.3685 40.8297 16.0501 35.0264 16.0501 28.6775C16.0501 22.3286 18.3685 16.5254 22.2069 12.0618ZM63.4376 9.87197C62.8325 9.16822 61.7715 9.08825 61.0677 9.69335C60.364 10.2985 60.284 11.3595 60.8891 12.0632C64.7268 16.5266 67.0447 22.3292 67.0447 28.6775C67.0447 35.0257 64.7268 40.8284 60.8891 45.2918C60.284 45.9955 60.3639 47.0566 61.0677 47.6617C61.7714 48.2668 62.8325 48.1868 63.4376 47.4831C67.7797 42.4331 70.4057 35.8598 70.4057 28.6775C70.4057 21.4952 67.7797 14.9219 63.4376 9.87197ZM31.2009 28.6779C31.2009 22.9615 35.835 18.3274 41.5515 18.3274C47.2679 18.3274 51.902 22.9615 51.902 28.6779C51.902 34.3944 47.2679 39.0285 41.5515 39.0285C35.835 39.0285 31.2009 34.3944 31.2009 28.6779ZM41.5515 14.9663C33.9787 14.9663 27.8398 21.1052 27.8398 28.6779C27.8398 36.2507 33.9787 42.3896 41.5515 42.3896C49.1242 42.3896 55.2631 36.2507 55.2631 28.6779C55.2631 21.1052 49.1242 14.9663 41.5515 14.9663Z" fill="url(#paint0_linear_14_1012)"/>
<defs>
<linearGradient id="paint0_linear_14_1012" x1="41.5496" y1="0.362793" x2="41.5496" y2="60.6447" gradientUnits="userSpaceOnUse">
<stop offset="0.359375" stop-color="#FF6321"/>
<stop offset="1" stop-color="#DF4705"/>
</linearGradient>
</defs>
</svg>
