<svg width="64" height="80" viewBox="0 0 64 80" fill="none" xmlns="http://www.w3.org/2000/svg">
<path fill-rule="evenodd" clip-rule="evenodd" d="M14.573 18.136C14.573 8.51183 22.3749 0.7099 31.9991 0.7099C41.6233 0.7099 49.4252 8.51183 49.4252 18.136V27.9342C49.4252 28.4865 49.8729 28.9342 50.4252 28.9342H50.4671C57.4701 28.9342 63.1471 34.6113 63.1471 41.6142V66.8408C63.1471 73.8438 57.4701 79.5208 50.4671 79.5208H13.5316C6.52859 79.5208 0.851562 73.8437 0.851562 66.8408V41.6142C0.851562 34.6112 6.52859 28.9342 13.5316 28.9342H13.573C14.1253 28.9342 14.573 28.4865 14.573 27.9342V18.136ZM31.9991 4.0699C24.2306 4.0699 17.933 10.3675 17.933 18.136V27.288C17.933 27.8403 18.3807 28.288 18.933 28.288H45.0652C45.6175 28.288 46.0652 27.8403 46.0652 27.288V18.136C46.0652 10.3675 39.7676 4.0699 31.9991 4.0699ZM59.7871 66.8408V41.6142C59.7871 36.4669 55.6144 32.2942 50.4671 32.2942L13.5316 32.2942C8.38427 32.2942 4.21156 36.4669 4.21156 41.6142V66.8408C4.21156 71.9881 8.38427 76.1608 13.5316 76.1608H50.4671C55.6144 76.1608 59.7871 71.9881 59.7871 66.8408ZM25.6425 50.6402C25.6425 47.1292 28.4888 44.283 31.9998 44.283C35.5107 44.283 38.357 47.1292 38.357 50.6402C38.357 53.0407 37.0271 55.133 35.056 56.2163C34.5187 56.5116 34.1849 57.076 34.1849 57.6891V63.9805C34.1849 64.5328 33.7372 64.9805 33.1849 64.9805H30.8146C30.2623 64.9805 29.8146 64.5328 29.8146 63.9805V57.6891C29.8146 57.076 29.4808 56.5116 28.9435 56.2163C26.9724 55.133 25.6425 53.0407 25.6425 50.6402ZM31.9998 40.9219C26.6325 40.9219 22.2815 45.273 22.2815 50.6402C22.2815 53.7601 23.7521 56.5348 26.0331 58.3115C26.2913 58.5126 26.4536 58.8163 26.4536 59.1436V66.6611C26.4536 67.5892 27.206 68.3416 28.1341 68.3416H35.8654C36.7935 68.3416 37.5459 67.5892 37.5459 66.6611V59.1436C37.5459 58.8163 37.7082 58.5126 37.9664 58.3115C40.2474 56.5348 41.718 53.7601 41.718 50.6402C41.718 45.273 37.367 40.9219 31.9998 40.9219Z" fill="url(#paint0_linear_1519_11573)"/>
<defs>
<linearGradient id="paint0_linear_1519_11573" x1="31.9993" y1="0.7099" x2="31.9993" y2="84.6054" gradientUnits="userSpaceOnUse">
<stop offset="0.359375" stop-color="#FF6321"/>
<stop offset="1" stop-color="#DF4705"/>
</linearGradient>
</defs>
</svg>
