<svg width="22" height="17" viewBox="0 0 22 17" fill="none" xmlns="http://www.w3.org/2000/svg">
<path d="M14.6083 12.8912C14.4256 12.8904 14.2495 12.8225 14.1135 12.7004C13.272 11.959 12.1889 11.55 11.0673 11.55C9.94578 11.55 8.86271 11.959 8.02116 12.7004C7.94942 12.7733 7.86344 12.8306 7.7686 12.8688C7.67375 12.907 7.57206 12.9252 7.46985 12.9224C7.36764 12.9196 7.2671 12.8958 7.17449 12.8525C7.08188 12.8092 6.99917 12.7472 6.93153 12.6706C6.86388 12.5939 6.81273 12.5041 6.78127 12.4068C6.74981 12.3095 6.7387 12.2068 6.74865 12.1051C6.7586 12.0033 6.78938 11.9047 6.83909 11.8153C6.88879 11.726 6.95635 11.6478 7.03756 11.5857C8.14992 10.6029 9.58305 10.0605 11.0673 10.0605C12.5516 10.0605 13.9848 10.6029 15.0971 11.5857C15.2109 11.6854 15.2917 11.8175 15.3286 11.9643C15.3655 12.1111 15.3569 12.2656 15.3038 12.4073C15.2507 12.5491 15.1557 12.6713 15.0315 12.7577C14.9073 12.8442 14.7596 12.8907 14.6083 12.8912Z" fill="black"/>
<path d="M17.6256 9.47743C17.5226 9.47808 17.4207 9.45721 17.3262 9.41615C17.2318 9.37508 17.1469 9.31474 17.0772 9.23898C16.3128 8.4072 15.384 7.74317 14.3497 7.28894C13.3153 6.83471 12.198 6.60017 11.0683 6.60017C9.93861 6.60017 8.82123 6.83471 7.7869 7.28894C6.75256 7.74317 5.82379 8.4072 5.05939 9.23898C4.9238 9.37622 4.74026 9.45552 4.54739 9.46019C4.35453 9.46487 4.16736 9.39456 4.02527 9.26406C3.88319 9.13355 3.79725 8.95303 3.78555 8.76046C3.77385 8.56789 3.83729 8.37829 3.96253 8.23154C4.86651 7.248 5.96483 6.46284 7.18797 5.92574C8.41111 5.38865 9.73243 5.11133 11.0683 5.11133C12.4042 5.11133 13.7255 5.38865 14.9486 5.92574C16.1717 6.46284 17.2701 7.248 18.1741 8.23154C18.307 8.37652 18.3772 8.56818 18.3694 8.76472C18.3616 8.96127 18.2763 9.14674 18.1323 9.28071C17.9939 9.40724 17.8132 9.47741 17.6256 9.47743Z" fill="black"/>
<path d="M1.52887 6.1168C1.34548 6.11956 1.16815 6.05119 1.03409 5.92604C0.960833 5.86135 0.901134 5.78278 0.858442 5.69487C0.81575 5.60696 0.790914 5.51146 0.78537 5.41389C0.779826 5.31632 0.793685 5.21862 0.826145 5.12644C0.858604 5.03426 0.90902 4.94943 0.974475 4.87687C2.24483 3.45741 3.80033 2.3219 5.53937 1.54448C7.27842 0.767064 9.1619 0.365234 11.0668 0.365234C12.9717 0.365234 14.8552 0.767064 16.5942 1.54448C18.3333 2.3219 19.8888 3.45741 21.1591 4.87687C21.2875 5.02444 21.3528 5.21659 21.3408 5.41185C21.3287 5.60711 21.2404 5.7898 21.0948 5.9205C20.9493 6.05119 20.7582 6.1194 20.5627 6.1104C20.3673 6.1014 20.1833 6.01591 20.0503 5.87239C18.9197 4.60855 17.5352 3.5975 15.9872 2.90528C14.4392 2.21306 12.7625 1.85526 11.0668 1.85526C9.37107 1.85526 7.69442 2.21306 6.1464 2.90528C4.59839 3.5975 3.21385 4.60855 2.08326 5.87239C2.01266 5.9491 1.92698 6.01041 1.83158 6.05247C1.73618 6.09453 1.63312 6.11643 1.52887 6.1168Z" fill="black"/>
<path d="M11.0684 16.4727C11.266 16.4727 11.4556 16.3942 11.5953 16.2545C11.735 16.1147 11.8135 15.9252 11.8135 15.7276C11.8135 15.5299 11.735 15.3404 11.5953 15.2007C11.4556 15.0609 11.266 14.9824 11.0684 14.9824C10.8708 14.9824 10.6812 15.0609 10.5415 15.2007C10.4017 15.3404 10.3232 15.5299 10.3232 15.7276C10.3232 15.9252 10.4017 16.1147 10.5415 16.2545C10.6812 16.3942 10.8708 16.4727 11.0684 16.4727Z" fill="black"/>
</svg>
