<svg width="1070" height="732" viewBox="0 0 1070 732" fill="none" xmlns="http://www.w3.org/2000/svg">
<path d="M987.257 165.038C1032.72 165.038 1069.57 128.186 1069.57 82.7279C1069.57 37.2694 1032.72 0.417969 987.257 0.417969C941.798 0.417969 904.947 37.2694 904.947 82.7279C904.947 128.186 941.798 165.038 987.257 165.038Z" fill="url(#paint0_linear_1111_2372)"/>
<path d="M-70.6702 66.1824C-80.2611 56.1217 -93.5543 50.4284 -107.454 50.4284C-151.998 50.4284 -175.059 103.564 -144.501 135.973C-59.6168 225.998 71.1041 364.494 140.242 437.027C186.098 485.135 229.708 546.771 231.022 608.634C229.704 670.495 186.096 732.127 140.242 780.233C71.1042 852.766 -59.6167 991.262 -144.501 1081.29C-175.059 1113.7 -151.998 1166.83 -107.454 1166.83C-93.5542 1166.83 -80.261 1161.14 -70.6701 1151.08L264.056 799.955C312.741 748.885 340.364 681.396 341.534 610.962H341.572C341.572 610.188 341.569 609.415 341.563 608.643C341.569 607.862 341.572 607.08 341.572 606.298H341.533C340.364 535.864 312.741 468.375 264.055 417.305L-70.6702 66.1824Z" fill="url(#paint1_linear_1111_2372)"/>
<path d="M459.202 1166.83C473.101 1166.83 486.395 1161.14 495.985 1151.08L830.711 799.955C879.396 748.885 907.02 681.396 908.189 610.962H908.228C908.228 610.187 908.224 609.412 908.218 608.637C908.222 608.204 908.224 607.771 908.226 607.338C908.227 606.991 908.228 606.645 908.228 606.298H908.189C907.02 535.864 879.396 468.375 830.711 417.305L495.985 66.1824C486.394 56.1217 473.101 50.4284 459.202 50.4284C430.313 50.4284 410.461 72.7767 408.409 97.3263C405.898 111.802 409.616 127.517 421.468 140.087C505.633 229.35 635.247 366.673 703.8 438.592C749.838 486.891 793.592 548.941 793.84 611.053C793.598 671.573 752.054 732.033 707.337 779.772C707.191 779.925 707.044 780.079 706.898 780.233C637.76 852.766 507.039 991.262 422.155 1081.29C422.023 1081.43 421.892 1081.57 421.762 1081.71C421.664 1081.81 421.566 1081.92 421.468 1082.02C391.169 1114.15 414.034 1166.84 458.201 1166.84C458.502 1166.84 458.801 1166.84 459.101 1166.83C459.135 1166.83 459.168 1166.83 459.202 1166.83Z" fill="url(#paint2_linear_1111_2372)"/>
<defs>
<linearGradient id="paint0_linear_1111_2372" x1="426.623" y1="1094.16" x2="426.623" y2="364.789" gradientUnits="userSpaceOnUse">
<stop stop-color="#FD611F"/>
<stop offset="1" stop-color="white" stop-opacity="0"/>
</linearGradient>
<linearGradient id="paint1_linear_1111_2372" x1="426.623" y1="1094.16" x2="426.623" y2="364.789" gradientUnits="userSpaceOnUse">
<stop stop-color="#FD611F"/>
<stop offset="1" stop-color="white" stop-opacity="0"/>
</linearGradient>
<linearGradient id="paint2_linear_1111_2372" x1="426.623" y1="1094.16" x2="426.623" y2="364.789" gradientUnits="userSpaceOnUse">
<stop stop-color="#FD611F"/>
<stop offset="1" stop-color="white" stop-opacity="0"/>
</linearGradient>
</defs>
</svg>
