<svg width="1070" height="731" viewBox="0 0 1070 731" fill="none" xmlns="http://www.w3.org/2000/svg">
<path d="M1146.11 -271.197C1191.57 -271.197 1228.42 -308.048 1228.42 -353.507C1228.42 -398.965 1191.57 -435.816 1146.11 -435.816C1100.65 -435.816 1063.8 -398.965 1063.8 -353.507C1063.8 -308.048 1100.65 -271.197 1146.11 -271.197Z" fill="url(#paint0_linear_1111_2373)"/>
<path d="M88.1826 -370.052C78.5917 -380.113 65.2985 -385.806 51.3988 -385.806C6.85466 -385.806 -16.2066 -332.671 14.3519 -300.261C99.236 -210.236 229.957 -71.7405 299.095 0.792755C344.951 48.9007 388.561 110.536 389.875 172.4C388.557 234.26 344.949 295.893 299.095 343.998C229.957 416.532 99.2361 555.028 14.3519 645.052C-16.2066 677.462 6.85469 730.597 51.3988 730.597C65.2986 730.597 78.5917 724.904 88.1826 714.843L422.908 363.72C471.594 312.65 499.217 245.162 500.386 174.727H500.425C500.425 173.955 500.422 173.182 500.415 172.41C500.422 171.628 500.425 170.846 500.425 170.064H500.386C499.217 99.6293 471.593 32.1408 422.908 -18.9293L88.1826 -370.052Z" fill="url(#paint1_linear_1111_2373)"/>
<path d="M618.054 730.597C631.954 730.597 645.247 724.904 654.838 714.843L989.564 363.72C1038.25 312.65 1065.87 245.162 1067.04 174.727H1067.08C1067.08 173.955 1067.08 173.182 1067.07 172.41C1067.08 171.629 1067.08 170.846 1067.08 170.064H1067.04C1065.87 99.6293 1038.25 32.1408 989.564 -18.9293L654.838 -370.052C645.247 -380.113 631.954 -385.806 618.054 -385.806C589.166 -385.806 569.313 -363.458 567.262 -338.908C564.751 -324.432 568.469 -308.717 580.321 -296.147C664.486 -206.884 794.1 -69.5614 862.653 2.35757C908.691 50.6562 952.445 112.707 952.693 174.819C952.451 235.338 910.906 295.799 866.19 343.537C866.044 343.691 865.897 343.845 865.751 343.998C796.612 416.532 665.892 555.028 581.007 645.052C580.875 645.193 580.743 645.334 580.612 645.476C580.515 645.579 580.418 645.682 580.321 645.785C550.021 677.92 572.887 730.605 617.054 730.605C617.354 730.605 617.654 730.602 617.954 730.597C617.987 730.597 618.021 730.597 618.054 730.597Z" fill="url(#paint2_linear_1111_2373)"/>
<defs>
<linearGradient id="paint0_linear_1111_2373" x1="585.476" y1="657.929" x2="585.476" y2="-296.802" gradientUnits="userSpaceOnUse">
<stop offset="0.220764" stop-color="white" stop-opacity="0"/>
<stop offset="1" stop-color="#FD611F"/>
</linearGradient>
<linearGradient id="paint1_linear_1111_2373" x1="585.476" y1="657.929" x2="585.476" y2="-296.802" gradientUnits="userSpaceOnUse">
<stop offset="0.220764" stop-color="white" stop-opacity="0"/>
<stop offset="1" stop-color="#FD611F"/>
</linearGradient>
<linearGradient id="paint2_linear_1111_2373" x1="585.476" y1="657.929" x2="585.476" y2="-296.802" gradientUnits="userSpaceOnUse">
<stop offset="0.220764" stop-color="white" stop-opacity="0"/>
<stop offset="1" stop-color="#FD611F"/>
</linearGradient>
</defs>
</svg>
