<svg width="56" height="59" viewBox="0 0 56 59" fill="none" xmlns="http://www.w3.org/2000/svg">
<path d="M14.6842 56.5781V56.5781C7.95507 56.5781 2.5 51.1231 2.5 44.3939L2.5 14.6275C2.5 7.89831 7.95507 2.44324 14.6842 2.44324V2.44324" stroke="#FF6320" stroke-width="4.65044"/>
<path d="M29.9167 50.5625L28.71 50.5625C22.6472 50.5625 17.7324 45.6477 17.7324 39.5849L17.7324 19.4352C17.7324 13.3724 22.6472 8.45759 28.71 8.45759L29.9167 8.45759" stroke="#FF6320" stroke-width="4.65044"/>
<path d="M37.9258 42.6797V42.6797C35.1848 42.6797 32.9629 40.4577 32.9629 37.7168L32.9629 26.2655C32.9629 20.7139 37.4634 16.2134 43.015 16.2134V16.2134" stroke="#FF6320" stroke-width="4.65044"/>
<path d="M43.0133 30.8824V30.8824C48.5649 30.8824 53.0654 35.3829 53.0654 40.9345L53.0654 44.0039" stroke="#FF6320" stroke-width="4.65044"/>
<path d="M43.0133 16.2187L45.7321 16.2187C49.7822 16.2187 53.0654 19.502 53.0654 23.5521V23.5521C53.0654 27.6021 49.7822 30.8854 45.7321 30.8854L33.8888 30.8854" stroke="#FF6320" stroke-width="4.65044"/>
</svg>
