<svg width="974" height="680" viewBox="0 0 974 680" fill="none" xmlns="http://www.w3.org/2000/svg">
<mask id="mask0_57_237" style="mask-type:alpha" maskUnits="userSpaceOnUse" x="0" y="0" width="974" height="680">
<rect width="974" height="680" fill="#D9D9D9"/>
</mask>
<g mask="url(#mask0_57_237)">
<path d="M71.4912 912.215C63.8961 920.182 53.3692 924.691 42.3618 924.691C7.08704 924.691 -11.1753 882.613 13.0241 856.948C80.2445 785.656 183.763 675.98 238.514 618.541C275.283 579.966 310.229 530.408 310.427 480.801H397.949C397.949 537.908 375.967 592.824 336.563 634.159L71.4912 912.215Z" fill="url(#paint0_linear_57_237)"/>
<path d="M71.4912 53.0793C63.8961 45.1121 53.3691 40.6036 42.3618 40.6036C7.08701 40.6036 -11.1753 82.6819 13.0241 108.347C80.2445 179.638 183.763 289.314 238.514 346.754C275.283 385.329 310.228 434.886 310.427 484.494H397.949C397.949 427.386 375.967 372.47 336.563 331.136L71.4912 53.0793Z" fill="url(#paint1_linear_57_237)"/>
<path d="M520.23 912.215C512.635 920.182 502.108 924.691 491.1 924.691C455.826 924.691 437.563 882.613 461.763 856.948C528.983 785.656 632.502 675.98 687.253 618.541C724.022 579.966 758.967 530.408 759.165 480.801H846.687C846.687 537.908 824.706 592.824 785.301 634.159L520.23 912.215Z" fill="url(#paint2_linear_57_237)"/>
<path d="M520.23 53.0793C512.635 45.1121 502.108 40.6036 491.1 40.6036C455.826 40.6036 437.563 82.6819 461.763 108.347C528.983 179.638 632.502 289.314 687.253 346.754C724.022 385.329 758.967 434.886 759.165 484.494H846.687C846.687 427.386 824.705 372.47 785.301 331.136L520.23 53.0793Z" fill="url(#paint3_linear_57_237)"/>
<path d="M974.453 66.1818C974.453 102.181 945.27 131.364 909.271 131.364C873.272 131.364 844.089 102.181 844.089 66.1818C844.089 30.1829 873.272 1 909.271 1C945.27 1 974.453 30.1829 974.453 66.1818Z" fill="url(#paint4_linear_57_237)"/>
</g>
<defs>
<linearGradient id="paint0_linear_57_237" x1="547.163" y1="40.2672" x2="488.227" y2="924.691" gradientUnits="userSpaceOnUse">
<stop stop-color="white"/>
<stop offset="1" stop-color="white" stop-opacity="0"/>
</linearGradient>
<linearGradient id="paint1_linear_57_237" x1="547.163" y1="40.2672" x2="488.227" y2="924.691" gradientUnits="userSpaceOnUse">
<stop stop-color="white"/>
<stop offset="1" stop-color="white" stop-opacity="0"/>
</linearGradient>
<linearGradient id="paint2_linear_57_237" x1="547.163" y1="40.2672" x2="488.227" y2="924.691" gradientUnits="userSpaceOnUse">
<stop stop-color="white"/>
<stop offset="1" stop-color="white" stop-opacity="0"/>
</linearGradient>
<linearGradient id="paint3_linear_57_237" x1="547.163" y1="40.2672" x2="488.227" y2="924.691" gradientUnits="userSpaceOnUse">
<stop stop-color="white"/>
<stop offset="1" stop-color="white" stop-opacity="0"/>
</linearGradient>
<linearGradient id="paint4_linear_57_237" x1="547.163" y1="40.2672" x2="488.227" y2="924.691" gradientUnits="userSpaceOnUse">
<stop stop-color="white"/>
<stop offset="1" stop-color="white" stop-opacity="0"/>
</linearGradient>
</defs>
</svg>
