<svg width="1449" height="245" viewBox="0 0 1449 245" fill="none" xmlns="http://www.w3.org/2000/svg">
<path opacity="0.55" d="M-106.746 106.406L339.38 106.406C341.008 106.406 342.328 107.726 342.328 109.354C342.328 110.983 341.008 112.303 339.38 112.303L-106.746 112.303L-106.746 106.406Z" fill="url(#paint0_linear_1121_2582)"/>
<path opacity="0.55" d="M-106.746 0.640625L339.38 0.640586C341.008 0.640586 342.328 1.96053 342.328 3.58876C342.328 5.21699 341.008 6.53693 339.38 6.53693L-106.746 6.53697L-106.746 0.640625Z" fill="url(#paint1_linear_1121_2582)"/>
<path d="M1446 223.711C1447.66 223.711 1449 222.368 1449 220.711C1449 219.054 1447.66 217.711 1446 217.711L1446 223.711ZM-92.75 69.6836L290.31 69.6837L290.31 63.6837L-92.75 63.6836L-92.75 69.6836ZM852.024 223.711L1446 223.711L1446 217.711L852.024 217.711L852.024 223.711ZM569.637 146.278C655.11 196.964 752.651 223.711 852.024 223.711L852.024 217.711C753.728 217.711 657.244 191.254 572.697 141.117L569.637 146.278ZM290.31 69.6837C388.606 69.6837 485.089 96.1404 569.637 146.278L572.697 141.117C487.223 90.4303 389.683 63.6837 290.31 63.6837L290.31 69.6837Z" fill="url(#paint2_linear_1121_2582)"/>
<path opacity="0.88" d="M1070.84 244.768C1072.5 244.768 1073.84 243.425 1073.84 241.768C1073.84 240.111 1072.5 238.768 1070.84 238.768L1070.84 244.768ZM255.581 87.7402L255.581 90.7402L255.581 87.7402ZM-92.75 90.7402L255.581 90.7402L255.581 84.7402L-92.75 84.7402L-92.75 90.7402ZM837.84 244.768L1070.84 244.768L1070.84 238.768L837.84 238.768L837.84 244.768ZM545.227 167.362C634.405 218.093 735.241 244.768 837.84 244.768L837.84 238.768C736.281 238.768 636.468 212.364 548.194 162.146L545.227 167.362ZM255.581 90.7402C357.139 90.7402 456.953 117.144 545.227 167.362L548.194 162.146C459.016 111.415 358.18 84.7402 255.581 84.7402L255.581 90.7402Z" fill="url(#paint3_linear_1121_2582)"/>
<path d="M1320.75 202.654C1322.41 202.654 1323.75 201.311 1323.75 199.654C1323.75 197.998 1322.41 196.654 1320.75 196.654L1320.75 202.654ZM-92.75 48.627L482.486 48.627L482.486 42.627L-92.75 42.627L-92.75 48.627ZM1043.41 202.654L1320.75 202.654L1320.75 196.654L1043.41 196.654L1043.41 202.654ZM761.413 125.22C846.744 175.905 944.157 202.654 1043.41 202.654L1043.41 196.654C945.235 196.654 848.88 170.196 764.478 120.061L761.413 125.22ZM482.486 48.627C580.656 48.627 677.011 75.0859 761.413 125.22L764.478 120.061C679.147 69.3766 581.734 42.627 482.486 42.627L482.486 48.627Z" fill="url(#paint4_linear_1121_2582)"/>
<path opacity="0.88" d="M1177.75 181.598C1179.41 181.598 1180.75 180.255 1180.75 178.598C1180.75 176.941 1179.41 175.598 1177.75 175.598L1177.75 181.598ZM-92.75 27.5703L498.651 27.5705L498.651 21.5705L-92.75 21.5703L-92.75 27.5703ZM1030.28 181.598L1177.75 181.598L1177.75 175.598L1030.28 175.598L1030.28 181.598ZM762.861 104.119C842.872 154.731 935.603 181.598 1030.28 181.598L1030.28 175.598C936.739 175.598 845.12 149.053 766.068 99.0488L762.861 104.119ZM498.651 27.5705C592.19 27.5705 683.809 54.115 762.861 104.119L766.068 99.0488C686.057 48.4373 593.326 21.5705 498.651 21.5705L498.651 27.5705Z" fill="url(#paint5_linear_1121_2582)"/>
<defs>
<linearGradient id="paint0_linear_1121_2582" x1="228.308" y1="110.841" x2="-532.722" y2="110.84" gradientUnits="userSpaceOnUse">
<stop stop-color="#FF6B2C" stop-opacity="0"/>
<stop offset="0.322917" stop-color="#FF6B2C"/>
<stop offset="1" stop-color="#DF3724"/>
</linearGradient>
<linearGradient id="paint1_linear_1121_2582" x1="228.308" y1="5.07553" x2="-532.722" y2="5.07399" gradientUnits="userSpaceOnUse">
<stop stop-color="#FF6B2C" stop-opacity="0"/>
<stop offset="0.322917" stop-color="#FF6B2C"/>
<stop offset="1" stop-color="#DF3724"/>
</linearGradient>
<linearGradient id="paint2_linear_1121_2582" x1="-211.851" y1="8.97815" x2="722.741" y2="756.018" gradientUnits="userSpaceOnUse">
<stop stop-color="#FF6321"/>
<stop offset="1" stop-color="#DF4705" stop-opacity="0"/>
</linearGradient>
<linearGradient id="paint3_linear_1121_2582" x1="-185.593" y1="30.0349" x2="815.366" y2="661.986" gradientUnits="userSpaceOnUse">
<stop stop-color="#FF6321"/>
<stop offset="1" stop-color="#DF4705" stop-opacity="0"/>
</linearGradient>
<linearGradient id="paint4_linear_1121_2582" x1="-191.613" y1="-12.0783" x2="818.192" y2="633.597" gradientUnits="userSpaceOnUse">
<stop stop-color="#FF6321"/>
<stop offset="1" stop-color="#DF4705" stop-opacity="0"/>
</linearGradient>
<linearGradient id="paint5_linear_1121_2582" x1="-191.818" y1="-33.135" x2="764.912" y2="608.739" gradientUnits="userSpaceOnUse">
<stop stop-color="#FF6321"/>
<stop offset="1" stop-color="#DF4705" stop-opacity="0"/>
</linearGradient>
</defs>
</svg>
