<svg width="1285" height="739" viewBox="0 0 1285 739" fill="none" xmlns="http://www.w3.org/2000/svg">
<g clip-path="url(#clip0_111_3556)">
<path d="M648.91 567.542C645.363 565.494 644.501 562.672 646.983 561.239C649.466 559.806 654.353 560.304 657.9 562.351L840.312 667.667C843.858 669.714 844.721 672.536 842.238 673.969C839.756 675.403 834.868 674.905 831.322 672.857L648.91 567.542Z" fill="url(#paint0_linear_111_3556)"/>
<path d="M789.201 486.544C785.655 484.497 784.792 481.675 787.274 480.242C789.757 478.808 794.644 479.306 798.191 481.354L980.603 586.67C984.149 588.717 985.012 591.539 982.53 592.972C980.047 594.406 975.16 593.907 971.613 591.86L789.201 486.544Z" fill="url(#paint1_linear_111_3556)"/>
<path d="M695.467 540.662C691.921 538.614 691.058 535.792 693.541 534.359C696.023 532.926 700.911 533.424 704.457 535.471L886.869 640.787C890.416 642.834 891.278 645.656 888.796 647.09C886.313 648.523 881.426 648.025 877.879 645.977L695.467 540.662Z" fill="url(#paint2_linear_111_3556)"/>
<path d="M835.759 459.664C832.212 457.617 831.349 454.795 833.832 453.362C836.314 451.928 841.202 452.427 844.748 454.474L1027.16 559.79C1030.71 561.837 1031.57 564.659 1029.09 566.092C1026.6 567.526 1021.72 567.027 1018.17 564.98L835.759 459.664Z" fill="url(#paint3_linear_111_3556)"/>
<path d="M742.025 513.782C738.478 511.734 737.616 508.912 740.098 507.479C742.581 506.046 747.468 506.544 751.015 508.591L933.426 613.907C936.973 615.954 937.836 618.776 935.353 620.21C932.871 621.643 927.983 621.145 924.437 619.097L742.025 513.782Z" fill="url(#paint4_linear_111_3556)"/>
<path d="M882.316 432.784C878.77 430.737 877.907 427.915 880.389 426.482C882.872 425.048 887.759 425.547 891.306 427.594L1073.72 532.91C1077.26 534.957 1078.13 537.779 1075.64 539.212C1073.16 540.646 1068.27 540.148 1064.73 538.1L882.316 432.784Z" fill="url(#paint5_linear_111_3556)"/>
<path d="M952.152 392.465C948.606 390.417 947.743 387.595 950.225 386.162C952.708 384.729 957.595 385.227 961.142 387.274L1143.55 492.59C1147.1 494.637 1147.96 497.459 1145.48 498.892C1143 500.326 1138.11 499.828 1134.56 497.78L952.152 392.465Z" fill="url(#paint6_linear_111_3556)"/>
<path d="M997.751 366.138C994.204 364.091 993.342 361.269 995.824 359.836C998.306 358.402 1003.19 358.9 1006.74 360.948L1189.15 466.263C1192.7 468.311 1193.56 471.133 1191.08 472.566C1188.6 473.999 1183.71 473.501 1180.16 471.454L997.751 366.138Z" fill="url(#paint7_linear_111_3556)"/>
<path d="M672.189 554.102C668.642 552.054 667.78 549.232 670.262 547.799C672.744 546.366 677.632 546.864 681.179 548.911L863.59 654.227C867.137 656.274 868 659.096 865.517 660.529C863.035 661.963 858.147 661.465 854.601 659.417L672.189 554.102Z" fill="url(#paint8_linear_111_3556)"/>
<path d="M812.48 473.104C808.933 471.057 808.071 468.235 810.553 466.802C813.036 465.368 817.923 465.866 821.47 467.914L1003.88 573.23C1007.43 575.277 1008.29 578.099 1005.81 579.532C1003.33 580.965 998.438 580.467 994.892 578.42L812.48 473.104Z" fill="url(#paint9_linear_111_3556)"/>
<path d="M718.746 527.222C715.2 525.174 714.337 522.352 716.819 520.919C719.302 519.486 724.189 519.984 727.736 522.031L910.148 627.347C913.694 629.394 914.557 632.216 912.075 633.649C909.592 635.083 904.705 634.585 901.158 632.537L718.746 527.222Z" fill="url(#paint10_linear_111_3556)"/>
<path d="M859.037 446.224C855.491 444.177 854.628 441.355 857.111 439.922C859.593 438.488 864.481 438.986 868.027 441.034L1050.44 546.35C1053.99 548.397 1054.85 551.219 1052.37 552.652C1049.88 554.086 1045 553.587 1041.45 551.54L859.037 446.224Z" fill="url(#paint11_linear_111_3556)"/>
<path d="M928.874 405.905C925.327 403.857 924.464 401.035 926.947 399.602C929.429 398.169 934.317 398.667 937.863 400.714L1120.28 506.03C1123.82 508.077 1124.68 510.899 1122.2 512.332C1119.72 513.766 1114.83 513.268 1111.29 511.22L928.874 405.905Z" fill="url(#paint12_linear_111_3556)"/>
<path d="M765.304 500.342C761.757 498.294 760.894 495.472 763.377 494.039C765.859 492.606 770.747 493.104 774.293 495.151L956.705 600.467C960.252 602.514 961.114 605.336 958.632 606.77C956.15 608.203 951.262 607.705 947.715 605.657L765.304 500.342Z" fill="url(#paint13_linear_111_3556)"/>
<path d="M905.595 419.344C902.048 417.297 901.186 414.475 903.668 413.042C906.151 411.608 911.038 412.107 914.585 414.154L1097 519.47C1100.54 521.517 1101.41 524.339 1098.92 525.772C1096.44 527.206 1091.55 526.708 1088.01 524.66L905.595 419.344Z" fill="url(#paint14_linear_111_3556)"/>
<path d="M975.431 379.025C971.884 376.977 971.022 374.155 973.504 372.722C975.987 371.289 980.874 371.787 984.421 373.834L1166.83 479.15C1170.38 481.197 1171.24 484.019 1168.76 485.452C1166.28 486.886 1161.39 486.388 1157.84 484.34L975.431 379.025Z" fill="url(#paint15_linear_111_3556)"/>
<path d="M1021.03 352.698C1017.48 350.651 1016.62 347.829 1019.1 346.395C1021.59 344.962 1026.47 345.46 1030.02 347.508L1212.43 452.823C1215.98 454.871 1216.84 457.693 1214.36 459.126C1211.88 460.559 1206.99 460.061 1203.44 458.014L1021.03 352.698Z" fill="url(#paint16_linear_111_3556)"/>
<path d="M677.27 143.849C680.816 145.897 681.679 148.719 679.197 150.152C676.714 151.585 671.827 151.087 668.28 149.039L485.868 43.7239C482.322 41.6762 481.459 38.8544 483.941 37.4212C486.424 35.9879 491.311 36.486 494.858 38.5336L677.27 143.849Z" fill="url(#paint17_linear_111_3556)"/>
<path d="M536.978 224.846C540.525 226.894 541.388 229.716 538.905 231.149C536.423 232.582 531.535 232.084 527.989 230.037L345.577 124.721C342.03 122.673 341.168 119.852 343.65 118.418C346.133 116.985 351.02 117.483 354.567 119.531L536.978 224.846Z" fill="url(#paint18_linear_111_3556)"/>
<path d="M630.712 170.729C634.259 172.777 635.122 175.598 632.639 177.032C630.157 178.465 625.269 177.967 621.722 175.919L439.311 70.6038C435.764 68.5562 434.902 65.7344 437.384 64.3011C439.866 62.8679 444.754 63.3659 448.301 65.4136L630.712 170.729Z" fill="url(#paint19_linear_111_3556)"/>
<path d="M490.421 251.726C493.968 253.774 494.83 256.596 492.348 258.029C489.865 259.462 484.978 258.964 481.431 256.916L299.02 151.601C295.473 149.553 294.61 146.732 297.093 145.298C299.575 143.865 304.463 144.363 308.009 146.411L490.421 251.726Z" fill="url(#paint20_linear_111_3556)"/>
<path d="M584.155 197.609C587.701 199.657 588.564 202.478 586.082 203.912C583.599 205.345 578.712 204.847 575.165 202.799L392.753 97.4838C389.207 95.4362 388.344 92.6143 390.827 91.1811C393.309 89.7478 398.197 90.2459 401.743 92.2935L584.155 197.609Z" fill="url(#paint21_linear_111_3556)"/>
<path d="M443.864 278.606C447.41 280.654 448.273 283.476 445.79 284.909C443.308 286.342 438.42 285.844 434.874 283.796L252.462 178.481C248.915 176.433 248.053 173.612 250.535 172.178C253.018 170.745 257.905 171.243 261.452 173.291L443.864 278.606Z" fill="url(#paint22_linear_111_3556)"/>
<path d="M374.027 318.926C377.574 320.974 378.437 323.796 375.954 325.229C373.472 326.662 368.584 326.164 365.038 324.116L182.626 218.801C179.079 216.753 178.217 213.931 180.699 212.498C183.182 211.065 188.069 211.563 191.616 213.611L374.027 318.926Z" fill="url(#paint23_linear_111_3556)"/>
<path d="M328.429 345.252C331.975 347.3 332.838 350.122 330.356 351.555C327.873 352.988 322.986 352.49 319.439 350.443L137.027 245.127C133.481 243.08 132.618 240.258 135.101 238.825C137.583 237.391 142.471 237.889 146.017 239.937L328.429 345.252Z" fill="url(#paint24_linear_111_3556)"/>
<path d="M653.991 157.289C657.538 159.337 658.4 162.159 655.918 163.592C653.435 165.025 648.548 164.527 645.001 162.479L462.589 57.1639C459.043 55.1163 458.18 52.2945 460.663 50.8612C463.145 49.428 468.033 49.926 471.579 51.9736L653.991 157.289Z" fill="url(#paint25_linear_111_3556)"/>
<path d="M513.7 238.286C517.246 240.334 518.109 243.156 515.626 244.589C513.144 246.022 508.256 245.524 504.71 243.477L322.298 138.161C318.752 136.113 317.889 133.292 320.371 131.858C322.854 130.425 327.741 130.923 331.288 132.971L513.7 238.286Z" fill="url(#paint26_linear_111_3556)"/>
<path d="M607.433 184.169C610.98 186.217 611.843 189.038 609.36 190.472C606.878 191.905 601.99 191.407 598.444 189.359L416.032 84.0439C412.485 81.9962 411.623 79.1744 414.105 77.7412C416.588 76.3079 421.475 76.806 425.022 78.8536L607.433 184.169Z" fill="url(#paint27_linear_111_3556)"/>
<path d="M467.142 265.166C470.689 267.214 471.551 270.036 469.069 271.469C466.587 272.902 461.699 272.404 458.152 270.357L275.741 165.041C272.194 162.993 271.331 160.172 273.814 158.738C276.296 157.305 281.184 157.803 284.731 159.851L467.142 265.166Z" fill="url(#paint28_linear_111_3556)"/>
<path d="M397.306 305.486C400.853 307.534 401.715 310.356 399.233 311.789C396.75 313.222 391.863 312.724 388.316 310.676L205.905 205.361C202.358 203.313 201.495 200.491 203.978 199.058C206.46 197.625 211.348 198.123 214.894 200.171L397.306 305.486Z" fill="url(#paint29_linear_111_3556)"/>
<path d="M560.876 211.049C564.423 213.097 565.285 215.918 562.803 217.352C560.32 218.785 555.433 218.287 551.886 216.239L369.475 110.924C365.928 108.876 365.065 106.054 367.548 104.621C370.03 103.188 374.918 103.686 378.464 105.734L560.876 211.049Z" fill="url(#paint30_linear_111_3556)"/>
<path d="M420.585 292.046C424.131 294.094 424.994 296.916 422.512 298.349C420.029 299.782 415.142 299.284 411.595 297.236L229.183 191.921C225.637 189.873 224.774 187.052 227.256 185.618C229.739 184.185 234.626 184.683 238.173 186.731L420.585 292.046Z" fill="url(#paint31_linear_111_3556)"/>
<path d="M350.749 332.366C354.295 334.414 355.158 337.236 352.675 338.669C350.193 340.102 345.305 339.604 341.759 337.556L159.347 232.241C155.801 230.193 154.938 227.371 157.42 225.938C159.903 224.505 164.79 225.003 168.337 227.051L350.749 332.366Z" fill="url(#paint32_linear_111_3556)"/>
<path d="M305.15 358.692C308.697 360.74 309.559 363.562 307.077 364.995C304.594 366.428 299.707 365.93 296.16 363.883L113.749 258.567C110.202 256.52 109.339 253.698 111.822 252.265C114.304 250.831 119.192 251.329 122.738 253.377L305.15 358.692Z" fill="url(#paint33_linear_111_3556)"/>
<path d="M1027.05 360.051C1023.51 362.099 1018.62 362.597 1016.14 361.164C1013.66 359.73 1014.52 356.909 1018.06 354.861L1200.48 249.546C1204.02 247.498 1208.91 247 1211.39 248.433C1213.88 249.866 1213.01 252.688 1209.47 254.736L1027.05 360.051Z" fill="url(#paint34_linear_111_3556)"/>
<path d="M886.763 279.054C883.217 281.102 878.329 281.6 875.847 280.166C873.364 278.733 874.227 275.911 877.773 273.864L1060.19 168.548C1063.73 166.501 1068.62 166.003 1071.1 167.436C1073.58 168.869 1072.72 171.691 1069.17 173.739L886.763 279.054Z" fill="url(#paint35_linear_111_3556)"/>
<path d="M980.497 333.171C976.95 335.219 972.063 335.717 969.58 334.284C967.098 332.85 967.961 330.029 971.507 327.981L1153.92 222.666C1157.47 220.618 1162.35 220.12 1164.84 221.553C1167.32 222.986 1166.46 225.808 1162.91 227.856L980.497 333.171Z" fill="url(#paint36_linear_111_3556)"/>
<path d="M840.206 252.174C836.659 254.222 831.772 254.72 829.289 253.286C826.807 251.853 827.669 249.031 831.216 246.984L1013.63 141.668C1017.17 139.621 1022.06 139.123 1024.54 140.556C1027.03 141.989 1026.16 144.811 1022.62 146.859L840.206 252.174Z" fill="url(#paint37_linear_111_3556)"/>
<path d="M933.94 306.291C930.393 308.339 925.505 308.837 923.023 307.404C920.541 305.97 921.403 303.149 924.95 301.101L1107.36 195.786C1110.91 193.738 1115.8 193.24 1118.28 194.673C1120.76 196.106 1119.9 198.928 1116.35 200.976L933.94 306.291Z" fill="url(#paint38_linear_111_3556)"/>
<path d="M793.648 225.294C790.102 227.342 785.214 227.84 782.732 226.407C780.249 224.973 781.112 222.151 784.659 220.104L967.07 114.788C970.617 112.741 975.504 112.243 977.987 113.676C980.469 115.109 979.607 117.931 976.06 119.979L793.648 225.294Z" fill="url(#paint39_linear_111_3556)"/>
<path d="M723.812 184.974C720.266 187.022 715.378 187.52 712.896 186.087C710.413 184.653 711.276 181.832 714.823 179.784L897.234 74.4685C900.781 72.4209 905.668 71.9228 908.151 73.3561C910.633 74.7893 909.771 77.6111 906.224 79.6588L723.812 184.974Z" fill="url(#paint40_linear_111_3556)"/>
<path d="M678.214 158.648C674.667 160.695 669.78 161.194 667.297 159.76C664.815 158.327 665.677 155.505 669.224 153.458L851.636 48.1421C855.182 46.0945 860.07 45.5964 862.552 47.0297C865.035 48.4629 864.172 51.2848 860.625 53.3324L678.214 158.648Z" fill="url(#paint41_linear_111_3556)"/>
<path d="M1003.78 346.611C1000.23 348.659 995.342 349.157 992.859 347.724C990.377 346.29 991.239 343.469 994.786 341.421L1177.2 236.105C1180.74 234.058 1185.63 233.56 1188.11 234.993C1190.6 236.426 1189.73 239.248 1186.19 241.296L1003.78 346.611Z" fill="url(#paint42_linear_111_3556)"/>
<path d="M863.484 265.614C859.938 267.662 855.05 268.16 852.568 266.726C850.085 265.293 850.948 262.471 854.495 260.424L1036.91 155.108C1040.45 153.061 1045.34 152.563 1047.82 153.996C1050.31 155.429 1049.44 158.251 1045.9 160.299L863.484 265.614Z" fill="url(#paint43_linear_111_3556)"/>
<path d="M957.218 319.731C953.672 321.779 948.784 322.277 946.302 320.844C943.819 319.41 944.682 316.589 948.228 314.541L1130.64 209.226C1134.19 207.178 1139.07 206.68 1141.56 208.113C1144.04 209.546 1143.18 212.368 1139.63 214.416L957.218 319.731Z" fill="url(#paint44_linear_111_3556)"/>
<path d="M816.927 238.734C813.38 240.782 808.493 241.28 806.01 239.846C803.528 238.413 804.391 235.591 807.937 233.544L990.349 128.228C993.896 126.181 998.783 125.683 1001.27 127.116C1003.75 128.549 1002.89 131.371 999.339 133.419L816.927 238.734Z" fill="url(#paint45_linear_111_3556)"/>
<path d="M747.091 198.414C743.544 200.462 738.657 200.96 736.174 199.527C733.692 198.093 734.555 195.272 738.101 193.224L920.513 87.9084C924.059 85.8608 928.947 85.3627 931.429 86.796C933.912 88.2292 933.049 91.0511 929.503 93.0987L747.091 198.414Z" fill="url(#paint46_linear_111_3556)"/>
<path d="M910.661 292.851C907.114 294.899 902.227 295.397 899.744 293.964C897.262 292.53 898.124 289.709 901.671 287.661L1084.08 182.346C1087.63 180.298 1092.52 179.8 1095 181.233C1097.48 182.666 1096.62 185.488 1093.07 187.536L910.661 292.851Z" fill="url(#paint47_linear_111_3556)"/>
<path d="M770.37 211.854C766.823 213.902 761.935 214.4 759.453 212.967C756.971 211.533 757.833 208.711 761.38 206.664L943.792 101.348C947.338 99.3007 952.226 98.8027 954.708 100.236C957.191 101.669 956.328 104.491 952.781 106.539L770.37 211.854Z" fill="url(#paint48_linear_111_3556)"/>
<path d="M700.534 171.534C696.987 173.582 692.099 174.08 689.617 172.647C687.134 171.213 687.997 168.392 691.544 166.344L873.955 61.0285C877.502 58.9808 882.39 58.4828 884.872 59.916C887.354 61.3493 886.492 64.1711 882.945 66.2187L700.534 171.534Z" fill="url(#paint49_linear_111_3556)"/>
<path d="M654.935 145.208C651.388 147.255 646.501 147.754 644.018 146.32C641.536 144.887 642.398 142.065 645.945 140.018L828.357 34.7021C831.903 32.6545 836.791 32.1564 839.273 33.5897C841.756 35.0229 840.893 37.8447 837.347 39.8924L654.935 145.208Z" fill="url(#paint50_linear_111_3556)"/>
<path d="M285.547 348.085C289.094 346.037 293.981 345.539 296.464 346.972C298.946 348.405 298.083 351.227 294.537 353.275L112.125 458.59C108.578 460.638 103.691 461.136 101.209 459.703C98.726 458.269 99.5887 455.448 103.135 453.4L285.547 348.085Z" fill="url(#paint51_linear_111_3556)"/>
<path d="M425.838 429.082C429.385 427.034 434.272 426.536 436.755 427.969C439.237 429.403 438.375 432.224 434.828 434.272L252.416 539.587C248.87 541.635 243.982 542.133 241.5 540.7C239.017 539.267 239.88 536.445 243.427 534.397L425.838 429.082Z" fill="url(#paint52_linear_111_3556)"/>
<path d="M332.104 374.964C335.651 372.917 340.539 372.419 343.021 373.852C345.504 375.285 344.641 378.107 341.094 380.155L158.683 485.47C155.136 487.518 150.248 488.016 147.766 486.583C145.283 485.149 146.146 482.328 149.693 480.28L332.104 374.964Z" fill="url(#paint53_linear_111_3556)"/>
<path d="M472.396 455.962C475.942 453.914 480.83 453.416 483.312 454.849C485.795 456.282 484.932 459.104 481.386 461.152L298.974 566.467C295.427 568.515 290.54 569.013 288.057 567.58C285.575 566.147 286.437 563.325 289.984 561.277L472.396 455.962Z" fill="url(#paint54_linear_111_3556)"/>
<path d="M378.662 401.844C382.209 399.797 387.096 399.299 389.579 400.732C392.061 402.165 391.198 404.987 387.652 407.035L205.24 512.35C201.693 514.398 196.806 514.896 194.323 513.463C191.841 512.029 192.704 509.208 196.25 507.16L378.662 401.844Z" fill="url(#paint55_linear_111_3556)"/>
<path d="M518.953 482.842C522.5 480.794 527.387 480.296 529.87 481.729C532.352 483.162 531.49 485.984 527.943 488.032L345.531 593.347C341.985 595.395 337.097 595.893 334.615 594.46C332.132 593.027 332.995 590.205 336.541 588.157L518.953 482.842Z" fill="url(#paint56_linear_111_3556)"/>
<path d="M588.789 523.161C592.336 521.114 597.223 520.616 599.706 522.049C602.188 523.482 601.326 526.304 597.779 528.352L415.367 633.667C411.821 635.715 406.933 636.213 404.451 634.78C401.968 633.346 402.831 630.525 406.378 628.477L588.789 523.161Z" fill="url(#paint57_linear_111_3556)"/>
<path d="M634.388 549.488C637.934 547.44 642.822 546.942 645.304 548.375C647.787 549.809 646.924 552.63 643.378 554.678L460.966 659.994C457.419 662.041 452.532 662.539 450.049 661.106C447.567 659.673 448.429 656.851 451.976 654.803L634.388 549.488Z" fill="url(#paint58_linear_111_3556)"/>
<path d="M308.826 361.525C312.372 359.477 317.26 358.979 319.742 360.412C322.225 361.845 321.362 364.667 317.816 366.715L135.404 472.03C131.857 474.078 126.97 474.576 124.487 473.143C122.005 471.709 122.868 468.888 126.414 466.84L308.826 361.525Z" fill="url(#paint59_linear_111_3556)"/>
<path d="M449.117 442.522C452.664 440.474 457.551 439.976 460.034 441.409C462.516 442.843 461.653 445.664 458.107 447.712L275.695 553.027C272.149 555.075 267.261 555.573 264.779 554.14C262.296 552.707 263.159 549.885 266.705 547.837L449.117 442.522Z" fill="url(#paint60_linear_111_3556)"/>
<path d="M355.383 388.405C358.93 386.357 363.817 385.859 366.3 387.292C368.782 388.725 367.92 391.547 364.373 393.595L181.961 498.91C178.415 500.958 173.527 501.456 171.045 500.023C168.562 498.589 169.425 495.768 172.972 493.72L355.383 388.405Z" fill="url(#paint61_linear_111_3556)"/>
<path d="M495.675 469.402C499.221 467.354 504.109 466.856 506.591 468.289C509.074 469.722 508.211 472.544 504.664 474.592L322.253 579.907C318.706 581.955 313.818 582.453 311.336 581.02C308.854 579.587 309.716 576.765 313.263 574.717L495.675 469.402Z" fill="url(#paint62_linear_111_3556)"/>
<path d="M565.511 509.722C569.057 507.674 573.945 507.176 576.427 508.609C578.91 510.042 578.047 512.864 574.5 514.912L392.089 620.227C388.542 622.275 383.655 622.773 381.172 621.34C378.69 619.906 379.552 617.085 383.099 615.037L565.511 509.722Z" fill="url(#paint63_linear_111_3556)"/>
<path d="M401.941 415.284C405.487 413.237 410.375 412.739 412.857 414.172C415.34 415.605 414.477 418.427 410.931 420.475L228.519 525.79C224.972 527.838 220.085 528.336 217.602 526.903C215.12 525.469 215.982 522.648 219.529 520.6L401.941 415.284Z" fill="url(#paint64_linear_111_3556)"/>
<path d="M542.232 496.282C545.779 494.234 550.666 493.736 553.149 495.169C555.631 496.602 554.768 499.424 551.222 501.472L368.81 606.787C365.263 608.835 360.376 609.333 357.893 607.9C355.411 606.467 356.274 603.645 359.82 601.597L542.232 496.282Z" fill="url(#paint65_linear_111_3556)"/>
<path d="M612.068 536.602C615.615 534.554 620.502 534.056 622.985 535.489C625.467 536.922 624.604 539.744 621.058 541.792L438.646 647.107C435.099 649.155 430.212 649.653 427.729 648.22C425.247 646.786 426.11 643.965 429.656 641.917L612.068 536.602Z" fill="url(#paint66_linear_111_3556)"/>
<path d="M657.667 562.928C661.213 560.88 666.101 560.382 668.583 561.815C671.066 563.249 670.203 566.07 666.656 568.118L484.245 673.434C480.698 675.481 475.811 675.979 473.328 674.546C470.846 673.113 471.708 670.291 475.255 668.243L657.667 562.928Z" fill="url(#paint67_linear_111_3556)"/>
<g clip-path="url(#clip1_111_3556)">
<rect width="453.467" height="453.467" rx="16.7311" transform="matrix(0.866025 0.5 -0.866025 0.5 657.277 132.308)" fill="url(#paint68_linear_111_3556)"/>
<rect x="-4.45599e-08" y="0.747591" width="451.971" height="451.971" rx="15.9835" transform="matrix(0.866025 0.5 -0.866025 0.5 657.925 132.681)" stroke="black" stroke-opacity="0.36" stroke-width="1.49518"/>
<g opacity="0.32" filter="url(#filter0_f_111_3556)">
<rect width="285.721" height="260.692" rx="48.8625" transform="matrix(0.866025 0.5 -0.866025 0.5 653.441 452.731)" fill="#999999"/>
</g>
<g opacity="0.32" filter="url(#filter1_f_111_3556)">
<rect width="126.615" height="296.423" rx="48.8625" transform="matrix(0.866025 0.5 -0.866025 0.5 732.242 27.3789)" fill="#878787"/>
</g>
<g clip-path="url(#clip2_111_3556)">
<rect width="392.493" height="392.493" rx="16.7311" transform="matrix(0.866025 0.5 -0.866025 0.5 657.281 162.8)" fill="url(#paint69_linear_111_3556)"/>
<rect x="-4.45599e-08" y="0.747591" width="390.998" height="390.998" rx="15.9835" transform="matrix(0.866025 0.5 -0.866025 0.5 657.929 163.174)" stroke="black" stroke-opacity="0.19" stroke-width="1.49518"/>
<path d="M506.974 426.64L500.194 429.143L498.071 427.917L503.84 422.007L505.829 423.156L501.428 427.314L508.463 424.676L510.364 425.774L505.807 429.829L513.009 427.301L514.988 428.443L504.751 431.774L502.639 430.554L506.974 426.64ZM517.775 430.052L519.653 431.137L511.651 435.757L509.772 434.673L517.775 430.052ZM518.722 435.258L522.134 437.228L520.645 438.088L517.232 436.118L518.722 435.258ZM529.281 436.696L533.038 438.865C534.001 439.421 534.505 439.964 534.55 440.495C534.594 441.025 534.253 441.5 533.527 441.919C533.12 442.154 532.642 442.306 532.093 442.375C531.552 442.439 530.971 442.428 530.348 442.343C530.519 442.629 530.556 442.895 530.46 443.138C530.371 443.387 530.171 443.63 529.859 443.87L528.092 445.25L526.169 444.139L527.703 442.946C528.044 442.681 528.211 442.439 528.203 442.221C528.203 441.998 528.018 441.78 527.648 441.566L526.125 440.687L523.157 442.4L521.279 441.316L529.281 436.696ZM529.104 440.751C529.533 440.999 529.941 441.136 530.326 441.162C530.711 441.188 531.082 441.098 531.438 440.892C531.793 440.687 531.949 440.473 531.904 440.251C531.86 440.028 531.623 439.793 531.193 439.545L529.648 438.653L527.559 439.859L529.104 440.751Z" fill="white"/>
<path d="M775.686 272.64L777.519 268.013L779.676 269.258L778.364 272.171L783.41 271.414L785.489 272.614L777.608 273.698L774.485 275.502L772.607 274.417L775.686 272.64ZM788.274 274.222L792.031 276.391C792.994 276.947 793.498 277.49 793.542 278.021C793.587 278.551 793.246 279.026 792.52 279.445C792.112 279.681 791.634 279.833 791.086 279.901C790.545 279.965 789.964 279.955 789.341 279.869C789.512 280.156 789.549 280.421 789.452 280.665C789.363 280.913 789.163 281.157 788.852 281.396L787.085 282.776L785.162 281.666L786.696 280.472C787.037 280.207 787.203 279.965 787.196 279.747C787.196 279.525 787.011 279.306 786.64 279.093L785.118 278.213L782.15 279.927L780.272 278.842L788.274 274.222ZM788.096 278.278C788.526 278.526 788.934 278.663 789.319 278.688C789.704 278.714 790.075 278.624 790.43 278.419C790.786 278.213 790.942 278 790.897 277.777C790.853 277.555 790.616 277.319 790.186 277.071L788.641 276.179L786.551 277.386L788.096 278.278ZM797.448 281.777L794.681 281.489L796.57 280.398L799.516 280.712L801.283 281.733L793.28 286.353L791.402 285.268L797.448 281.777ZM804.043 285.585L801.275 285.296L803.165 284.205L806.11 284.52L807.877 285.54L799.875 290.16L797.996 289.076L804.043 285.585Z" fill="white"/>
<path fill-rule="evenodd" clip-rule="evenodd" d="M644.177 366.958L638.435 377.516C638.086 378.158 638.384 378.859 639.208 379.334V379.334C640.871 380.295 643.705 379.892 644.408 378.596L665.621 339.461C666.317 338.177 665.72 336.776 664.072 335.825V335.825C662.424 334.873 659.998 334.529 657.773 334.931L589.989 347.178C587.745 347.583 587.048 349.22 588.711 350.18V350.18C589.535 350.656 590.749 350.828 591.861 350.626L610.148 347.311L644.177 366.958ZM616.567 346.174L659.677 338.383L646.146 363.252L616.567 346.174Z" fill="#FEFCFA"/>
<path d="M578.999 286.708C579.623 287.068 579.964 287.56 579.943 288.069L579.207 305.844C579.097 308.486 577.23 311.003 573.993 312.872C570.756 314.74 566.398 315.818 561.821 315.881L531.035 316.306C530.152 316.319 529.3 316.122 528.676 315.761C526.677 314.607 528.027 312.632 530.853 312.584C538.705 312.451 550.789 312.25 557.149 312.162C561.419 312.102 566.209 311.624 569.032 310.007C571.833 308.377 572.661 305.612 572.764 303.146C572.916 299.475 573.265 292.497 573.496 287.964C573.579 286.333 576.999 285.553 578.999 286.708Z" fill="#FEFCFA"/>
<path d="M572.603 340.065C572.582 340.574 572.923 341.066 573.547 341.427C575.547 342.581 578.967 341.802 579.05 340.17C579.281 335.637 579.63 328.66 579.782 324.988C579.883 322.553 580.692 319.825 583.41 318.188C586.246 316.619 590.971 316.152 595.189 316.093C601.548 316.005 613.633 315.804 621.484 315.67C624.311 315.623 625.661 313.648 623.661 312.493C623.037 312.133 622.185 311.936 621.303 311.948L590.516 312.373C586.038 312.435 581.768 313.468 578.554 315.264L578.552 315.263C578.518 315.283 578.483 315.303 578.448 315.323C578.413 315.343 578.379 315.363 578.344 315.383L578.346 315.384C575.236 317.24 573.446 319.705 573.339 322.291L572.603 340.065Z" fill="#FEFCFA"/>
<path d="M703.234 416.298C702.298 415.757 701.776 415.023 701.785 414.259L702.355 364.832L660.503 388.995C659.244 389.722 657.203 389.722 655.944 388.995V388.995C654.685 388.268 654.685 387.089 655.944 386.363L700.231 360.794C702.189 359.663 705.365 359.663 707.324 360.794V360.794C708.275 361.343 708.804 362.089 708.793 362.866L708.081 412.358L750.115 388.089C751.354 387.374 753.363 387.374 754.601 388.089V388.089C755.84 388.805 755.84 389.964 754.601 390.679L710.229 416.298C708.298 417.413 705.166 417.413 703.234 416.298V416.298Z" fill="#FEFCFA"/>
<path fill-rule="evenodd" clip-rule="evenodd" d="M771.696 455.825C770.872 455.349 770.574 454.648 770.923 454.006L776.665 443.448L742.636 423.802L724.35 427.116C723.237 427.318 722.023 427.146 721.199 426.67V426.67C719.536 425.71 720.233 424.074 722.477 423.668L790.262 411.421C792.486 411.019 794.913 411.363 796.56 412.315V412.315C798.208 413.266 798.805 414.667 798.109 415.951L776.896 455.087C776.194 456.383 773.359 456.785 771.696 455.825V455.825ZM792.166 414.873L749.055 422.664L778.634 439.742L792.166 414.873Z" fill="#FEFCFA"/>
<path d="M533.247 264.113C534.403 263.446 536.277 263.446 537.432 264.113L560.687 277.539C561.843 278.207 561.843 279.288 560.687 279.956C559.531 280.623 557.658 280.623 556.502 279.956L547.154 274.559L506.695 297.917C506.672 297.931 506.649 297.944 506.625 297.957L515.975 303.355C517.131 304.022 517.131 305.104 515.975 305.771C514.819 306.439 512.946 306.439 511.79 305.771L488.535 292.345C487.38 291.678 487.38 290.596 488.535 289.929C489.691 289.262 491.565 289.262 492.72 289.929L502.068 295.326C502.09 295.312 502.113 295.299 502.136 295.285L542.595 271.926L533.247 266.53C532.092 265.862 532.092 264.781 533.247 264.113Z" fill="#FEFCFA"/>
<circle cx="4.30275" cy="4.30275" r="4.30275" transform="matrix(0.866025 0.5 -0.866025 0.5 601.328 295.293)" fill="#FEFCFA"/>
</g>
</g>
</g>
<defs>
<filter id="filter0_f_111_3556" x="233.514" y="248.093" width="861.53" height="682.484" filterUnits="userSpaceOnUse" color-interpolation-filters="sRGB">
<feFlood flood-opacity="0" result="BackgroundImageFix"/>
<feBlend mode="normal" in="SourceGraphic" in2="BackgroundImageFix" result="shape"/>
<feGaussianBlur stdDeviation="109.475" result="effect1_foregroundBlur_111_3556"/>
</filter>
<filter id="filter1_f_111_3556" x="281.37" y="-177.26" width="754.686" height="620.796" filterUnits="userSpaceOnUse" color-interpolation-filters="sRGB">
<feFlood flood-opacity="0" result="BackgroundImageFix"/>
<feBlend mode="normal" in="SourceGraphic" in2="BackgroundImageFix" result="shape"/>
<feGaussianBlur stdDeviation="109.475" result="effect1_foregroundBlur_111_3556"/>
</filter>
<linearGradient id="paint0_linear_111_3556" x1="884.016" y1="593.968" x2="736.071" y2="337.72" gradientUnits="userSpaceOnUse">
<stop stop-color="#535353" stop-opacity="0"/>
<stop offset="0.322917" stop-color="#767676" stop-opacity="0.63"/>
<stop offset="1" stop-color="#434343"/>
</linearGradient>
<linearGradient id="paint1_linear_111_3556" x1="884.016" y1="593.968" x2="736.071" y2="337.72" gradientUnits="userSpaceOnUse">
<stop stop-color="#535353" stop-opacity="0"/>
<stop offset="0.322917" stop-color="#767676" stop-opacity="0.63"/>
<stop offset="1" stop-color="#434343"/>
</linearGradient>
<linearGradient id="paint2_linear_111_3556" x1="884.016" y1="593.968" x2="736.071" y2="337.72" gradientUnits="userSpaceOnUse">
<stop stop-color="#535353" stop-opacity="0"/>
<stop offset="0.322917" stop-color="#767676" stop-opacity="0.63"/>
<stop offset="1" stop-color="#434343"/>
</linearGradient>
<linearGradient id="paint3_linear_111_3556" x1="884.016" y1="593.968" x2="736.071" y2="337.72" gradientUnits="userSpaceOnUse">
<stop stop-color="#535353" stop-opacity="0"/>
<stop offset="0.322917" stop-color="#767676" stop-opacity="0.63"/>
<stop offset="1" stop-color="#434343"/>
</linearGradient>
<linearGradient id="paint4_linear_111_3556" x1="884.016" y1="593.968" x2="736.071" y2="337.72" gradientUnits="userSpaceOnUse">
<stop stop-color="#535353" stop-opacity="0"/>
<stop offset="0.322917" stop-color="#767676" stop-opacity="0.63"/>
<stop offset="1" stop-color="#434343"/>
</linearGradient>
<linearGradient id="paint5_linear_111_3556" x1="884.016" y1="593.968" x2="736.071" y2="337.72" gradientUnits="userSpaceOnUse">
<stop stop-color="#535353" stop-opacity="0"/>
<stop offset="0.322917" stop-color="#767676" stop-opacity="0.63"/>
<stop offset="1" stop-color="#434343"/>
</linearGradient>
<linearGradient id="paint6_linear_111_3556" x1="884.016" y1="593.968" x2="736.071" y2="337.72" gradientUnits="userSpaceOnUse">
<stop stop-color="#535353" stop-opacity="0"/>
<stop offset="0.322917" stop-color="#767676" stop-opacity="0.63"/>
<stop offset="1" stop-color="#434343"/>
</linearGradient>
<linearGradient id="paint7_linear_111_3556" x1="884.016" y1="593.968" x2="736.071" y2="337.72" gradientUnits="userSpaceOnUse">
<stop stop-color="#535353" stop-opacity="0"/>
<stop offset="0.322917" stop-color="#767676" stop-opacity="0.63"/>
<stop offset="1" stop-color="#434343"/>
</linearGradient>
<linearGradient id="paint8_linear_111_3556" x1="884.016" y1="593.968" x2="736.071" y2="337.72" gradientUnits="userSpaceOnUse">
<stop stop-color="#535353" stop-opacity="0"/>
<stop offset="0.322917" stop-color="#767676" stop-opacity="0.63"/>
<stop offset="1" stop-color="#434343"/>
</linearGradient>
<linearGradient id="paint9_linear_111_3556" x1="884.016" y1="593.968" x2="736.071" y2="337.72" gradientUnits="userSpaceOnUse">
<stop stop-color="#535353" stop-opacity="0"/>
<stop offset="0.322917" stop-color="#767676" stop-opacity="0.63"/>
<stop offset="1" stop-color="#434343"/>
</linearGradient>
<linearGradient id="paint10_linear_111_3556" x1="884.016" y1="593.968" x2="736.071" y2="337.72" gradientUnits="userSpaceOnUse">
<stop stop-color="#535353" stop-opacity="0"/>
<stop offset="0.322917" stop-color="#767676" stop-opacity="0.63"/>
<stop offset="1" stop-color="#434343"/>
</linearGradient>
<linearGradient id="paint11_linear_111_3556" x1="884.016" y1="593.968" x2="736.071" y2="337.72" gradientUnits="userSpaceOnUse">
<stop stop-color="#535353" stop-opacity="0"/>
<stop offset="0.322917" stop-color="#767676" stop-opacity="0.63"/>
<stop offset="1" stop-color="#434343"/>
</linearGradient>
<linearGradient id="paint12_linear_111_3556" x1="884.016" y1="593.968" x2="736.071" y2="337.72" gradientUnits="userSpaceOnUse">
<stop stop-color="#535353" stop-opacity="0"/>
<stop offset="0.322917" stop-color="#767676" stop-opacity="0.63"/>
<stop offset="1" stop-color="#434343"/>
</linearGradient>
<linearGradient id="paint13_linear_111_3556" x1="884.016" y1="593.968" x2="736.071" y2="337.72" gradientUnits="userSpaceOnUse">
<stop stop-color="#535353" stop-opacity="0"/>
<stop offset="0.322917" stop-color="#767676" stop-opacity="0.63"/>
<stop offset="1" stop-color="#434343"/>
</linearGradient>
<linearGradient id="paint14_linear_111_3556" x1="884.016" y1="593.968" x2="736.071" y2="337.72" gradientUnits="userSpaceOnUse">
<stop stop-color="#535353" stop-opacity="0"/>
<stop offset="0.322917" stop-color="#767676" stop-opacity="0.63"/>
<stop offset="1" stop-color="#434343"/>
</linearGradient>
<linearGradient id="paint15_linear_111_3556" x1="884.016" y1="593.968" x2="736.071" y2="337.72" gradientUnits="userSpaceOnUse">
<stop stop-color="#535353" stop-opacity="0"/>
<stop offset="0.322917" stop-color="#767676" stop-opacity="0.63"/>
<stop offset="1" stop-color="#434343"/>
</linearGradient>
<linearGradient id="paint16_linear_111_3556" x1="884.016" y1="593.968" x2="736.071" y2="337.72" gradientUnits="userSpaceOnUse">
<stop stop-color="#535353" stop-opacity="0"/>
<stop offset="0.322917" stop-color="#767676" stop-opacity="0.63"/>
<stop offset="1" stop-color="#434343"/>
</linearGradient>
<linearGradient id="paint17_linear_111_3556" x1="442.164" y1="117.423" x2="590.109" y2="373.671" gradientUnits="userSpaceOnUse">
<stop stop-color="#535353" stop-opacity="0"/>
<stop offset="0.322917" stop-color="#767676" stop-opacity="0.63"/>
<stop offset="1" stop-color="#434343"/>
</linearGradient>
<linearGradient id="paint18_linear_111_3556" x1="442.164" y1="117.423" x2="590.109" y2="373.671" gradientUnits="userSpaceOnUse">
<stop stop-color="#535353" stop-opacity="0"/>
<stop offset="0.322917" stop-color="#767676" stop-opacity="0.63"/>
<stop offset="1" stop-color="#434343"/>
</linearGradient>
<linearGradient id="paint19_linear_111_3556" x1="442.164" y1="117.423" x2="590.109" y2="373.671" gradientUnits="userSpaceOnUse">
<stop stop-color="#535353" stop-opacity="0"/>
<stop offset="0.322917" stop-color="#767676" stop-opacity="0.63"/>
<stop offset="1" stop-color="#434343"/>
</linearGradient>
<linearGradient id="paint20_linear_111_3556" x1="442.164" y1="117.423" x2="590.109" y2="373.671" gradientUnits="userSpaceOnUse">
<stop stop-color="#535353" stop-opacity="0"/>
<stop offset="0.322917" stop-color="#767676" stop-opacity="0.63"/>
<stop offset="1" stop-color="#434343"/>
</linearGradient>
<linearGradient id="paint21_linear_111_3556" x1="442.164" y1="117.423" x2="590.109" y2="373.671" gradientUnits="userSpaceOnUse">
<stop stop-color="#535353" stop-opacity="0"/>
<stop offset="0.322917" stop-color="#767676" stop-opacity="0.63"/>
<stop offset="1" stop-color="#434343"/>
</linearGradient>
<linearGradient id="paint22_linear_111_3556" x1="442.164" y1="117.423" x2="590.109" y2="373.671" gradientUnits="userSpaceOnUse">
<stop stop-color="#535353" stop-opacity="0"/>
<stop offset="0.322917" stop-color="#767676" stop-opacity="0.63"/>
<stop offset="1" stop-color="#434343"/>
</linearGradient>
<linearGradient id="paint23_linear_111_3556" x1="442.164" y1="117.423" x2="590.109" y2="373.671" gradientUnits="userSpaceOnUse">
<stop stop-color="#535353" stop-opacity="0"/>
<stop offset="0.322917" stop-color="#767676" stop-opacity="0.63"/>
<stop offset="1" stop-color="#434343"/>
</linearGradient>
<linearGradient id="paint24_linear_111_3556" x1="442.164" y1="117.423" x2="590.109" y2="373.671" gradientUnits="userSpaceOnUse">
<stop stop-color="#535353" stop-opacity="0"/>
<stop offset="0.322917" stop-color="#767676" stop-opacity="0.63"/>
<stop offset="1" stop-color="#434343"/>
</linearGradient>
<linearGradient id="paint25_linear_111_3556" x1="442.164" y1="117.423" x2="590.109" y2="373.671" gradientUnits="userSpaceOnUse">
<stop stop-color="#535353" stop-opacity="0"/>
<stop offset="0.322917" stop-color="#767676" stop-opacity="0.63"/>
<stop offset="1" stop-color="#434343"/>
</linearGradient>
<linearGradient id="paint26_linear_111_3556" x1="442.164" y1="117.423" x2="590.109" y2="373.671" gradientUnits="userSpaceOnUse">
<stop stop-color="#535353" stop-opacity="0"/>
<stop offset="0.322917" stop-color="#767676" stop-opacity="0.63"/>
<stop offset="1" stop-color="#434343"/>
</linearGradient>
<linearGradient id="paint27_linear_111_3556" x1="442.164" y1="117.423" x2="590.109" y2="373.671" gradientUnits="userSpaceOnUse">
<stop stop-color="#535353" stop-opacity="0"/>
<stop offset="0.322917" stop-color="#767676" stop-opacity="0.63"/>
<stop offset="1" stop-color="#434343"/>
</linearGradient>
<linearGradient id="paint28_linear_111_3556" x1="442.164" y1="117.423" x2="590.109" y2="373.671" gradientUnits="userSpaceOnUse">
<stop stop-color="#535353" stop-opacity="0"/>
<stop offset="0.322917" stop-color="#767676" stop-opacity="0.63"/>
<stop offset="1" stop-color="#434343"/>
</linearGradient>
<linearGradient id="paint29_linear_111_3556" x1="442.164" y1="117.423" x2="590.109" y2="373.671" gradientUnits="userSpaceOnUse">
<stop stop-color="#535353" stop-opacity="0"/>
<stop offset="0.322917" stop-color="#767676" stop-opacity="0.63"/>
<stop offset="1" stop-color="#434343"/>
</linearGradient>
<linearGradient id="paint30_linear_111_3556" x1="442.164" y1="117.423" x2="590.109" y2="373.671" gradientUnits="userSpaceOnUse">
<stop stop-color="#535353" stop-opacity="0"/>
<stop offset="0.322917" stop-color="#767676" stop-opacity="0.63"/>
<stop offset="1" stop-color="#434343"/>
</linearGradient>
<linearGradient id="paint31_linear_111_3556" x1="442.164" y1="117.423" x2="590.109" y2="373.671" gradientUnits="userSpaceOnUse">
<stop stop-color="#535353" stop-opacity="0"/>
<stop offset="0.322917" stop-color="#767676" stop-opacity="0.63"/>
<stop offset="1" stop-color="#434343"/>
</linearGradient>
<linearGradient id="paint32_linear_111_3556" x1="442.164" y1="117.423" x2="590.109" y2="373.671" gradientUnits="userSpaceOnUse">
<stop stop-color="#535353" stop-opacity="0"/>
<stop offset="0.322917" stop-color="#767676" stop-opacity="0.63"/>
<stop offset="1" stop-color="#434343"/>
</linearGradient>
<linearGradient id="paint33_linear_111_3556" x1="442.164" y1="117.423" x2="590.109" y2="373.671" gradientUnits="userSpaceOnUse">
<stop stop-color="#535353" stop-opacity="0"/>
<stop offset="0.322917" stop-color="#767676" stop-opacity="0.63"/>
<stop offset="1" stop-color="#434343"/>
</linearGradient>
<linearGradient id="paint34_linear_111_3556" x1="1072.83" y1="224.313" x2="924.881" y2="480.561" gradientUnits="userSpaceOnUse">
<stop stop-color="#535353" stop-opacity="0"/>
<stop offset="0.322917" stop-color="#767676" stop-opacity="0.63"/>
<stop offset="1" stop-color="#434343"/>
</linearGradient>
<linearGradient id="paint35_linear_111_3556" x1="1072.83" y1="224.313" x2="924.881" y2="480.561" gradientUnits="userSpaceOnUse">
<stop stop-color="#535353" stop-opacity="0"/>
<stop offset="0.322917" stop-color="#767676" stop-opacity="0.63"/>
<stop offset="1" stop-color="#434343"/>
</linearGradient>
<linearGradient id="paint36_linear_111_3556" x1="1072.83" y1="224.313" x2="924.881" y2="480.561" gradientUnits="userSpaceOnUse">
<stop stop-color="#535353" stop-opacity="0"/>
<stop offset="0.322917" stop-color="#767676" stop-opacity="0.63"/>
<stop offset="1" stop-color="#434343"/>
</linearGradient>
<linearGradient id="paint37_linear_111_3556" x1="1072.83" y1="224.313" x2="924.881" y2="480.561" gradientUnits="userSpaceOnUse">
<stop stop-color="#535353" stop-opacity="0"/>
<stop offset="0.322917" stop-color="#767676" stop-opacity="0.63"/>
<stop offset="1" stop-color="#434343"/>
</linearGradient>
<linearGradient id="paint38_linear_111_3556" x1="1072.83" y1="224.313" x2="924.881" y2="480.561" gradientUnits="userSpaceOnUse">
<stop stop-color="#535353" stop-opacity="0"/>
<stop offset="0.322917" stop-color="#767676" stop-opacity="0.63"/>
<stop offset="1" stop-color="#434343"/>
</linearGradient>
<linearGradient id="paint39_linear_111_3556" x1="1072.83" y1="224.313" x2="924.881" y2="480.561" gradientUnits="userSpaceOnUse">
<stop stop-color="#535353" stop-opacity="0"/>
<stop offset="0.322917" stop-color="#767676" stop-opacity="0.63"/>
<stop offset="1" stop-color="#434343"/>
</linearGradient>
<linearGradient id="paint40_linear_111_3556" x1="1072.83" y1="224.313" x2="924.881" y2="480.561" gradientUnits="userSpaceOnUse">
<stop stop-color="#535353" stop-opacity="0"/>
<stop offset="0.322917" stop-color="#767676" stop-opacity="0.63"/>
<stop offset="1" stop-color="#434343"/>
</linearGradient>
<linearGradient id="paint41_linear_111_3556" x1="1072.83" y1="224.313" x2="924.881" y2="480.561" gradientUnits="userSpaceOnUse">
<stop stop-color="#535353" stop-opacity="0"/>
<stop offset="0.322917" stop-color="#767676" stop-opacity="0.63"/>
<stop offset="1" stop-color="#434343"/>
</linearGradient>
<linearGradient id="paint42_linear_111_3556" x1="1072.83" y1="224.313" x2="924.881" y2="480.561" gradientUnits="userSpaceOnUse">
<stop stop-color="#535353" stop-opacity="0"/>
<stop offset="0.322917" stop-color="#767676" stop-opacity="0.63"/>
<stop offset="1" stop-color="#434343"/>
</linearGradient>
<linearGradient id="paint43_linear_111_3556" x1="1072.83" y1="224.313" x2="924.881" y2="480.561" gradientUnits="userSpaceOnUse">
<stop stop-color="#535353" stop-opacity="0"/>
<stop offset="0.322917" stop-color="#767676" stop-opacity="0.63"/>
<stop offset="1" stop-color="#434343"/>
</linearGradient>
<linearGradient id="paint44_linear_111_3556" x1="1072.83" y1="224.313" x2="924.881" y2="480.561" gradientUnits="userSpaceOnUse">
<stop stop-color="#535353" stop-opacity="0"/>
<stop offset="0.322917" stop-color="#767676" stop-opacity="0.63"/>
<stop offset="1" stop-color="#434343"/>
</linearGradient>
<linearGradient id="paint45_linear_111_3556" x1="1072.83" y1="224.313" x2="924.881" y2="480.561" gradientUnits="userSpaceOnUse">
<stop stop-color="#535353" stop-opacity="0"/>
<stop offset="0.322917" stop-color="#767676" stop-opacity="0.63"/>
<stop offset="1" stop-color="#434343"/>
</linearGradient>
<linearGradient id="paint46_linear_111_3556" x1="1072.83" y1="224.313" x2="924.881" y2="480.561" gradientUnits="userSpaceOnUse">
<stop stop-color="#535353" stop-opacity="0"/>
<stop offset="0.322917" stop-color="#767676" stop-opacity="0.63"/>
<stop offset="1" stop-color="#434343"/>
</linearGradient>
<linearGradient id="paint47_linear_111_3556" x1="1072.83" y1="224.313" x2="924.881" y2="480.561" gradientUnits="userSpaceOnUse">
<stop stop-color="#535353" stop-opacity="0"/>
<stop offset="0.322917" stop-color="#767676" stop-opacity="0.63"/>
<stop offset="1" stop-color="#434343"/>
</linearGradient>
<linearGradient id="paint48_linear_111_3556" x1="1072.83" y1="224.313" x2="924.881" y2="480.561" gradientUnits="userSpaceOnUse">
<stop stop-color="#535353" stop-opacity="0"/>
<stop offset="0.322917" stop-color="#767676" stop-opacity="0.63"/>
<stop offset="1" stop-color="#434343"/>
</linearGradient>
<linearGradient id="paint49_linear_111_3556" x1="1072.83" y1="224.313" x2="924.881" y2="480.561" gradientUnits="userSpaceOnUse">
<stop stop-color="#535353" stop-opacity="0"/>
<stop offset="0.322917" stop-color="#767676" stop-opacity="0.63"/>
<stop offset="1" stop-color="#434343"/>
</linearGradient>
<linearGradient id="paint50_linear_111_3556" x1="1072.83" y1="224.313" x2="924.881" y2="480.561" gradientUnits="userSpaceOnUse">
<stop stop-color="#535353" stop-opacity="0"/>
<stop offset="0.322917" stop-color="#767676" stop-opacity="0.63"/>
<stop offset="1" stop-color="#434343"/>
</linearGradient>
<linearGradient id="paint51_linear_111_3556" x1="239.775" y1="483.823" x2="387.72" y2="227.575" gradientUnits="userSpaceOnUse">
<stop stop-color="#535353" stop-opacity="0"/>
<stop offset="0.322917" stop-color="#767676" stop-opacity="0.63"/>
<stop offset="1" stop-color="#434343"/>
</linearGradient>
<linearGradient id="paint52_linear_111_3556" x1="239.775" y1="483.823" x2="387.72" y2="227.575" gradientUnits="userSpaceOnUse">
<stop stop-color="#535353" stop-opacity="0"/>
<stop offset="0.322917" stop-color="#767676" stop-opacity="0.63"/>
<stop offset="1" stop-color="#434343"/>
</linearGradient>
<linearGradient id="paint53_linear_111_3556" x1="239.775" y1="483.823" x2="387.72" y2="227.575" gradientUnits="userSpaceOnUse">
<stop stop-color="#535353" stop-opacity="0"/>
<stop offset="0.322917" stop-color="#767676" stop-opacity="0.63"/>
<stop offset="1" stop-color="#434343"/>
</linearGradient>
<linearGradient id="paint54_linear_111_3556" x1="239.775" y1="483.823" x2="387.72" y2="227.575" gradientUnits="userSpaceOnUse">
<stop stop-color="#535353" stop-opacity="0"/>
<stop offset="0.322917" stop-color="#767676" stop-opacity="0.63"/>
<stop offset="1" stop-color="#434343"/>
</linearGradient>
<linearGradient id="paint55_linear_111_3556" x1="239.775" y1="483.823" x2="387.72" y2="227.575" gradientUnits="userSpaceOnUse">
<stop stop-color="#535353" stop-opacity="0"/>
<stop offset="0.322917" stop-color="#767676" stop-opacity="0.63"/>
<stop offset="1" stop-color="#434343"/>
</linearGradient>
<linearGradient id="paint56_linear_111_3556" x1="239.775" y1="483.823" x2="387.72" y2="227.575" gradientUnits="userSpaceOnUse">
<stop stop-color="#535353" stop-opacity="0"/>
<stop offset="0.322917" stop-color="#767676" stop-opacity="0.63"/>
<stop offset="1" stop-color="#434343"/>
</linearGradient>
<linearGradient id="paint57_linear_111_3556" x1="239.775" y1="483.823" x2="387.72" y2="227.575" gradientUnits="userSpaceOnUse">
<stop stop-color="#535353" stop-opacity="0"/>
<stop offset="0.322917" stop-color="#767676" stop-opacity="0.63"/>
<stop offset="1" stop-color="#434343"/>
</linearGradient>
<linearGradient id="paint58_linear_111_3556" x1="239.775" y1="483.823" x2="387.72" y2="227.575" gradientUnits="userSpaceOnUse">
<stop stop-color="#535353" stop-opacity="0"/>
<stop offset="0.322917" stop-color="#767676" stop-opacity="0.63"/>
<stop offset="1" stop-color="#434343"/>
</linearGradient>
<linearGradient id="paint59_linear_111_3556" x1="239.775" y1="483.823" x2="387.72" y2="227.575" gradientUnits="userSpaceOnUse">
<stop stop-color="#535353" stop-opacity="0"/>
<stop offset="0.322917" stop-color="#767676" stop-opacity="0.63"/>
<stop offset="1" stop-color="#434343"/>
</linearGradient>
<linearGradient id="paint60_linear_111_3556" x1="239.775" y1="483.823" x2="387.72" y2="227.575" gradientUnits="userSpaceOnUse">
<stop stop-color="#535353" stop-opacity="0"/>
<stop offset="0.322917" stop-color="#767676" stop-opacity="0.63"/>
<stop offset="1" stop-color="#434343"/>
</linearGradient>
<linearGradient id="paint61_linear_111_3556" x1="239.775" y1="483.823" x2="387.72" y2="227.575" gradientUnits="userSpaceOnUse">
<stop stop-color="#535353" stop-opacity="0"/>
<stop offset="0.322917" stop-color="#767676" stop-opacity="0.63"/>
<stop offset="1" stop-color="#434343"/>
</linearGradient>
<linearGradient id="paint62_linear_111_3556" x1="239.775" y1="483.823" x2="387.72" y2="227.575" gradientUnits="userSpaceOnUse">
<stop stop-color="#535353" stop-opacity="0"/>
<stop offset="0.322917" stop-color="#767676" stop-opacity="0.63"/>
<stop offset="1" stop-color="#434343"/>
</linearGradient>
<linearGradient id="paint63_linear_111_3556" x1="239.775" y1="483.823" x2="387.72" y2="227.575" gradientUnits="userSpaceOnUse">
<stop stop-color="#535353" stop-opacity="0"/>
<stop offset="0.322917" stop-color="#767676" stop-opacity="0.63"/>
<stop offset="1" stop-color="#434343"/>
</linearGradient>
<linearGradient id="paint64_linear_111_3556" x1="239.775" y1="483.823" x2="387.72" y2="227.575" gradientUnits="userSpaceOnUse">
<stop stop-color="#535353" stop-opacity="0"/>
<stop offset="0.322917" stop-color="#767676" stop-opacity="0.63"/>
<stop offset="1" stop-color="#434343"/>
</linearGradient>
<linearGradient id="paint65_linear_111_3556" x1="239.775" y1="483.823" x2="387.72" y2="227.575" gradientUnits="userSpaceOnUse">
<stop stop-color="#535353" stop-opacity="0"/>
<stop offset="0.322917" stop-color="#767676" stop-opacity="0.63"/>
<stop offset="1" stop-color="#434343"/>
</linearGradient>
<linearGradient id="paint66_linear_111_3556" x1="239.775" y1="483.823" x2="387.72" y2="227.575" gradientUnits="userSpaceOnUse">
<stop stop-color="#535353" stop-opacity="0"/>
<stop offset="0.322917" stop-color="#767676" stop-opacity="0.63"/>
<stop offset="1" stop-color="#434343"/>
</linearGradient>
<linearGradient id="paint67_linear_111_3556" x1="239.775" y1="483.823" x2="387.72" y2="227.575" gradientUnits="userSpaceOnUse">
<stop stop-color="#535353" stop-opacity="0"/>
<stop offset="0.322917" stop-color="#767676" stop-opacity="0.63"/>
<stop offset="1" stop-color="#434343"/>
</linearGradient>
<linearGradient id="paint68_linear_111_3556" x1="-54.8542" y1="-110.26" x2="521.17" y2="557.153" gradientUnits="userSpaceOnUse">
<stop stop-color="#BFBEBE"/>
<stop offset="1" stop-color="#494949"/>
</linearGradient>
<linearGradient id="paint69_linear_111_3556" x1="0" y1="0" x2="392.491" y2="392.493" gradientUnits="userSpaceOnUse">
<stop stop-color="#EBEBEB"/>
<stop offset="0.0001" stop-color="#DBDBDB" stop-opacity="0.983214"/>
<stop offset="0.435092" stop-color="#A7A7A7"/>
<stop offset="0.6875" stop-color="#9A9A9A"/>
<stop offset="1" stop-color="#D3D3D3"/>
</linearGradient>
<clipPath id="clip0_111_3556">
<rect width="797.55" height="865.854" fill="white" transform="matrix(0.866025 0.5 -0.866025 0.5 702.957 -44.1133)"/>
</clipPath>
<clipPath id="clip1_111_3556">
<rect width="453.467" height="453.467" fill="white" transform="matrix(0.866025 0.5 -0.866025 0.5 657.277 132.307)"/>
</clipPath>
<clipPath id="clip2_111_3556">
<rect width="392.493" height="392.493" rx="17.1068" transform="matrix(0.866025 0.5 -0.866025 0.5 657.281 162.798)" fill="white"/>
</clipPath>
</defs>
</svg>
