<svg width="1424" height="521" viewBox="0 0 1424 521" fill="none" xmlns="http://www.w3.org/2000/svg">
<rect width="67.9682" height="6.31256" transform="matrix(-1 0 0 1 360.449 124.454)" fill="url(#paint0_linear_13_3)"/>
<rect width="67.9682" height="6.31256" transform="matrix(-1 0 0 1 360.449 140.86)" fill="url(#paint1_linear_13_3)"/>
<path opacity="0.33" d="M360.449 157.266H271.533C269.789 157.266 268.376 158.679 268.376 160.422V160.422C268.376 162.166 269.789 163.579 271.533 163.579H360.449V157.266Z" fill="url(#paint2_linear_13_3)"/>
<rect width="92.073" height="6.31256" transform="matrix(-1 0 0 1 360.453 157.266)" fill="url(#paint3_linear_13_3)"/>
<path opacity="0.44" d="M360.449 173.672H255.533C253.79 173.672 252.377 175.085 252.377 176.829V176.829C252.377 178.572 253.79 179.985 255.533 179.985H360.449V173.672Z" fill="url(#paint4_linear_13_3)"/>
<rect opacity="0.66" width="108.073" height="6.31256" transform="matrix(-1 0 0 1 360.453 173.672)" fill="url(#paint5_linear_13_3)"/>
<path opacity="0.55" d="M360.449 190.08H255.533C253.79 190.08 252.377 191.493 252.377 193.236V193.236C252.377 194.979 253.79 196.392 255.533 196.392H360.449V190.08Z" fill="url(#paint6_linear_13_3)"/>
<rect opacity="0.33" width="108.073" height="6.31256" transform="matrix(-1 0 0 1 360.453 190.08)" fill="url(#paint7_linear_13_3)"/>
<path opacity="0.55" d="M360.449 206.486H178.366C176.623 206.486 175.21 207.899 175.21 209.642V209.642C175.21 211.385 176.623 212.798 178.366 212.798H360.449V206.486Z" fill="url(#paint8_linear_13_3)"/>
<path opacity="0.55" d="M360.449 304.923H240.507C238.764 304.923 237.351 306.336 237.351 308.08V308.08C237.351 309.823 238.764 311.236 240.507 311.236H360.449V304.923Z" fill="url(#paint9_linear_13_3)"/>
<rect opacity="0.33" width="123.098" height="6.31256" transform="matrix(-1 0 0 1 360.453 304.923)" fill="url(#paint10_linear_13_3)"/>
<path opacity="0.55" d="M360.449 321.33H240.507C238.764 321.33 237.351 322.743 237.351 324.486V324.486C237.351 326.229 238.764 327.642 240.507 327.642H360.449V321.33Z" fill="url(#paint11_linear_13_3)"/>
<rect opacity="0.66" width="123.098" height="6.31256" transform="matrix(-1 0 0 1 360.453 321.33)" fill="url(#paint12_linear_13_3)"/>
<path opacity="0.44" d="M360.449 337.736H286.326C284.583 337.736 283.17 339.149 283.17 340.892V340.892C283.17 342.635 284.583 344.048 286.326 344.048H360.449V337.736Z" fill="url(#paint13_linear_13_3)"/>
<rect width="77.279" height="6.31256" transform="matrix(-1 0 0 1 360.453 337.736)" fill="url(#paint14_linear_13_3)"/>
<path opacity="0.33" d="M360.453 354.142H286.33C284.587 354.142 283.174 355.555 283.174 357.298V357.298C283.174 359.042 284.587 360.455 286.33 360.455H360.453V354.142Z" fill="url(#paint15_linear_13_3)"/>
<rect width="77.279" height="6.31256" transform="matrix(-1 0 0 1 360.453 354.142)" fill="url(#paint16_linear_13_3)"/>
<rect width="57.0473" height="6.31256" transform="matrix(-1 0 0 1 360.449 370.549)" fill="url(#paint17_linear_13_3)"/>
<rect width="57.0473" height="6.31256" transform="matrix(-1 0 0 1 360.449 386.956)" fill="url(#paint18_linear_13_3)"/>
<rect x="617.469" y="124.454" width="100.548" height="6.31256" fill="url(#paint19_linear_13_3)"/>
<rect x="623.738" y="140.86" width="94.2769" height="6.31256" fill="url(#paint20_linear_13_3)"/>
<rect x="623.738" y="157.266" width="287.761" height="6.31256" fill="url(#paint21_linear_13_3)"/>
<rect x="623.742" y="239.297" width="799.666" height="6.31256" fill="url(#paint22_linear_13_3)"/>
<rect x="623.738" y="173.672" width="287.761" height="6.31256" fill="url(#paint23_linear_13_3)"/>
<rect x="623.738" y="190.081" width="287.761" height="6.31256" fill="url(#paint24_linear_13_3)"/>
<rect x="623.738" y="206.487" width="466.543" height="6.31256" fill="url(#paint25_linear_13_3)"/>
<rect x="623.738" y="222.893" width="466.543" height="6.31256" fill="url(#paint26_linear_13_3)"/>
<rect x="623.738" y="255.706" width="799.666" height="6.31256" fill="url(#paint27_linear_13_3)"/>
<rect x="623.738" y="272.112" width="799.666" height="6.31256" fill="url(#paint28_linear_13_3)"/>
<rect x="623.738" y="288.518" width="799.666" height="6.31256" fill="url(#paint29_linear_13_3)"/>
<rect x="623.738" y="304.924" width="466.543" height="6.31256" fill="url(#paint30_linear_13_3)"/>
<rect x="623.738" y="321.331" width="466.543" height="6.31256" fill="url(#paint31_linear_13_3)"/>
<rect x="623.738" y="337.737" width="287.761" height="6.31256" fill="url(#paint32_linear_13_3)"/>
<rect x="623.738" y="354.143" width="287.761" height="6.31256" fill="url(#paint33_linear_13_3)"/>
<rect x="623.738" y="370.549" width="94.2769" height="6.31256" fill="url(#paint34_linear_13_3)"/>
<rect x="623.738" y="386.956" width="94.2769" height="6.31256" fill="url(#paint35_linear_13_3)"/>
<path d="M351.273 259L124.693 259" stroke="url(#paint36_linear_13_3)" stroke-width="6"/>
<path d="M351.273 275L189.498 275.392" stroke="url(#paint37_linear_13_3)" stroke-width="6"/>
<path d="M351.273 291.673L221.146 291.673" stroke="url(#paint38_linear_13_3)" stroke-width="6"/>
<path d="M351.273 242L0.441403 242" stroke="url(#paint39_linear_13_3)" stroke-width="6"/>
<path opacity="0.88" d="M351.273 226L107.25 226.001" stroke="url(#paint40_linear_13_3)" stroke-width="6"/>
<path d="M620.718 133.157C620.718 135.657 619.299 137.684 617.549 137.684C615.799 137.684 614.38 135.657 614.38 133.157L614.38 4.55471C614.38 2.05432 615.799 0.0273479 617.549 0.0273481C619.299 0.0273482 620.718 2.05432 620.718 4.55472L620.718 133.157Z" fill="url(#paint41_linear_13_3)"/>
<path d="M521.811 133.157C521.811 135.657 520.392 137.684 518.642 137.684C516.892 137.684 515.473 135.657 515.473 133.157L515.473 4.55471C515.473 2.05431 516.892 0.0273393 518.642 0.0273394C520.392 0.0273396 521.811 2.05431 521.811 4.55471L521.811 133.157Z" fill="url(#paint42_linear_13_3)"/>
<path d="M587.894 133.157C587.894 135.657 586.476 137.684 584.725 137.684C582.975 137.684 581.556 135.657 581.556 133.157L581.556 4.55471C581.556 2.05432 582.975 0.027345 584.725 0.0273452C586.476 0.0273453 587.894 2.05432 587.894 4.55471L587.894 133.157Z" fill="url(#paint43_linear_13_3)"/>
<path d="M488.988 133.157C488.988 135.657 487.569 137.684 485.819 137.684C484.069 137.684 482.65 135.657 482.65 133.157L482.65 4.5547C482.65 2.05431 484.069 0.0273364 485.819 0.0273365C487.569 0.0273367 488.988 2.05431 488.988 4.5547L488.988 133.157Z" fill="url(#paint44_linear_13_3)"/>
<path d="M555.071 133.157C555.071 135.657 553.652 137.684 551.902 137.684C550.152 137.684 548.733 135.657 548.733 133.157L548.733 4.55471C548.733 2.05431 550.152 0.0273422 551.902 0.0273423C553.652 0.0273425 555.071 2.05431 555.071 4.55471L555.071 133.157Z" fill="url(#paint45_linear_13_3)"/>
<path d="M456.164 133.157C456.164 135.657 454.745 137.684 452.995 137.684C451.245 137.684 449.826 135.657 449.826 133.157L449.826 4.5547C449.826 2.0543 451.245 0.0273335 452.995 0.0273337C454.745 0.0273338 456.164 2.05431 456.164 4.5547L456.164 133.157Z" fill="url(#paint46_linear_13_3)"/>
<path d="M406.929 133.157C406.929 135.657 405.51 137.684 403.76 137.684C402.01 137.684 400.591 135.657 400.591 133.157L400.591 4.5547C400.591 2.0543 402.01 0.0273292 403.76 0.0273294C405.51 0.0273295 406.929 2.0543 406.929 4.5547L406.929 133.157Z" fill="url(#paint47_linear_13_3)"/>
<path d="M374.782 133.157C374.782 135.657 373.363 137.684 371.613 137.684C369.863 137.684 368.444 135.657 368.444 133.157L368.444 4.55469C368.444 2.0543 369.863 0.0273264 371.613 0.0273266C373.363 0.0273267 374.782 2.0543 374.782 4.55469L374.782 133.157Z" fill="url(#paint48_linear_13_3)"/>
<path d="M604.306 133.157C604.306 135.657 602.887 137.684 601.137 137.684C599.387 137.684 597.968 135.657 597.968 133.157L597.968 4.55471C597.968 2.05432 599.387 0.0273465 601.137 0.0273466C602.887 0.0273468 604.306 2.05432 604.306 4.55471L604.306 133.157Z" fill="url(#paint49_linear_13_3)"/>
<path d="M505.399 133.157C505.399 135.657 503.981 137.684 502.23 137.684C500.48 137.684 499.061 135.657 499.061 133.157L499.061 4.5547C499.061 2.05431 500.48 0.0273378 502.23 0.027338C503.981 0.0273381 505.399 2.05431 505.399 4.5547L505.399 133.157Z" fill="url(#paint50_linear_13_3)"/>
<path d="M571.483 133.157C571.483 135.657 570.064 137.684 568.314 137.684C566.563 137.684 565.145 135.657 565.145 133.157L565.145 4.55471C565.145 2.05431 566.563 0.0273436 568.314 0.0273438C570.064 0.0273439 571.483 2.05432 571.483 4.55471L571.483 133.157Z" fill="url(#paint51_linear_13_3)"/>
<path d="M472.576 133.157C472.576 135.657 471.157 137.684 469.407 137.684C467.657 137.684 466.238 135.657 466.238 133.157L466.238 4.5547C466.238 2.05431 467.657 0.027335 469.407 0.0273351C471.157 0.0273353 472.576 2.05431 472.576 4.5547L472.576 133.157Z" fill="url(#paint52_linear_13_3)"/>
<path d="M423.341 133.157C423.341 135.657 421.922 137.684 420.172 137.684C418.422 137.684 417.003 135.657 417.003 133.157L417.003 4.5547C417.003 2.0543 418.422 0.0273306 420.172 0.0273308C421.922 0.027331 423.341 2.0543 423.341 4.5547L423.341 133.157Z" fill="url(#paint53_linear_13_3)"/>
<path d="M538.659 133.157C538.659 135.657 537.24 137.684 535.49 137.684C533.74 137.684 532.321 135.657 532.321 133.157L532.321 4.55471C532.321 2.05431 533.74 0.0273407 535.49 0.0273409C537.24 0.027341 538.659 2.05431 538.659 4.55471L538.659 133.157Z" fill="url(#paint54_linear_13_3)"/>
<path d="M439.752 133.157C439.752 135.657 438.334 137.684 436.583 137.684C434.833 137.684 433.415 135.657 433.415 133.157L433.415 4.5547C433.415 2.0543 434.833 0.0273321 436.583 0.0273322C438.334 0.0273324 439.752 2.0543 439.752 4.5547L439.752 133.157Z" fill="url(#paint55_linear_13_3)"/>
<path d="M390.517 133.157C390.517 135.657 389.099 137.684 387.348 137.684C385.598 137.684 384.179 135.657 384.179 133.157L384.179 4.55469C384.179 2.0543 385.598 0.0273278 387.348 0.0273279C389.099 0.0273281 390.517 2.0543 390.517 4.55469L390.517 133.157Z" fill="url(#paint56_linear_13_3)"/>
<path d="M358.37 133.157C358.37 135.657 356.951 137.684 355.201 137.684C353.451 137.684 352.032 135.657 352.032 133.157L352.032 4.55469C352.032 2.0543 353.451 0.027325 355.201 0.0273251C356.951 0.0273253 358.37 2.0543 358.37 4.55469L358.37 133.157Z" fill="url(#paint57_linear_13_3)"/>
<g opacity="0.55">
<path d="M352.032 387.235C352.032 384.734 353.451 382.708 355.201 382.708C356.951 382.708 358.37 384.734 358.37 387.235V515.837C358.37 518.337 356.951 520.364 355.201 520.364C353.451 520.364 352.032 518.337 352.032 515.837V387.235Z" fill="url(#paint58_linear_13_3)"/>
<path d="M450.939 387.235C450.939 384.734 452.358 382.708 454.108 382.708C455.858 382.708 457.277 384.734 457.277 387.235V515.837C457.277 518.337 455.858 520.364 454.108 520.364C452.358 520.364 450.939 518.337 450.939 515.837V387.235Z" fill="url(#paint59_linear_13_3)"/>
<path d="M384.856 387.235C384.856 384.734 386.274 382.708 388.025 382.708C389.775 382.708 391.194 384.734 391.194 387.235V515.837C391.194 518.337 389.775 520.364 388.025 520.364C386.274 520.364 384.856 518.337 384.856 515.837V387.235Z" fill="url(#paint60_linear_13_3)"/>
<path d="M483.762 387.235C483.762 384.734 485.181 382.708 486.931 382.708C488.681 382.708 490.1 384.734 490.1 387.235V515.837C490.1 518.337 488.681 520.364 486.931 520.364C485.181 520.364 483.762 518.337 483.762 515.837V387.235Z" fill="url(#paint61_linear_13_3)"/>
<path d="M417.679 387.235C417.679 384.734 419.098 382.708 420.848 382.708C422.598 382.708 424.017 384.734 424.017 387.235V515.837C424.017 518.337 422.598 520.364 420.848 520.364C419.098 520.364 417.679 518.337 417.679 515.837V387.235Z" fill="url(#paint62_linear_13_3)"/>
<path d="M516.586 387.235C516.586 384.734 518.005 382.708 519.755 382.708C521.505 382.708 522.924 384.734 522.924 387.235V515.837C522.924 518.337 521.505 520.364 519.755 520.364C518.005 520.364 516.586 518.337 516.586 515.837V387.235Z" fill="url(#paint63_linear_13_3)"/>
<path d="M565.821 387.235C565.821 384.734 567.24 382.708 568.99 382.708C570.74 382.708 572.159 384.734 572.159 387.235V515.837C572.159 518.337 570.74 520.364 568.99 520.364C567.24 520.364 565.821 518.337 565.821 515.837V387.235Z" fill="url(#paint64_linear_13_3)"/>
<path d="M597.968 387.235C597.968 384.734 599.387 382.708 601.137 382.708C602.887 382.708 604.306 384.734 604.306 387.235V515.837C604.306 518.337 602.887 520.364 601.137 520.364C599.387 520.364 597.968 518.337 597.968 515.837V387.235Z" fill="url(#paint65_linear_13_3)"/>
<path d="M368.444 387.235C368.444 384.734 369.863 382.708 371.613 382.708C373.363 382.708 374.782 384.734 374.782 387.235V515.837C374.782 518.337 373.363 520.364 371.613 520.364C369.863 520.364 368.444 518.337 368.444 515.837V387.235Z" fill="url(#paint66_linear_13_3)"/>
<path d="M467.351 387.235C467.351 384.734 468.769 382.708 470.52 382.708C472.27 382.708 473.689 384.734 473.689 387.235V515.837C473.689 518.337 472.27 520.364 470.52 520.364C468.769 520.364 467.351 518.337 467.351 515.837V387.235Z" fill="url(#paint67_linear_13_3)"/>
<path d="M401.267 387.235C401.267 384.734 402.686 382.708 404.436 382.708C406.187 382.708 407.605 384.734 407.605 387.235V515.837C407.605 518.337 406.187 520.364 404.436 520.364C402.686 520.364 401.267 518.337 401.267 515.837V387.235Z" fill="url(#paint68_linear_13_3)"/>
<path d="M500.174 387.235C500.174 384.734 501.593 382.708 503.343 382.708C505.093 382.708 506.512 384.734 506.512 387.235V515.837C506.512 518.337 505.093 520.364 503.343 520.364C501.593 520.364 500.174 518.337 500.174 515.837V387.235Z" fill="url(#paint69_linear_13_3)"/>
<path d="M549.409 387.235C549.409 384.734 550.828 382.708 552.578 382.708C554.328 382.708 555.747 384.734 555.747 387.235V515.837C555.747 518.337 554.328 520.364 552.578 520.364C550.828 520.364 549.409 518.337 549.409 515.837V387.235Z" fill="url(#paint70_linear_13_3)"/>
<path d="M434.091 387.235C434.091 384.734 435.51 382.708 437.26 382.708C439.01 382.708 440.429 384.734 440.429 387.235V515.837C440.429 518.337 439.01 520.364 437.26 520.364C435.51 520.364 434.091 518.337 434.091 515.837V387.235Z" fill="url(#paint71_linear_13_3)"/>
<path d="M532.998 387.235C532.998 384.734 534.416 382.708 536.167 382.708C537.917 382.708 539.335 384.734 539.335 387.235V515.837C539.335 518.337 537.917 520.364 536.167 520.364C534.416 520.364 532.998 518.337 532.998 515.837V387.235Z" fill="url(#paint72_linear_13_3)"/>
<path d="M582.233 387.235C582.233 384.734 583.651 382.708 585.402 382.708C587.152 382.708 588.571 384.734 588.571 387.235V515.837C588.571 518.337 587.152 520.364 585.402 520.364C583.651 520.364 582.233 518.337 582.233 515.837V387.235Z" fill="url(#paint73_linear_13_3)"/>
<path d="M614.38 387.235C614.38 384.734 615.799 382.708 617.549 382.708C619.299 382.708 620.718 384.734 620.718 387.235V515.837C620.718 518.337 619.299 520.364 617.549 520.364C615.799 520.364 614.38 518.337 614.38 515.837V387.235Z" fill="url(#paint74_linear_13_3)"/>
</g>
<g clip-path="url(#clip0_13_3)">
<rect x="348.788" y="121.919" width="275.938" height="275.938" rx="9.75093" fill="url(#paint75_linear_13_3)" stroke="url(#paint76_linear_13_3)" stroke-width="0.92866"/>
<rect x="348.323" y="121.455" width="276.867" height="276.867" rx="5.81093" fill="url(#paint77_linear_13_3)"/>
<rect x="348.583" y="121.714" width="276.347" height="276.347" rx="5.55128" stroke="black" stroke-opacity="0.36" stroke-width="0.519297"/>
<g opacity="0.32" filter="url(#filter0_f_13_3)">
<path d="M542.608 348.276C542.608 331.8 555.965 318.443 572.442 318.443H687.224C703.7 318.443 717.057 331.8 717.057 348.276V447.777C717.057 464.253 703.7 477.61 687.224 477.61H572.442C555.965 477.61 542.608 464.253 542.608 447.777V348.276Z" fill="#FB652C"/>
</g>
<g opacity="0.32" filter="url(#filter1_f_13_3)">
<rect x="310.69" y="30.9634" width="77.3057" height="180.983" rx="29.8333" fill="#FB652C"/>
</g>
<g clip-path="url(#clip1_13_3)">
<rect x="366.938" y="140.069" width="239.639" height="239.639" rx="5.81093" fill="url(#paint78_linear_13_3)"/>
<rect x="367.198" y="140.328" width="239.12" height="239.12" rx="5.55128" stroke="black" stroke-opacity="0.19" stroke-width="0.519297"/>
<path fill-rule="evenodd" clip-rule="evenodd" d="M486.808 267.769L490.439 274.725C490.66 275.148 491.097 275.413 491.575 275.413V275.413C492.537 275.413 493.156 274.391 492.71 273.538L479.229 247.776C478.787 246.931 477.911 246.401 476.957 246.401V246.401C476.003 246.401 475.128 246.931 474.686 247.776L461.205 273.538C460.759 274.391 461.377 275.413 462.34 275.413V275.413C462.817 275.413 463.255 275.148 463.476 274.725L467.107 267.769H486.808ZM468.395 265.341L476.968 248.956L485.52 265.341H468.395Z" fill="white"/>
<path d="M427.701 246.401C428.062 246.401 428.407 246.549 428.657 246.81L437.355 255.935C438.648 257.291 439.37 259.094 439.37 260.968C439.37 262.842 438.648 264.644 437.355 266L428.657 275.125C428.407 275.387 428.062 275.534 427.701 275.534C426.543 275.534 425.944 274.154 426.738 273.311C428.944 270.972 432.341 267.373 434.138 265.488C435.344 264.222 436.491 262.596 436.498 260.968C436.491 259.34 435.344 257.713 434.138 256.448C432.341 254.563 428.944 250.963 426.738 248.624C425.944 247.782 426.543 246.401 427.701 246.401Z" fill="white"/>
<path d="M452.601 275.004C452.851 275.266 453.196 275.414 453.557 275.414C454.715 275.414 455.314 274.033 454.52 273.191C452.314 270.851 448.917 267.252 447.12 265.367C445.929 264.117 444.795 262.515 444.761 260.907C444.795 259.3 445.929 257.698 447.12 256.448C448.917 254.563 452.314 250.963 454.52 248.624C455.314 247.782 454.715 246.401 453.557 246.401C453.196 246.401 452.851 246.549 452.601 246.81L443.903 255.935C442.638 257.262 441.92 259.016 441.889 260.847H441.888C441.888 260.867 441.888 260.887 441.889 260.907C441.888 260.927 441.888 260.948 441.888 260.968H441.889C441.92 262.798 442.638 264.552 443.903 265.88L452.601 275.004Z" fill="white"/>
<path d="M528.64 275.413C528.098 275.413 527.579 275.196 527.199 274.81L502.582 249.864V274.093C502.582 274.822 501.991 275.413 501.262 275.413V275.413C500.533 275.413 499.942 274.822 499.942 274.093V248.454C499.942 247.32 500.862 246.401 501.996 246.401V246.401C502.546 246.401 503.074 246.622 503.46 247.014L528.068 272.035V247.699C528.068 246.982 528.649 246.401 529.366 246.401V246.401C530.083 246.401 530.665 246.982 530.665 247.699V273.388C530.665 274.506 529.758 275.413 528.64 275.413V275.413Z" fill="white"/>
<path fill-rule="evenodd" clip-rule="evenodd" d="M568.27 275.413C567.793 275.413 567.355 275.148 567.134 274.725L563.503 267.769H543.802L540.171 274.725C539.95 275.148 539.513 275.413 539.035 275.413V275.413C538.073 275.413 537.454 274.391 537.9 273.538L551.381 247.776C551.823 246.931 552.699 246.401 553.653 246.401V246.401C554.607 246.401 555.482 246.931 555.924 247.776L569.405 273.538C569.851 274.391 569.233 275.413 568.27 275.413V275.413ZM553.663 248.956L545.09 265.341H562.215L553.663 248.956Z" fill="white"/>
<path d="M403.13 248.316C403.13 247.647 403.672 247.105 404.341 247.105H417.804C418.473 247.105 419.016 247.647 419.016 248.316C419.016 248.985 418.473 249.528 417.804 249.528L412.392 249.528V272.951C412.392 272.964 412.392 272.978 412.392 272.991H417.805C418.474 272.991 419.016 273.533 419.016 274.202C419.016 274.872 418.474 275.414 417.805 275.414L404.342 275.414C403.673 275.414 403.131 274.872 403.131 274.202C403.131 273.533 403.673 272.991 404.342 272.991H409.754C409.753 272.978 409.753 272.964 409.753 272.951V249.528L404.341 249.528C403.672 249.528 403.13 248.985 403.13 248.316Z" fill="white"/>
<circle cx="440.629" cy="246.4" r="2.15729" fill="white"/>
<path d="M472.966 357.848L471.007 352.183H471.688L473.287 356.939L474.744 352.183H475.309L476.782 356.939L478.388 352.183H479.07L477.103 357.848H476.492L475.026 353.1L473.577 357.848H472.966ZM481.09 357.848V352.175H481.725V357.848H481.09ZM484.195 355.748V355.176H486.648V355.748H484.195ZM493.319 357.848H492.551L491.094 355.795C490.945 355.803 490.78 355.811 490.616 355.811H489.714V357.848H489.08V352.175H490.623C492.324 352.175 493.241 352.598 493.241 353.985C493.241 355.004 492.716 355.513 491.76 355.709L493.319 357.848ZM489.714 355.262H490.663C491.901 355.262 492.606 355.059 492.606 354.009C492.606 352.959 491.901 352.739 490.663 352.739H489.714V355.262Z" fill="white"/>
<path d="M475.83 167.355V165.733L473.456 161.682H474.185L476.144 165.075L478.126 161.682H478.863L476.465 165.733V167.355H475.83ZM485.123 167.355H484.355L482.898 165.302C482.749 165.31 482.584 165.318 482.42 165.318H481.518V167.355H480.884V161.682H482.427C484.128 161.682 485.045 162.105 485.045 163.492C485.045 164.511 484.52 165.02 483.564 165.216L485.123 167.355ZM481.518 164.769H482.467C483.705 164.769 484.41 164.565 484.41 163.515C484.41 162.465 483.705 162.246 482.467 162.246H481.518V164.769ZM487.992 167.355V162.269H487.099V161.682H488.627V167.355H487.992ZM491.776 167.355V162.269H490.883V161.682H492.411V167.355H491.776Z" fill="white"/>
</g>
</g>
<defs>
<filter id="filter0_f_13_3" x="408.927" y="184.762" width="441.812" height="426.53" filterUnits="userSpaceOnUse" color-interpolation-filters="sRGB">
<feFlood flood-opacity="0" result="BackgroundImageFix"/>
<feBlend mode="normal" in="SourceGraphic" in2="BackgroundImageFix" result="shape"/>
<feGaussianBlur stdDeviation="66.8408" result="effect1_foregroundBlur_13_3"/>
</filter>
<filter id="filter1_f_13_3" x="177.009" y="-102.718" width="344.669" height="448.346" filterUnits="userSpaceOnUse" color-interpolation-filters="sRGB">
<feFlood flood-opacity="0" result="BackgroundImageFix"/>
<feBlend mode="normal" in="SourceGraphic" in2="BackgroundImageFix" result="shape"/>
<feGaussianBlur stdDeviation="66.8408" result="effect1_foregroundBlur_13_3"/>
</filter>
<linearGradient id="paint0_linear_13_3" x1="43.5087" y1="-4.91521" x2="-153.318" y2="-4.91521" gradientUnits="userSpaceOnUse">
<stop stop-color="#505050" stop-opacity="0"/>
<stop offset="0.322917" stop-opacity="0.63"/>
<stop offset="1"/>
</linearGradient>
<linearGradient id="paint1_linear_13_3" x1="43.5087" y1="-4.91521" x2="-153.318" y2="-4.91521" gradientUnits="userSpaceOnUse">
<stop stop-color="#505050" stop-opacity="0"/>
<stop offset="0.322917" stop-opacity="0.63"/>
<stop offset="1"/>
</linearGradient>
<linearGradient id="paint2_linear_13_3" x1="291.754" y1="162.014" x2="447.786" y2="162.014" gradientUnits="userSpaceOnUse">
<stop stop-color="#FF6B2C" stop-opacity="0"/>
<stop offset="0.322917" stop-color="#FF6B2C"/>
<stop offset="1" stop-color="#DF3724"/>
</linearGradient>
<linearGradient id="paint3_linear_13_3" x1="58.9389" y1="-4.91521" x2="-207.692" y2="-4.91521" gradientUnits="userSpaceOnUse">
<stop stop-color="#505050" stop-opacity="0"/>
<stop offset="0.322917" stop-opacity="0.63"/>
<stop offset="1"/>
</linearGradient>
<linearGradient id="paint4_linear_13_3" x1="279.816" y1="178.42" x2="462.963" y2="178.42" gradientUnits="userSpaceOnUse">
<stop stop-color="#FF6B2C" stop-opacity="0"/>
<stop offset="0.322917" stop-color="#FF6B2C"/>
<stop offset="1" stop-color="#DF3724"/>
</linearGradient>
<linearGradient id="paint5_linear_13_3" x1="69.1809" y1="-4.91521" x2="-243.783" y2="-4.91521" gradientUnits="userSpaceOnUse">
<stop stop-color="#505050" stop-opacity="0"/>
<stop offset="0.322917" stop-opacity="0.63"/>
<stop offset="1"/>
</linearGradient>
<linearGradient id="paint6_linear_13_3" x1="279.816" y1="194.828" x2="462.963" y2="194.827" gradientUnits="userSpaceOnUse">
<stop stop-color="#FF6B2C" stop-opacity="0"/>
<stop offset="0.322917" stop-color="#FF6B2C"/>
<stop offset="1" stop-color="#DF3724"/>
</linearGradient>
<linearGradient id="paint7_linear_13_3" x1="69.1809" y1="-4.91521" x2="-243.783" y2="-4.91521" gradientUnits="userSpaceOnUse">
<stop stop-color="#505050" stop-opacity="0"/>
<stop offset="0.322917" stop-opacity="0.63"/>
<stop offset="1"/>
</linearGradient>
<linearGradient id="paint8_linear_13_3" x1="222.242" y1="211.234" x2="536.161" y2="211.234" gradientUnits="userSpaceOnUse">
<stop stop-color="#FF6B2C" stop-opacity="0"/>
<stop offset="0.322917" stop-color="#FF6B2C"/>
<stop offset="1" stop-color="#DF3724"/>
</linearGradient>
<linearGradient id="paint9_linear_13_3" x1="268.606" y1="309.671" x2="477.216" y2="309.671" gradientUnits="userSpaceOnUse">
<stop stop-color="#FF6B2C" stop-opacity="0"/>
<stop offset="0.322917" stop-color="#FF6B2C"/>
<stop offset="1" stop-color="#DF3724"/>
</linearGradient>
<linearGradient id="paint10_linear_13_3" x1="78.7993" y1="-4.91521" x2="-277.677" y2="-4.91521" gradientUnits="userSpaceOnUse">
<stop stop-color="#505050" stop-opacity="0"/>
<stop offset="0.322917" stop-opacity="0.63"/>
<stop offset="1"/>
</linearGradient>
<linearGradient id="paint11_linear_13_3" x1="268.606" y1="326.078" x2="477.216" y2="326.077" gradientUnits="userSpaceOnUse">
<stop stop-color="#FF6B2C" stop-opacity="0"/>
<stop offset="0.322917" stop-color="#FF6B2C"/>
<stop offset="1" stop-color="#DF3724"/>
</linearGradient>
<linearGradient id="paint12_linear_13_3" x1="78.7993" y1="-4.91521" x2="-277.677" y2="-4.91521" gradientUnits="userSpaceOnUse">
<stop stop-color="#505050" stop-opacity="0"/>
<stop offset="0.322917" stop-opacity="0.63"/>
<stop offset="1"/>
</linearGradient>
<linearGradient id="paint13_linear_13_3" x1="302.791" y1="342.484" x2="433.753" y2="342.484" gradientUnits="userSpaceOnUse">
<stop stop-color="#FF6B2C" stop-opacity="0"/>
<stop offset="0.322917" stop-color="#FF6B2C"/>
<stop offset="1" stop-color="#DF3724"/>
</linearGradient>
<linearGradient id="paint14_linear_13_3" x1="49.4688" y1="-4.91521" x2="-174.321" y2="-4.91521" gradientUnits="userSpaceOnUse">
<stop stop-color="#505050" stop-opacity="0"/>
<stop offset="0.322917" stop-opacity="0.63"/>
<stop offset="1"/>
</linearGradient>
<linearGradient id="paint15_linear_13_3" x1="302.795" y1="358.89" x2="433.757" y2="358.89" gradientUnits="userSpaceOnUse">
<stop stop-color="#FF6B2C" stop-opacity="0"/>
<stop offset="0.322917" stop-color="#FF6B2C"/>
<stop offset="1" stop-color="#DF3724"/>
</linearGradient>
<linearGradient id="paint16_linear_13_3" x1="49.4688" y1="-4.91521" x2="-174.321" y2="-4.91521" gradientUnits="userSpaceOnUse">
<stop stop-color="#505050" stop-opacity="0"/>
<stop offset="0.322917" stop-opacity="0.63"/>
<stop offset="1"/>
</linearGradient>
<linearGradient id="paint17_linear_13_3" x1="36.5179" y1="-4.91521" x2="-128.684" y2="-4.91521" gradientUnits="userSpaceOnUse">
<stop stop-color="#505050" stop-opacity="0"/>
<stop offset="0.322917" stop-opacity="0.63"/>
<stop offset="1"/>
</linearGradient>
<linearGradient id="paint18_linear_13_3" x1="36.5179" y1="-4.91521" x2="-128.684" y2="-4.91521" gradientUnits="userSpaceOnUse">
<stop stop-color="#505050" stop-opacity="0"/>
<stop offset="0.322917" stop-opacity="0.63"/>
<stop offset="1"/>
</linearGradient>
<linearGradient id="paint19_linear_13_3" x1="681.833" y1="119.538" x2="390.659" y2="119.538" gradientUnits="userSpaceOnUse">
<stop stop-color="#505050" stop-opacity="0"/>
<stop offset="0.322917" stop-opacity="0.63"/>
<stop offset="1"/>
</linearGradient>
<linearGradient id="paint20_linear_13_3" x1="684.088" y1="135.945" x2="411.075" y2="135.945" gradientUnits="userSpaceOnUse">
<stop stop-color="#505050" stop-opacity="0"/>
<stop offset="0.322917" stop-opacity="0.63"/>
<stop offset="1"/>
</linearGradient>
<linearGradient id="paint21_linear_13_3" x1="807.943" y1="152.351" x2="-25.3732" y2="152.351" gradientUnits="userSpaceOnUse">
<stop stop-color="#505050" stop-opacity="0"/>
<stop offset="0.322917" stop-opacity="0.63"/>
<stop offset="1"/>
</linearGradient>
<linearGradient id="paint22_linear_13_3" x1="1135.63" y1="234.382" x2="-1180.09" y2="234.382" gradientUnits="userSpaceOnUse">
<stop stop-color="#505050" stop-opacity="0"/>
<stop offset="0.322917" stop-opacity="0.63"/>
<stop offset="1"/>
</linearGradient>
<linearGradient id="paint23_linear_13_3" x1="807.943" y1="168.757" x2="-25.3732" y2="168.757" gradientUnits="userSpaceOnUse">
<stop stop-color="#505050" stop-opacity="0"/>
<stop offset="0.322917" stop-opacity="0.63"/>
<stop offset="1"/>
</linearGradient>
<linearGradient id="paint24_linear_13_3" x1="807.943" y1="185.165" x2="-25.3732" y2="185.165" gradientUnits="userSpaceOnUse">
<stop stop-color="#505050" stop-opacity="0"/>
<stop offset="0.322917" stop-opacity="0.63"/>
<stop offset="1"/>
</linearGradient>
<linearGradient id="paint25_linear_13_3" x1="922.388" y1="201.572" x2="-428.66" y2="201.572" gradientUnits="userSpaceOnUse">
<stop stop-color="#505050" stop-opacity="0"/>
<stop offset="0.322917" stop-opacity="0.63"/>
<stop offset="1"/>
</linearGradient>
<linearGradient id="paint26_linear_13_3" x1="922.388" y1="217.978" x2="-428.66" y2="217.978" gradientUnits="userSpaceOnUse">
<stop stop-color="#505050" stop-opacity="0"/>
<stop offset="0.322917" stop-opacity="0.63"/>
<stop offset="1"/>
</linearGradient>
<linearGradient id="paint27_linear_13_3" x1="1135.63" y1="250.79" x2="-1180.1" y2="250.79" gradientUnits="userSpaceOnUse">
<stop stop-color="#505050" stop-opacity="0"/>
<stop offset="0.322917" stop-opacity="0.63"/>
<stop offset="1"/>
</linearGradient>
<linearGradient id="paint28_linear_13_3" x1="1135.63" y1="267.197" x2="-1180.1" y2="267.197" gradientUnits="userSpaceOnUse">
<stop stop-color="#505050" stop-opacity="0"/>
<stop offset="0.322917" stop-opacity="0.63"/>
<stop offset="1"/>
</linearGradient>
<linearGradient id="paint29_linear_13_3" x1="1135.63" y1="283.603" x2="-1180.1" y2="283.603" gradientUnits="userSpaceOnUse">
<stop stop-color="#505050" stop-opacity="0"/>
<stop offset="0.322917" stop-opacity="0.63"/>
<stop offset="1"/>
</linearGradient>
<linearGradient id="paint30_linear_13_3" x1="922.388" y1="300.009" x2="-428.66" y2="300.009" gradientUnits="userSpaceOnUse">
<stop stop-color="#505050" stop-opacity="0"/>
<stop offset="0.322917" stop-opacity="0.63"/>
<stop offset="1"/>
</linearGradient>
<linearGradient id="paint31_linear_13_3" x1="922.388" y1="316.415" x2="-428.66" y2="316.415" gradientUnits="userSpaceOnUse">
<stop stop-color="#505050" stop-opacity="0"/>
<stop offset="0.322917" stop-opacity="0.63"/>
<stop offset="1"/>
</linearGradient>
<linearGradient id="paint32_linear_13_3" x1="807.943" y1="332.822" x2="-25.3732" y2="332.822" gradientUnits="userSpaceOnUse">
<stop stop-color="#505050" stop-opacity="0"/>
<stop offset="0.322917" stop-opacity="0.63"/>
<stop offset="1"/>
</linearGradient>
<linearGradient id="paint33_linear_13_3" x1="807.943" y1="349.228" x2="-25.3732" y2="349.228" gradientUnits="userSpaceOnUse">
<stop stop-color="#505050" stop-opacity="0"/>
<stop offset="0.322917" stop-opacity="0.63"/>
<stop offset="1"/>
</linearGradient>
<linearGradient id="paint34_linear_13_3" x1="684.088" y1="365.634" x2="411.075" y2="365.634" gradientUnits="userSpaceOnUse">
<stop stop-color="#505050" stop-opacity="0"/>
<stop offset="0.322917" stop-opacity="0.63"/>
<stop offset="1"/>
</linearGradient>
<linearGradient id="paint35_linear_13_3" x1="684.088" y1="382.04" x2="411.075" y2="382.04" gradientUnits="userSpaceOnUse">
<stop stop-color="#505050" stop-opacity="0"/>
<stop offset="0.322917" stop-opacity="0.63"/>
<stop offset="1"/>
</linearGradient>
<linearGradient id="paint36_linear_13_3" x1="401.804" y1="283.483" x2="198.772" y2="154.149" gradientUnits="userSpaceOnUse">
<stop stop-color="#FF6321"/>
<stop offset="1" stop-color="#DF4705" stop-opacity="0"/>
</linearGradient>
<linearGradient id="paint37_linear_13_3" x1="387.375" y1="284.302" x2="302.447" y2="184.078" gradientUnits="userSpaceOnUse">
<stop stop-color="#FF6321"/>
<stop offset="1" stop-color="#DF4705" stop-opacity="0"/>
</linearGradient>
<linearGradient id="paint38_linear_13_3" x1="380.294" y1="300.107" x2="303.262" y2="218.296" gradientUnits="userSpaceOnUse">
<stop stop-color="#FF6321"/>
<stop offset="1" stop-color="#DF4705" stop-opacity="0"/>
</linearGradient>
<linearGradient id="paint39_linear_13_3" x1="413.548" y1="278.35" x2="85.7534" y2="125.174" gradientUnits="userSpaceOnUse">
<stop stop-color="#FF6321"/>
<stop offset="1" stop-color="#DF4705" stop-opacity="0"/>
</linearGradient>
<linearGradient id="paint40_linear_13_3" x1="395.735" y1="263.839" x2="142.552" y2="187.163" gradientUnits="userSpaceOnUse">
<stop stop-color="#FF6321"/>
<stop offset="1" stop-color="#DF4705" stop-opacity="0"/>
</linearGradient>
<linearGradient id="paint41_linear_13_3" x1="430.414" y1="17.7281" x2="430.414" y2="583.845" gradientUnits="userSpaceOnUse">
<stop stop-color="#505050" stop-opacity="0"/>
<stop offset="0.322917" stop-opacity="0.63"/>
<stop offset="1"/>
</linearGradient>
<linearGradient id="paint42_linear_13_3" x1="430.414" y1="17.7281" x2="430.414" y2="583.845" gradientUnits="userSpaceOnUse">
<stop stop-color="#505050" stop-opacity="0"/>
<stop offset="0.322917" stop-opacity="0.63"/>
<stop offset="1"/>
</linearGradient>
<linearGradient id="paint43_linear_13_3" x1="430.414" y1="17.7281" x2="430.414" y2="583.845" gradientUnits="userSpaceOnUse">
<stop stop-color="#505050" stop-opacity="0"/>
<stop offset="0.322917" stop-opacity="0.63"/>
<stop offset="1"/>
</linearGradient>
<linearGradient id="paint44_linear_13_3" x1="430.414" y1="17.7281" x2="430.414" y2="583.845" gradientUnits="userSpaceOnUse">
<stop stop-color="#505050" stop-opacity="0"/>
<stop offset="0.322917" stop-opacity="0.63"/>
<stop offset="1"/>
</linearGradient>
<linearGradient id="paint45_linear_13_3" x1="430.414" y1="17.7281" x2="430.414" y2="583.845" gradientUnits="userSpaceOnUse">
<stop stop-color="#505050" stop-opacity="0"/>
<stop offset="0.322917" stop-opacity="0.63"/>
<stop offset="1"/>
</linearGradient>
<linearGradient id="paint46_linear_13_3" x1="430.414" y1="17.7281" x2="430.414" y2="583.845" gradientUnits="userSpaceOnUse">
<stop stop-color="#505050" stop-opacity="0"/>
<stop offset="0.322917" stop-opacity="0.63"/>
<stop offset="1"/>
</linearGradient>
<linearGradient id="paint47_linear_13_3" x1="430.414" y1="17.7281" x2="430.414" y2="583.845" gradientUnits="userSpaceOnUse">
<stop stop-color="#505050" stop-opacity="0"/>
<stop offset="0.322917" stop-opacity="0.63"/>
<stop offset="1"/>
</linearGradient>
<linearGradient id="paint48_linear_13_3" x1="430.414" y1="17.7281" x2="430.414" y2="583.845" gradientUnits="userSpaceOnUse">
<stop stop-color="#505050" stop-opacity="0"/>
<stop offset="0.322917" stop-opacity="0.63"/>
<stop offset="1"/>
</linearGradient>
<linearGradient id="paint49_linear_13_3" x1="430.414" y1="17.7281" x2="430.414" y2="583.845" gradientUnits="userSpaceOnUse">
<stop stop-color="#505050" stop-opacity="0"/>
<stop offset="0.322917" stop-opacity="0.63"/>
<stop offset="1"/>
</linearGradient>
<linearGradient id="paint50_linear_13_3" x1="430.414" y1="17.7281" x2="430.414" y2="583.845" gradientUnits="userSpaceOnUse">
<stop stop-color="#505050" stop-opacity="0"/>
<stop offset="0.322917" stop-opacity="0.63"/>
<stop offset="1"/>
</linearGradient>
<linearGradient id="paint51_linear_13_3" x1="430.414" y1="17.7281" x2="430.414" y2="583.845" gradientUnits="userSpaceOnUse">
<stop stop-color="#505050" stop-opacity="0"/>
<stop offset="0.322917" stop-opacity="0.63"/>
<stop offset="1"/>
</linearGradient>
<linearGradient id="paint52_linear_13_3" x1="430.414" y1="17.7281" x2="430.414" y2="583.845" gradientUnits="userSpaceOnUse">
<stop stop-color="#505050" stop-opacity="0"/>
<stop offset="0.322917" stop-opacity="0.63"/>
<stop offset="1"/>
</linearGradient>
<linearGradient id="paint53_linear_13_3" x1="430.414" y1="17.7281" x2="430.414" y2="583.845" gradientUnits="userSpaceOnUse">
<stop stop-color="#505050" stop-opacity="0"/>
<stop offset="0.322917" stop-opacity="0.63"/>
<stop offset="1"/>
</linearGradient>
<linearGradient id="paint54_linear_13_3" x1="430.414" y1="17.7281" x2="430.414" y2="583.845" gradientUnits="userSpaceOnUse">
<stop stop-color="#505050" stop-opacity="0"/>
<stop offset="0.322917" stop-opacity="0.63"/>
<stop offset="1"/>
</linearGradient>
<linearGradient id="paint55_linear_13_3" x1="430.414" y1="17.7281" x2="430.414" y2="583.845" gradientUnits="userSpaceOnUse">
<stop stop-color="#505050" stop-opacity="0"/>
<stop offset="0.322917" stop-opacity="0.63"/>
<stop offset="1"/>
</linearGradient>
<linearGradient id="paint56_linear_13_3" x1="430.414" y1="17.7281" x2="430.414" y2="583.845" gradientUnits="userSpaceOnUse">
<stop stop-color="#505050" stop-opacity="0"/>
<stop offset="0.322917" stop-opacity="0.63"/>
<stop offset="1"/>
</linearGradient>
<linearGradient id="paint57_linear_13_3" x1="430.414" y1="17.7281" x2="430.414" y2="583.845" gradientUnits="userSpaceOnUse">
<stop stop-color="#505050" stop-opacity="0"/>
<stop offset="0.322917" stop-opacity="0.63"/>
<stop offset="1"/>
</linearGradient>
<linearGradient id="paint58_linear_13_3" x1="542.336" y1="502.663" x2="542.336" y2="-63.4534" gradientUnits="userSpaceOnUse">
<stop stop-color="#505050" stop-opacity="0"/>
<stop offset="0.322917" stop-opacity="0.63"/>
<stop offset="1"/>
</linearGradient>
<linearGradient id="paint59_linear_13_3" x1="542.336" y1="502.663" x2="542.336" y2="-63.4534" gradientUnits="userSpaceOnUse">
<stop stop-color="#505050" stop-opacity="0"/>
<stop offset="0.322917" stop-opacity="0.63"/>
<stop offset="1"/>
</linearGradient>
<linearGradient id="paint60_linear_13_3" x1="542.336" y1="502.663" x2="542.336" y2="-63.4534" gradientUnits="userSpaceOnUse">
<stop stop-color="#505050" stop-opacity="0"/>
<stop offset="0.322917" stop-opacity="0.63"/>
<stop offset="1"/>
</linearGradient>
<linearGradient id="paint61_linear_13_3" x1="542.336" y1="502.663" x2="542.336" y2="-63.4534" gradientUnits="userSpaceOnUse">
<stop stop-color="#505050" stop-opacity="0"/>
<stop offset="0.322917" stop-opacity="0.63"/>
<stop offset="1"/>
</linearGradient>
<linearGradient id="paint62_linear_13_3" x1="542.336" y1="502.663" x2="542.336" y2="-63.4534" gradientUnits="userSpaceOnUse">
<stop stop-color="#505050" stop-opacity="0"/>
<stop offset="0.322917" stop-opacity="0.63"/>
<stop offset="1"/>
</linearGradient>
<linearGradient id="paint63_linear_13_3" x1="542.336" y1="502.663" x2="542.336" y2="-63.4534" gradientUnits="userSpaceOnUse">
<stop stop-color="#505050" stop-opacity="0"/>
<stop offset="0.322917" stop-opacity="0.63"/>
<stop offset="1"/>
</linearGradient>
<linearGradient id="paint64_linear_13_3" x1="542.336" y1="502.663" x2="542.336" y2="-63.4534" gradientUnits="userSpaceOnUse">
<stop stop-color="#505050" stop-opacity="0"/>
<stop offset="0.322917" stop-opacity="0.63"/>
<stop offset="1"/>
</linearGradient>
<linearGradient id="paint65_linear_13_3" x1="542.336" y1="502.663" x2="542.336" y2="-63.4534" gradientUnits="userSpaceOnUse">
<stop stop-color="#505050" stop-opacity="0"/>
<stop offset="0.322917" stop-opacity="0.63"/>
<stop offset="1"/>
</linearGradient>
<linearGradient id="paint66_linear_13_3" x1="542.336" y1="502.663" x2="542.336" y2="-63.4534" gradientUnits="userSpaceOnUse">
<stop stop-color="#505050" stop-opacity="0"/>
<stop offset="0.322917" stop-opacity="0.63"/>
<stop offset="1"/>
</linearGradient>
<linearGradient id="paint67_linear_13_3" x1="542.336" y1="502.663" x2="542.336" y2="-63.4534" gradientUnits="userSpaceOnUse">
<stop stop-color="#505050" stop-opacity="0"/>
<stop offset="0.322917" stop-opacity="0.63"/>
<stop offset="1"/>
</linearGradient>
<linearGradient id="paint68_linear_13_3" x1="542.336" y1="502.663" x2="542.336" y2="-63.4534" gradientUnits="userSpaceOnUse">
<stop stop-color="#505050" stop-opacity="0"/>
<stop offset="0.322917" stop-opacity="0.63"/>
<stop offset="1"/>
</linearGradient>
<linearGradient id="paint69_linear_13_3" x1="542.336" y1="502.663" x2="542.336" y2="-63.4534" gradientUnits="userSpaceOnUse">
<stop stop-color="#505050" stop-opacity="0"/>
<stop offset="0.322917" stop-opacity="0.63"/>
<stop offset="1"/>
</linearGradient>
<linearGradient id="paint70_linear_13_3" x1="542.336" y1="502.663" x2="542.336" y2="-63.4534" gradientUnits="userSpaceOnUse">
<stop stop-color="#505050" stop-opacity="0"/>
<stop offset="0.322917" stop-opacity="0.63"/>
<stop offset="1"/>
</linearGradient>
<linearGradient id="paint71_linear_13_3" x1="542.336" y1="502.663" x2="542.336" y2="-63.4534" gradientUnits="userSpaceOnUse">
<stop stop-color="#505050" stop-opacity="0"/>
<stop offset="0.322917" stop-opacity="0.63"/>
<stop offset="1"/>
</linearGradient>
<linearGradient id="paint72_linear_13_3" x1="542.336" y1="502.663" x2="542.336" y2="-63.4534" gradientUnits="userSpaceOnUse">
<stop stop-color="#505050" stop-opacity="0"/>
<stop offset="0.322917" stop-opacity="0.63"/>
<stop offset="1"/>
</linearGradient>
<linearGradient id="paint73_linear_13_3" x1="542.336" y1="502.663" x2="542.336" y2="-63.4534" gradientUnits="userSpaceOnUse">
<stop stop-color="#505050" stop-opacity="0"/>
<stop offset="0.322917" stop-opacity="0.63"/>
<stop offset="1"/>
</linearGradient>
<linearGradient id="paint74_linear_13_3" x1="542.336" y1="502.663" x2="542.336" y2="-63.4534" gradientUnits="userSpaceOnUse">
<stop stop-color="#505050" stop-opacity="0"/>
<stop offset="0.322917" stop-opacity="0.63"/>
<stop offset="1"/>
</linearGradient>
<linearGradient id="paint75_linear_13_3" x1="486.757" y1="100.186" x2="486.757" y2="398.321" gradientUnits="userSpaceOnUse">
<stop stop-color="#FF6B2C"/>
<stop offset="1" stop-color="#DF3724"/>
</linearGradient>
<linearGradient id="paint76_linear_13_3" x1="625.19" y1="121.455" x2="348.323" y2="416.121" gradientUnits="userSpaceOnUse">
<stop stop-color="#E43F2B"/>
<stop offset="0.421183" stop-color="#E47A32"/>
<stop offset="0.92866" stop-color="#EB6554"/>
</linearGradient>
<linearGradient id="paint77_linear_13_3" x1="314.832" y1="54.1349" x2="666.527" y2="461.628" gradientUnits="userSpaceOnUse">
<stop stop-color="#B3B3B3"/>
<stop offset="1" stop-color="#737171"/>
</linearGradient>
<linearGradient id="paint78_linear_13_3" x1="366.938" y1="140.069" x2="606.576" y2="379.708" gradientUnits="userSpaceOnUse">
<stop stop-color="#EBEBEB"/>
<stop offset="0.0001" stop-color="#D2D2D2" stop-opacity="0.983214"/>
<stop offset="0.359375" stop-color="#CBCBCB"/>
<stop offset="0.6875" stop-color="#D0D0D0"/>
<stop offset="1" stop-color="#F5F5F5"/>
</linearGradient>
<clipPath id="clip0_13_3">
<path d="M348.323 127.455C348.323 124.141 351.01 121.455 354.323 121.455H623.19C624.295 121.455 625.19 122.35 625.19 123.455V392.321C625.19 395.635 622.504 398.321 619.19 398.321H350.323C349.219 398.321 348.323 397.426 348.323 396.321V127.455Z" fill="white"/>
</clipPath>
<clipPath id="clip1_13_3">
<rect x="366.938" y="140.069" width="239.639" height="239.639" rx="10.4447" fill="white"/>
</clipPath>
</defs>
</svg>
