<svg width="34" height="34" viewBox="0 0 34 34" fill="none" xmlns="http://www.w3.org/2000/svg">
<path d="M22.3818 8.65206L16.8156 14.2182L11.2495 8.65206L13.8638 6.03782C15.494 4.40754 18.1372 4.40754 19.7675 6.03782L22.3818 8.65206Z" stroke="black" stroke-opacity="0.42" stroke-width="1.92237"/>
<path d="M22.3818 25.3499L16.8156 19.7838L11.2495 25.3499L13.8638 27.9641C15.494 29.5944 18.1372 29.5944 19.7675 27.9641L22.3818 25.3499Z" stroke="black" stroke-opacity="0.42" stroke-width="1.92237"/>
<path d="M25.1648 22.5668L19.5987 17.0007L25.1648 11.4346L27.7791 14.0488C29.4094 15.6791 29.4094 18.3223 27.7791 19.9526L25.1648 22.5668Z" stroke="black" stroke-opacity="0.42" stroke-width="1.92237"/>
<path d="M8.46627 22.5668L14.0324 17.0007L8.46627 11.4346L5.85203 14.0488C4.22175 15.6791 4.22175 18.3223 5.85203 19.9526L8.46627 22.5668Z" stroke="black" stroke-opacity="0.42" stroke-width="1.92237"/>
</svg>
